<svg xmlns="http://www.w3.org/2000/svg" width="1366" height="110" viewBox="0 0 1366 110">
    <g fill="none" fill-rule="evenodd">
        <path fill="#F2F2F2" d="M0 0H1366V90H0z"/>
        <path fill="#FFF" d="M0 0H1366V90H0z"/>
        <path stroke="#66799D" stroke-dasharray="15" stroke-linecap="round" stroke-linejoin="round" stroke-width="5" d="M0 0.5L1290 0.5" opacity=".5" transform="translate(38 45)"/>
        <path fill="#FFF" fill-rule="nonzero" stroke="#EE7D05" stroke-width="2" d="M378.232 69.485c4.522 0 8.458-1.015 11.807-3.046 3.35-2.03 5.925-4.909 7.725-8.635 1.8-3.726 2.7-8.08 2.7-13.062 0-4.982-.9-9.336-2.7-13.062-1.8-3.726-4.375-6.604-7.725-8.634-3.35-2.03-7.285-3.046-11.807-3.046s-8.457 1.015-11.807 3.046c-3.35 2.03-5.924 4.908-7.724 8.634-1.8 3.726-2.701 8.08-2.701 13.062 0 4.982.9 9.336 2.7 13.062 1.8 3.726 4.376 6.605 7.725 8.635 3.35 2.03 7.285 3.046 11.807 3.046zm.359-12.91c-2.297 0-4.127-1.027-5.488-3.083-1.362-2.057-2.042-4.973-2.042-8.75 0-3.776.68-6.693 2.042-8.749 1.361-2.056 3.19-3.084 5.488-3.084 2.297 0 4.127 1.028 5.488 3.084 1.362 2.056 2.042 4.973 2.042 8.75 0 3.776-.68 6.692-2.042 8.749-1.361 2.056-3.19 3.084-5.488 3.084zM427 68.769V21.434h-9.723c-.66 2.16-2.012 3.706-4.056 4.64-2.044.934-4.861 1.402-8.453 1.402h0v11.272c3.385 0 6.09-.249 8.112-.747h0v30.767H427z"/>
        <path fill="#FFF" fill-rule="nonzero" stroke="#84C497" stroke-width="2" d="M699.081 69.586c4.491 0 8.4-1.018 11.727-3.052 3.326-2.035 5.884-4.919 7.672-8.653 1.788-3.733 2.682-8.096 2.682-13.088 0-4.992-.894-9.355-2.682-13.089-1.788-3.733-4.346-6.617-7.672-8.652C707.48 21.017 703.572 20 699.08 20c-4.491 0-8.4 1.017-11.727 3.052-3.326 2.035-5.884 4.919-7.672 8.652-1.788 3.734-2.682 8.097-2.682 13.089 0 4.992.894 9.355 2.682 13.088 1.788 3.734 4.346 6.618 7.672 8.653 3.327 2.034 7.236 3.052 11.727 3.052zm0-13.172c-2.245 0-4.034-1.01-5.364-3.029s-1.996-4.883-1.996-8.592c0-3.71.665-6.573 1.996-8.593 1.33-2.02 3.119-3.029 5.364-3.029 2.246 0 4.034 1.01 5.364 3.03 1.331 2.019 1.996 4.883 1.996 8.592 0 3.709-.665 6.573-1.996 8.592-1.33 2.02-3.118 3.03-5.364 3.03zm63.12 12.397V57.207h-21.536c.04-1.009.471-1.913 1.292-2.712.82-.798 2.379-1.723 4.676-2.774h0l3.63-1.83c4.471-2.017 7.712-4.182 9.722-6.495 2.01-2.312 3.015-5.276 3.015-8.891 0-4.625-1.518-8.199-4.553-10.721C755.41 21.26 751.166 20 745.71 20c-5.579 0-10.019 1.261-13.321 3.784-3.302 2.522-5.363 5.823-6.184 9.9h0l13.844.947c.205-1.01.687-1.819 1.446-2.428.76-.61 1.754-.915 2.984-.915 1.272 0 2.246.305 2.923.915.677.61 1.015 1.419 1.015 2.428 0 1.05-.4 1.944-1.2 2.68-.8.736-2.204 1.587-4.214 2.554h0l-6.215 3.027c-3.404 1.597-5.958 3.374-7.66 5.329-1.703 1.955-2.81 4.099-3.323 6.432-.513 2.333-.769 5.308-.769 8.924h0v5.234H762.2z"/>
        <g fill="#FFF" fill-rule="nonzero" stroke="#DC79A2" stroke-width="2">
            <path d="M21.877 49.79c4.45 0 8.323-1.022 11.619-3.065 3.296-2.043 5.83-4.939 7.601-8.688 1.772-3.749 2.657-8.13 2.657-13.142 0-5.013-.885-9.394-2.657-13.143-1.772-3.749-4.305-6.645-7.601-8.688C30.2 1.021 26.326 0 21.877 0c-4.45 0-8.322 1.021-11.618 3.064-3.296 2.043-5.83 4.94-7.602 8.688C.886 15.502 0 19.882 0 24.895c0 5.012.886 9.393 2.657 13.142 1.772 3.75 4.306 6.645 7.602 8.688 3.296 2.043 7.169 3.064 11.618 3.064zM21.5 36.21c-2.186 0-3.927-1.015-5.223-3.047-1.296-2.032-1.944-4.914-1.944-8.645 0-3.732.648-6.614 1.944-8.646 1.296-2.032 3.037-3.047 5.223-3.047s3.927 1.015 5.223 3.047c1.296 2.032 1.944 4.914 1.944 8.646 0 3.731-.648 6.613-1.944 8.645-1.296 2.032-3.037 3.048-5.223 3.048zm45.981 13.58c3.757 0 7.03-.643 9.817-1.928 2.787-1.284 4.934-3.085 6.441-5.402C85.246 40.143 86 37.51 86 34.562c0-2.78-.692-5.139-2.075-7.077-1.383-1.937-3.252-3.412-5.605-4.423 1.9-1.18 3.365-2.643 4.397-4.39 1.033-1.75 1.549-3.718 1.549-5.909 0-2.232-.589-4.317-1.765-6.255-1.177-1.938-3.015-3.507-5.513-4.707C74.49.6 71.383 0 67.667 0c-5.368 0-9.714 1.274-13.038 3.823-3.324 2.548-5.42 5.844-6.286 9.888h0l13.873.948c.248-1.011.733-1.822 1.456-2.433.723-.61 1.662-.916 2.818-.916 1.197 0 2.116.337 2.756 1.011.64.674.96 1.559.96 2.654 0 1.306-.547 2.37-1.641 3.19-1.094.822-2.777 1.233-5.048 1.233h0-3.22v9.414h5.078c2.065 0 3.603.39 4.614 1.17 1.012.778 1.518 1.905 1.518 3.38 0 1.347-.403 2.422-1.208 3.222-.805.8-1.91 1.2-3.313 1.2-2.478 0-4.026-1.158-4.646-3.475h0L48.28 35.32c1.033 4.844 3.252 8.467 6.659 10.868 3.406 2.401 7.587 3.601 12.542 3.601z" transform="translate(1013 20)"/>
        </g>
    </g>
</svg>
