<svg xmlns="http://www.w3.org/2000/svg" xmlns:xlink="http://www.w3.org/1999/xlink" width="129" height="64" viewBox="0 0 129 64">
    <defs>
        <path id="prefix__a" d="M0.2 0L79.323 0 79.323 55.3 0.2 55.3z"/>
        <path id="prefix__c" d="M0 0.1L83.438 0.1 83.438 8 0 8z"/>
    </defs>
    <g fill="none" fill-rule="evenodd">
        <g transform="translate(2.404) translate(47.273)">
            <mask id="prefix__b" fill="#fff">
                <use xlink:href="#prefix__a"/>
            </mask>
            <path fill="#242528" d="M79.06 6.918c1.513 14.377-3.149 60.812-23.196 45.224C27.518 30.102 5.861 58.314.61 40.687-1.67 33.017 5.035 6.35 34.03 5.611c27.059-.69 43.516-13.07 45.03 1.307" mask="url(#prefix__b)"/>
        </g>
        <path fill="#FFF" d="M107.374 14.128l-.151.002v-.742l.14-.01c1.245-.088 2.486-.23 3.72-.424l.177-.027s-.046 7.16-.046 8.239c-.023.762.073 1.227.258 1.44.18.201.603.328 1.311.354l.147.006v.734h-5.755l.003-.734.147-.006c.813-.026 1.302-.152 1.504-.357.205-.212.311-.677.284-1.437V15.53c.023-.624-.088-.996-.296-1.159-.209-.164-.68-.256-1.443-.243zm3.707-3.776c-.268.272-.614.41-1.03.42-.412-.01-.755-.147-1.023-.42-.268-.272-.405-.616-.414-1.017.009-.403.146-.744.414-1.016s.611-.408 1.023-.419c.417.011.762.147 1.03.42.264.272.404.612.41 1.015.002.38-.145.744-.41 1.016v.001zm4.455 10.802c.138.876.444 1.476.897 1.821.469.359 1.118.536 1.957.524.323 0 .653-.059.989-.171.322-.106.61-.291.84-.54.224-.238.34-.547.348-.948-.015-.472-.21-.858-.59-1.162-.392-.317-.885-.598-1.47-.848-.594-.253-1.188-.528-1.782-.832-.577-.285-1.091-.68-1.518-1.161-.41-.48-.626-1.104-.644-1.864.015-.7.22-1.282.614-1.736.387-.45.884-.792 1.442-.992.546-.208 1.123-.316 1.707-.318.565.01 1.125.094 1.668.251.537.152 1.058.328 1.567.53l.095.038v2.092h-1.012l-.024-.127c-.12-.617-.389-1.097-.8-1.445-.426-.363-.95-.548-1.58-.556-.478-.006-.947.135-1.344.404-.384.262-.593.668-.621 1.23.016.38.209.716.593 1.009.392.3.886.583 1.472.851.597.272 1.19.562 1.784.878.596.317 1.101.7 1.507 1.146.416.455.633 1.018.65 1.68-.012.796-.193 1.462-.554 1.985-.347.512-.834.913-1.405 1.154-.58.253-1.212.373-1.89.371-.735-.008-1.466-.108-2.176-.299-.72-.189-1.326-.435-1.812-.737l-.076-2.358 1.145-.004.023.134zm-12.777-7.522c.684-.432 1.474-.668 2.282-.682.183.004.41.04.68.11.248.063.462.135.639.209l.096.043-.002 2.146h-1.506l-.025-.124c-.05-.263-.146-.516-.283-.747-.139-.233-.354-.353-.66-.36-.552.028-1.073.221-1.56.583-.485.356-.916.722-1.299 1.097l-.017 5.987c-.01.302.033.522.114.67.075.135.245.245.54.309.286.057.728.09 1.329.087h.152l-.002.74h-6.131v-.74h.157c.78.006 1.247-.072 1.433-.21.188-.134.282-.407.255-.858v-6.646c.027-.444-.067-.718-.255-.854-.186-.134-.652-.216-1.433-.212l-.157.002v-.736l.144-.012c.6-.05 1.198-.108 1.797-.173.569-.064 1.109-.163 1.624-.29l.175-.044.195 2.083c.52-.523 1.096-.985 1.719-1.379v.001zm-8.318 3.16c-.038-.812-.228-1.493-.561-2.054-.338-.562-.935-.863-1.81-.888-.898.032-1.6.346-2.12.937-.5.559-.81 1.26-.887 2.005h5.378zm-5.005 3.378c.273.78.715 1.408 1.325 1.888.604.477 1.397.728 2.394.744.617-.02 1.223-.216 1.823-.594.561-.343 1.06-.778 1.475-1.285l.087-.112.566.4-.087.13c-.565.861-1.296 1.603-2.15 2.18-.868.581-1.851.88-2.95.897-1.074-.012-1.977-.26-2.708-.755-.722-.496-1.267-1.163-1.633-2.006-.362-.843-.543-1.79-.543-2.843.006-1.07.245-2.048.71-2.933.467-.885 1.103-1.597 1.915-2.13.81-.535 1.74-.809 2.774-.824 1.378.016 2.459.44 3.233 1.275.76.824 1.155 1.944 1.201 3.348l.004.167h-7.823c-.014.833.116 1.663.387 2.453zm-2.401-6.484l-.13.017c-.25.038-.488.136-.717.305-.23.168-.437.568-.614 1.006l-3.037 8.664-2.01.022-2.933-7.943c-.213-.624-.454-1.096-.731-1.413-.27-.314-.673-.608-1.198-.646l-.14-.012v-.75s4.712.007 4.862 0l.16-.009v.759l-.145.012c-.447.024-.728.102-.868.208-.141.104-.218.274-.2.448-.004.088.025.237.091.445.06.182 2.057 5.689 2.618 7.235.543-1.525 2.46-6.888 2.52-7.099.066-.203.1-.415.1-.629.005-.157-.067-.296-.247-.412-.163-.107-.457-.18-.886-.197l-.145-.008v-.762l.162.008c.148.008 3.488 0 3.488 0v.75zm-14.17 3.106c-.04-.812-.227-1.493-.562-2.054-.334-.562-.932-.863-1.807-.888-.897.032-1.6.346-2.122.937-.498.56-.808 1.26-.886 2.005h5.377zm-5 3.378c.274.78.71 1.408 1.32 1.888.603.477 1.397.728 2.395.744.617-.02 1.224-.216 1.824-.594.559-.343 1.055-.778 1.47-1.285l.092-.112.56.4-.084.13c-.564.862-1.294 1.603-2.15 2.18-.868.581-1.852.88-2.95.897-1.07-.012-1.977-.26-2.704-.755-.726-.496-1.267-1.163-1.635-2.006-.363-.843-.542-1.79-.546-2.843.012-1.07.249-2.048.717-2.933.464-.885 1.098-1.597 1.911-2.13.812-.535 1.737-.809 2.776-.824 1.374.016 2.457.44 3.228 1.275.759.824 1.154 1.944 1.199 3.348l.004.167h-7.818c-.008.876.122 1.696.39 2.453h.001z" transform="translate(2.404)"/>
        <g transform="translate(2.404) translate(0 55.2)">
            <mask id="prefix__d" fill="#fff">
                <use xlink:href="#prefix__c"/>
            </mask>
            <path fill="#1E1E1E" d="M54.656 1.366c-.337-.44-.873-.664-1.42-.664-1.265 0-2.162 1.074-2.162 2.27 0 1.267.889 2.271 2.163 2.271.69 0 1.242-.27 1.643-.763l.506.408c-.505.658-1.242.958-2.15.958-1.626 0-2.885-1.213-2.885-2.873C50.35 1.366 51.553.1 53.237.1c.77 0 1.523.254 2.005.857l-.586.41zM81.679 6.92C81.44 7.562 81.195 8 80.465 8c-.173 0-.383-.015-.547-.098l.078-.552c.127.05.26.067.428.067.4 0 .548-.254.68-.626l.246-.713-1.507-3.824h.707l1.13 2.977h.012l1.083-2.976h.663L81.68 6.92zm-5.402-3.745c0-.32-.032-.598-.032-.83h.517c0 .187.016.382.016.577h.012c.146-.345.553-.667 1.09-.667.857 0 1.243.583 1.243 1.43v2.162h-.545V3.743c0-.581-.237-.95-.747-.95-.705 0-1.014.548-1.014 1.349v1.704h-.54V3.174zm-4.198-.394c.336-.356.826-.526 1.306-.526.969 0 1.374.482 1.374 1.447v1.466c0 .199.022.418.048.592h-.525c-.036-.152-.036-.364-.036-.512h-.012c-.227.379-.64.607-1.08.599-.67 0-1.223-.35-1.223-1.014 0-1.131 1.263-1.196 2.068-1.196h.213v-.104c0-.496-.301-.752-.816-.752-.347 0-.713.125-.976.372l-.341-.372zm1.588 1.337c-.696 0-1.147.196-1.147.657 0 .43.308.592.723.592.633 0 .958-.475.97-1.03v-.22h-.546zm-6.772-1.765h.564v.553h.016c.312-.407.73-.65 1.223-.65 1.072 0 1.793.841 1.793 1.996 0 1.136-.748 1.995-1.703 1.995-.615 0-1.1-.339-1.313-.77h-.016V8h-.564V2.352zm1.776 3.31c.733 0 1.207-.613 1.207-1.41 0-.796-.474-1.414-1.207-1.414-.733 0-1.212.618-1.212 1.413 0 .798.48 1.41 1.212 1.41zm-8.218-2.488c0-.32-.032-.598-.032-.83h.602c0 .187.014.382.014.577h.016c.173-.345.644-.667 1.27-.667.82 0 1.08.424 1.203.667.274-.413.628-.667 1.201-.667 1.09 0 1.448.559 1.448 1.468v2.124h-.633V3.75c0-.488-.186-.958-.926-.958-.538 0-.985.404-.985 1.033v2.02h-.633V3.862c0-.77-.215-1.07-.731-1.07-.821 0-1.18.549-1.18 1.35v1.704h-.634V3.174zm-2.55-.92c1.037 0 1.798.732 1.798 1.797 0 1.066-.76 1.795-1.798 1.795-1.033 0-1.798-.73-1.798-1.795s.765-1.797 1.798-1.797zm0 3.066c.729 0 1.196-.551 1.196-1.269 0-.716-.467-1.272-1.196-1.272-.726 0-1.191.556-1.191 1.272 0 .718.465 1.27 1.191 1.27V5.32zM44.808.1h1l2.385 5.746h-1.364l-.472-1.218h-2.13l-.457 1.218H42.44L44.808.1zm.465 1.671l-.666 1.787h1.339l-.673-1.787zM40.4 1.22h-1.557V.1h4.316v1.12H41.6v4.626H40.4V1.219zM36.175.1h1l2.386 5.746h-1.363l-.474-1.218h-2.129l-.458 1.218h-1.33L36.175.1zm.467 1.671l-.669 1.787h1.342l-.673-1.787zM28.772.1h1.803c1.76 0 3.232.788 3.232 2.886 0 1.86-1.442 2.86-3.067 2.86h-1.968V.1zm1.204 4.578h.623c1.119 0 1.961-.45 1.961-1.752 0-1.128-.857-1.657-1.875-1.657h-.709v3.41zM22.417 1.22H20.86V.1h4.316v1.12h-1.554v4.626h-1.204V1.219zm-4.319 0h-1.554V.1h4.315v1.12h-1.557v4.626h-1.204V1.219zM10.79.1h1.593l2.258 3.994h.015V.1h1.17v5.746h-1.532l-2.318-4.092h-.016v4.092h-1.17V.1zM4.343 3.174c0-.32-.028-.598-.028-.83h.516c0 .187.016.382.016.577h.012c.148-.345.554-.667 1.09-.667.86 0 1.244.583 1.244 1.43v2.162h-.547V3.743c0-.581-.235-.95-.745-.95-.705 0-1.013.548-1.013 1.349v1.704h-.545V3.174zM.147 2.78c.338-.356.83-.526 1.307-.526.97 0 1.375.482 1.375 1.447v1.466c0 .199.02.418.048.592h-.524c-.037-.152-.037-.364-.037-.512h-.013c-.226.38-.639.607-1.081.599C.554 5.846 0 5.496 0 4.832c0-1.131 1.262-1.196 2.072-1.196h.21v-.104c0-.496-.302-.752-.815-.752-.35 0-.716.125-.975.372L.147 2.78zm1.588 1.337c-.697 0-1.147.196-1.147.657 0 .43.31.592.724.592.633 0 .956-.475.97-1.03v-.22h-.547z" mask="url(#prefix__d)"/>
        </g>
    </g>
</svg>
