<svg xmlns="http://www.w3.org/2000/svg" xmlns:xlink="http://www.w3.org/1999/xlink" width="91" height="72" viewBox="0 0 91 72">
    <defs>
        <path id="prefix__a" d="M0 0.028L90.941 0.028 90.941 12.52 0 12.52z"/>
        <path id="prefix__c" d="M0.011 0.013L52.996 0.013 52.996 26.211 0.011 26.211z"/>
    </defs>
    <g fill="none" fill-rule="evenodd">
        <g transform="translate(0 59.467)">
            <mask id="prefix__b" fill="#fff">
                <use xlink:href="#prefix__a"/>
            </mask>
            <path fill="#242528" d="M4.222 4.373c-.998-.09-1.18-.452-1.18-1.04 0-.544.318-.906 1.09-.906h15.164V.028H3.723C1.498.028 0 .888 0 3.332c0 2.49 1.135 3.304 3.678 3.53l12.304 1.042c.953.09 1.226.407 1.226 1.086 0 .634-.273 1.041-1.136 1.041H.636v2.444h15.709c2.724 0 3.904-1.086 3.904-3.62 0-2.31-1.09-3.26-3.723-3.486L4.222 4.373zm23.564 3.35c0 1.72.364 2.353 2.27 2.353h13.757v2.444H29.285c-3.315 0-4.813-1.493-4.813-4.254V.118h19.341v2.445H27.786v2.444h15.392V7.36H27.786v.362zM72.1.073v2.444h7.764V12.52h3.314V2.517h7.764V.073H72.1zm-18.342 0c-3.315 0-4.813 1.765-4.813 4.527v7.875h3.314v-3.62H64.79v3.62h3.315V.073H53.757zm11.032 2.444v3.938H52.26V5.37c0-1.72.272-2.852 2.27-2.852h10.26z" mask="url(#prefix__b)"/>
        </g>
        <g transform="translate(18.967 .016)">
            <mask id="prefix__d" fill="#fff">
                <use xlink:href="#prefix__c"/>
            </mask>
            <path fill="#33302E" d="M.011 17.113c.046-1.675.137-5.839.227-8.283.091-3.123.772-5.024 2.043-6.201C4.052 1.045 6.141.683 11.135.411 22.667-.223 34.426-.132 49.182.91c1.544.09 2.134.407 2.407.588.635.453.726.951.908 3.53.09 1.495.317 5.478.408 7.65-5.085-.271-13.711-.679-21.203-.77-7.491-.09-14.256.046-15.073.137-1.635.226-2.407.995-2.634 1.312l39.001 7.197v5.658L.011 17.113z" mask="url(#prefix__d)"/>
        </g>
        <path fill="#242528" d="M18.933 19.89l52.985 9.822c-.046 1.448-.137 5.975-.227 8.6-.091 3.123-.772 5.024-2.044 6.201-1.77 1.584-3.859 1.946-8.853 2.218-11.532.634-23.292.543-38.047-.498-1.544-.09-2.134-.407-2.407-.588-.635-.453-.726-.95-.908-3.53-.136-1.766-.363-6.88-.454-8.6 6.856.452 17.344.814 25.88.814 2.134 0 7.718.045 9.216.045 1.18 0 2.725-.317 3.496-1.539l-38.637-6.563V19.89z"/>
    </g>
</svg>
