<svg xmlns="http://www.w3.org/2000/svg" xmlns:xlink="http://www.w3.org/1999/xlink" width="105" height="46" viewBox="0 0 105 46">
    <defs>
        <path id="prefix__a" d="M0.383 0.118L104.536 0.118 104.536 38.05 0.383 38.05z"/>
        <path id="prefix__c" d="M0.734 0.623L18.919 0.623 18.919 18.62 0.734 18.62z"/>
    </defs>
    <g fill="none" fill-rule="evenodd">
        <g transform="translate(0 .729)">
            <mask id="prefix__b" fill="#fff">
                <use xlink:href="#prefix__a"/>
            </mask>
            <path fill="#DEDAD4" d="M101.937 32.774c.535-.887.518-1.523-.11-2.333-.62.99-.563 1.813.11 2.333zM38.45 14.54l-.352-11.49c-.148-.055-.21-.103-.27-.1-6.229.455-12.456.91-18.684 1.372-.8.06-1.463.433-2.006 1.008-.643.682-1.278 1.373-1.908 2.068-.613.677-.941 1.48-.805 2.382.22 1.465.513 2.92.795 4.486 7.817-.03 15.504.3 23.23.274zm30.677 1.474c1.985.127 3.97.22 5.953.366.68.05 1.227-.117 1.693-.606.237-.25.506-.467.818-.752-.934-.577-1.812-1.129-2.698-1.666-2.464-1.494-4.934-2.981-7.402-4.472-3.483-2.238-7.257-3.83-11.288-4.752-4.823-1.102-9.756-1.22-14.676-1.4-.125-.005-.254.052-.451.096l3.218 11.716c.312.043.55.093.79.106 5.37.303 10.74.606 16.11.9 1.393.077 2.789.128 4.183.19 1.25.093 2.5.194 3.75.274zM8.559 3.3l.28-.204.568-.078.636-.14.624-.074c.16-.04.32-.08.48-.118l.78-.097.46-.115.801-.099.442-.113.6-.072.652-.139.819-.081.65-.127.818-.08.65-.127.367-.042c.138.002.278.019.414.004 2.614-.287 5.23-.578 7.843-.867l.085.002.927-.11.956-.089 1.994-.172c.664-.016 1.329-.031 1.993-.048l2.203-.162 2.193-.035 4.649.005c3.05.047 6.094.12 9.137.422 2.176.216 4.327.5 6.453.99.967.221 1.926.477 2.888.717l-.812.708c.266.154.441.267.625.36 5.043 2.527 10.073 5.08 15.139 7.56 1.84.902 3.743 1.692 5.66 2.424 1.391.532 2.858.596 4.31.123 3.118.71 6.216 1.489 9.171 2.734 2.248.947 4.437 1.994 6.155 3.79l.026.703c-.751-.5-1.489-1.022-2.256-1.497-1.607-.996-3.387-1.175-5.232-1.047-.842.06-1.429.4-1.652 1.294 2.415 1.33 4.814 2.657 7.22 3.971.21.114.456.18.692.222.89.156 1.784.292 2.676.436.345.338.68.688 1.041 1.011.603.54.832 1.202.924 2.004.26 2.273.026 4.495-.576 6.678-.169.61-.05.97.42 1.326.379.286.715.627 1.084.956-1.516 1.038-1.516 1.036-3.156 1.003-.943-.018-1.885-.031-2.828-.043-.406-.005-.811 0-1.144 0-.21-1.452-.322-2.763-.598-4.039-1.03-4.749-3.911-7.655-8.443-8.328-5.033-.748-8.778 1.198-10.617 6.148-.756 2.033-1.082 4.144-1.102 6.305-.004.303-.031.604-.05.975H51.62l-9.97.013c-.064-.01-.126-.007-.188.009-.418-.013-.836-.037-1.254-.038-4.811-.004-9.624-.006-14.436-.007h-1.338c-.045-.422-.11-.754-.11-1.085-.002-1.717-.39-3.355-.987-4.952-1.7-4.554-5.708-6.8-10.612-6.557h-1.259c-1.107.175-1.71.322-1.883.431-.781.491-1.505 1.18-2.496 1.187-2.234.014-4.469-.028-6.705-.048.016-1.289.661-4.075 1.555-6.049.57-1.761 4.146-8.717 4.856-10.42.71-1.708 1.674-3.312 2.51-4.97.148-.292.59-.582.119-.963L8.559 3.3z" mask="url(#prefix__b)"/>
        </g>
        <path fill="#2D3038" d="M3.066 19.008l-.017-.503c.105-1.325.478-2.577.933-3.825.682-1.865 1.41-3.686 2.39-5.437.748-1.338 1.768-2.426 2.64-3.645.091-.128.272-.195.41-.29.472.38.03.67-.118.964-.836 1.657-1.8 3.26-2.51 4.968-.71 1.704-1.173 3.51-1.743 5.271-.235.235-.438.516-.71.697-.709.474-1.022 1.126-1.024 1.952l-.251-.152"/>
        <g transform="translate(4.268 26.967)">
            <mask id="prefix__d" fill="#fff">
                <use xlink:href="#prefix__c"/>
            </mask>
            <path fill="#050C17" d="M9.746 16.387c3.797.03 6.869-2.911 6.904-6.623.032-3.378-2.46-6.834-6.787-6.86C5.6 2.88 3.02 6.295 3.019 9.597c-.004 3.766 2.952 6.76 6.727 6.79M8.48.704c2.144-.25 4.189.066 6.026 1.219 3.17 1.99 4.737 4.895 4.358 8.59-.397 3.862-2.596 6.46-6.324 7.742-.358.123-.716.244-1.075.366l-3.34-.013c-.295-.095-.587-.198-.884-.287C.572 16.315-1.479 8.057 3.487 3.21c.197-.193.391-.388.588-.583C5.482 1.848 6.847.975 8.48.704" mask="url(#prefix__d)"/>
        </g>
        <path fill="#050C17" d="M65.376 16.47c-1.394-.063-2.79-.114-4.182-.191-5.37-.295-10.74-.597-16.11-.9-.241-.013-.48-.063-.791-.107L41.075 3.558c.198-.045.326-.102.451-.098 4.92.18 9.853.299 14.675 1.401 4.033.922 7.806 2.514 11.29 4.752-.078.816-.168 1.632-.229 2.45-.035.47-.28.641-.73.688-.71.075-1.415.203-2.13.31-.033.31-.045.548-.086.781-.04.236-.131.464-.165.7-.145.995-.064 1.143.81 1.632.147.083.277.196.415.295M15.219 14.995c-.282-1.567-.574-3.02-.796-4.486-.135-.903.192-1.705.806-2.382.63-.695 1.265-1.386 1.909-2.069.542-.575 1.205-.948 2.005-1.008 6.229-.462 12.455-.917 18.683-1.37.06-.004.123.044.271.1.115 3.758.23 7.551.352 11.488-7.726.027-15.413-.304-23.23-.273"/>
        <path fill="#2D3038" d="M65.376 16.47c-.138-.1-.268-.213-.415-.296-.874-.489-.955-.637-.81-1.632.034-.236.124-.464.165-.7.041-.233.053-.471.086-.78.715-.108 1.42-.236 2.13-.311.45-.047.695-.217.73-.687.06-.819.151-1.635.229-2.451 2.467 1.49 4.937 2.978 7.401 4.472.887.537 1.764 1.088 2.699 1.666-.313.285-.582.503-.818.752-.466.488-1.014.656-1.695.606-1.982-.146-3.967-.24-5.951-.366-1.251-.08-2.5-.182-3.751-.274"/>
        <path fill="#050C17" d="M59.921 2.98c.536.19 1.074.377 1.608.572.38.138.756.286 1.133.43l2.726 1.131c.86.439 1.705.91 2.586 1.307 3.33 1.506 6.673 2.986 10.01 4.478 2.034.91 4.069 1.817 6.096 2.743.276.125.51.34.764.513-1.452.473-2.92.41-4.311-.122-1.918-.733-3.82-1.522-5.66-2.424-5.066-2.481-10.096-5.034-15.139-7.56-.184-.093-.358-.206-.625-.36l.812-.708"/>
        <path fill="#2D3038" d="M101.224 22.25c.45.786.471 1.642.419 2.51-.893-.143-1.785-.28-2.676-.435-.236-.041-.482-.108-.691-.223-2.406-1.314-4.806-2.64-7.221-3.97.223-.894.81-1.236 1.652-1.294 1.845-.129 3.625.052 5.232 1.047.767.476 1.505.996 2.256 1.496l1.03.87M101.827 31.17c.628.81.645 1.446.11 2.333-.673-.52-.73-1.343-.11-2.334"/>
        <path fill="#DEDAD4" d="M5.83 29.377c-.03.132-.03.281-.096.392-1.308 2.204-1.882 4.592-1.833 7.138.002.134-.035.268-.062.455-.948.07-1.605-.406-2.132-1.06C.842 35.232.36 33.973.043 32.648c-.032-.13-.07-.299-.015-.403.474-.91.263-1.903.368-2.856-.936-7.431 9.527-6.67 7.53-1.798L5.83 29.377z"/>
        <path fill="#A92E48" d="M3.318 19.16l-.443 1.537.191-1.69c.084.052.167.103.252.153"/>
        <path fill="#050C17" d="M87.149 42.737c3.093.159 6.81-2.28 6.864-6.652.047-3.689-2.683-6.811-6.809-6.832-4.244-.02-6.802 3.5-6.815 6.727-.016 3.698 3.166 6.863 6.76 6.757m9.082-6.758c.277 4.77-4.051 9.042-9.051 9.036-4.913-.006-9.106-4.153-9.067-9.068.037-4.604 3.643-9.002 9.151-9 5.387 0 9.155 4.484 8.967 9.032"/>
        <path fill="#767A7C" d="M14.014 43.354c-3.775-.03-6.731-3.024-6.727-6.79.003-3.302 2.582-6.718 6.844-6.693 4.327.025 6.819 3.482 6.787 6.86-.035 3.711-3.107 6.653-6.904 6.623M87.149 42.737c-3.594.106-6.776-3.06-6.76-6.757.013-3.227 2.571-6.748 6.815-6.727 4.126.02 6.856 3.143 6.81 6.832-.055 4.373-3.772 6.81-6.865 6.652"/>
    </g>
</svg>
