<svg xmlns="http://www.w3.org/2000/svg" width="2029" height="1381" viewBox="0 0 2029 1381">
    <defs>
        <linearGradient id="prefix__a" x1="50%" x2="50%" y1="-29.822%" y2="100%">
            <stop offset="0%" stop-color="#C8DEEA"/>
            <stop offset="100%" stop-color="#FFF"/>
        </linearGradient>
        <linearGradient id="prefix__b" x1="39.766%" x2="40.608%" y1="9.856%" y2="46.232%">
            <stop offset="0%" stop-color="#E0EEF4"/>
            <stop offset="100%" stop-color="#AACDDE"/>
        </linearGradient>
        <radialGradient id="prefix__c" cx="50%" cy="50%" r="50%" fx="50%" fy="50%">
            <stop offset="0%" stop-color="#FFF"/>
            <stop offset="100%" stop-color="#FFF" stop-opacity="0"/>
        </radialGradient>
    </defs>
    <g fill="none" fill-rule="evenodd">
        <path fill="url(#prefix__a)" d="M1 0H2029V1381H1z"/>
        <path fill="#C8DEEA" d="M166.598 569.683l221.865-117.62c9.882-5.238 21.309-10.612 31.804-6.746 5.15 1.898 9.265 5.802 13.194 9.633 61.557 60.03 116.931 127.883 189.109 174.61 22.465 14.545 46.366 26.898 67.943 42.733 71.281 52.316 111.677 138.2 181.623 192.289 27.386 21.178 58.538 36.856 89.472 52.4l526.374 264.487c24.361 12.24 48.991 24.658 69.689 42.404 16.153 13.85 29.538 30.637 45.214 45.023C1632.77 1296.322 1735 1379.558 1735 1379.558l-1735 1 1-738c8.149-24.188 65.663-24.157 89.519-34.764 25.927-11.528 51.023-24.828 76.079-38.111"/>
        <path fill="url(#prefix__b)" d="M1 1380.748h1450.642c-9.038-32.44-20.666-63.998-40.232-91.142-30.907-42.881-80.123-72.527-101.301-120.957-16.295-37.262-14.423-82.707-40.033-114.298-15.493-19.114-38.732-29.977-57.8-45.527-21.044-17.16-36.744-39.808-53.258-61.364-50.228-65.561-110.418-123.476-177.865-171.143-16.98-12-34.466-23.394-50.124-37.074-20.413-17.833-37.352-39.225-54.167-60.485l-30.556-38.634c-25.283-31.967-50.768-64.251-68.657-100.873-3.934-8.052-7.687-16.562-14.465-22.425-5.781-5-13.2-7.572-20.267-10.485-50.06-20.63-90.01-64.418-105.974-116.155-1.905-6.172-3.644-12.73-8.136-17.372-13.996-14.461-37.587.836-51.238 15.624L442.493 534.765 345.369 639.98l-47.858 51.845-34.496 37.368c-12.561 13.609-25.156 27.249-39.153 39.375-31.781 27.534-69.854 46.312-109.258 60.29C87.72 838.399 20.275 851.646 2 873.749c-.372.45-.696.888-1 1.32v17.54c.714 2.648 1.215 5.568.856 9.013-.257 2.47-.549 4.929-.856 7.384v471.743z"/>
        <circle cx="1046" cy="627" r="220" fill="url(#prefix__c)"/>
    </g>
</svg>
