<svg xmlns="http://www.w3.org/2000/svg" xmlns:xlink="http://www.w3.org/1999/xlink" width="2028" height="625" viewBox="0 0 2028 625">
    <defs>
        <path id="prefix__b" d="M0.134 0.652L576.754 0.652 576.754 210.992 0.134 210.992z"/>
        <path id="prefix__d" d="M0.552 0.319L100.552 0.319 100.552 101 0.552 101z"/>
        <linearGradient id="prefix__a" x1="50%" x2="50%" y1="25.055%" y2="83.105%">
            <stop offset="0%" stop-color="#00807D"/>
            <stop offset="100%" stop-color="#00AFAC"/>
        </linearGradient>
    </defs>
    <g fill="none" fill-rule="evenodd">
        <path fill="url(#prefix__a)" d="M0 0l1282.138 263.146C1343.223 275.684 1405.419 282 1467.776 282H2028v343H0V0z"/>
        <g>
            <g transform="translate(500 103) translate(2)">
                <mask id="prefix__c" fill="#fff">
                    <use xlink:href="#prefix__b"/>
                </mask>
                <path fill="#EDEBE8" d="M562.368 181.738c2.959-4.919 2.87-8.443-.61-12.94-3.435 5.492-3.114 10.058.61 12.94zM210.877 80.625c-.671-21.83-1.314-42.865-1.947-63.708-.818-.31-1.167-.577-1.498-.554-34.482 2.516-68.96 5.036-103.436 7.604-4.429.328-8.1 2.398-11.107 5.59-3.558 3.782-7.075 7.612-10.563 11.465-3.398 3.755-5.212 8.204-4.461 13.212 1.224 8.124 2.845 16.187 4.405 24.875 43.277-.17 85.836 1.661 128.607 1.516zM380.715 88.8c10.988.704 21.981 1.225 32.955 2.033 3.767.277 6.796-.653 9.377-3.365 1.314-1.38 2.803-2.587 4.528-4.168-5.17-3.201-10.03-6.261-14.935-9.237-13.644-8.283-27.317-16.534-40.98-24.8-19.283-12.409-40.177-21.241-62.498-26.348-26.698-6.11-54.01-6.768-81.247-7.767-.695-.024-1.409.29-2.5.535 5.992 21.838 11.905 43.4 17.817 64.965 1.725.24 3.044.516 4.376.591 29.728 1.68 59.455 3.356 89.187 4.99 7.713.427 15.44.708 23.158 1.055 6.924.512 13.843 1.075 20.762 1.516zM45.397 18.302c.515-.38 1.03-.756 1.55-1.131l3.147-.437 3.521-.774c1.153-.141 2.302-.277 3.45-.413.884-.216 1.773-.437 2.656-.653 1.442-.183 2.883-.361 4.325-.54l2.542-.633c1.48-.188 2.959-.366 4.438-.55.813-.21 1.63-.422 2.448-.628 1.102-.136 2.212-.268 3.318-.399 1.205-.258 2.406-.512 3.61-.77 1.513-.15 3.026-.295 4.533-.45 1.2-.235 2.401-.465 3.597-.704 1.512-.146 3.02-.296 4.532-.446 1.2-.235 2.396-.47 3.597-.704.676-.075 1.351-.155 2.032-.23.766.01 1.54.103 2.297.019 14.471-1.591 28.947-3.201 43.419-4.806l.468.014c1.71-.202 3.426-.409 5.137-.61l5.289-.493c3.676-.32 7.358-.638 11.04-.958 3.677-.089 7.358-.173 11.035-.262l12.194-.902c4.045-.065 8.1-.126 12.146-.192l25.734.028c16.886.258 33.74.662 50.588 2.337 12.047 1.202 23.957 2.779 35.725 5.487 5.354 1.23 10.662 2.647 15.988 3.98-1.432 1.248-2.864 2.502-4.494 3.924 1.474.854 2.443 1.483 3.46 1.999 27.921 14.01 55.768 28.165 83.812 41.92 10.19 5.004 20.724 9.383 31.335 13.443 7.703 2.952 15.827 3.304 23.862.68 17.264 3.943 34.415 8.256 50.777 15.16 12.444 5.252 24.562 11.057 34.076 21.021.042 1.3.094 2.596.141 3.896-4.159-2.774-8.242-5.665-12.49-8.303-8.895-5.52-18.75-6.514-28.962-5.806-4.665.329-7.912 2.22-9.15 7.177 13.37 7.378 26.655 14.732 39.978 22.02 1.158.634 2.52 1 3.828 1.23 4.93.864 9.873 1.62 14.812 2.417 1.914 1.873 3.771 3.816 5.766 5.609 3.336 2.994 4.603 6.665 5.113 11.114 1.442 12.601.147 24.922-3.19 37.03-.93 3.38-.274 5.374 2.33 7.35 2.094 1.586 3.956 3.478 5.998 5.304-8.394 5.754-8.394 5.744-17.473 5.561-5.217-.103-10.435-.173-15.653-.24-2.25-.027-4.494-.004-6.337-.004-1.163-8.049-1.782-15.319-3.309-22.392-5.704-26.334-21.655-42.446-46.746-46.182-27.86-4.145-48.594 6.645-58.779 34.092-4.182 11.274-5.988 22.979-6.101 34.966-.019 1.675-.17 3.346-.279 5.402H283.801c-18.403.028-36.807.051-55.201.075-.35-.057-.695-.043-1.035.047-2.316-.07-4.627-.202-6.943-.207-26.636-.023-53.282-.033-79.923-.042h-7.406c-.25-2.337-.61-4.177-.614-6.017-.005-9.518-2.16-18.604-5.46-27.46-9.409-25.25-31.603-37.702-58.754-36.355h-6.967c-6.13.968-9.466 1.783-10.425 2.389-4.325 2.722-8.333 6.547-13.82 6.58-12.368.08-24.74-.155-37.119-.263.085-7.148 3.659-22.599 8.61-33.546 3.156-9.766 22.951-48.334 26.879-57.782 3.932-9.471 9.268-18.365 13.9-27.555.817-1.624 3.265-3.229.656-5.34l-4.782-7.092z" mask="url(#prefix__c)"/>
            </g>
            <path fill="#2D3038" d="M18.093 101.153c-.028-.931-.06-1.863-.093-2.795.574-7.367 2.613-14.326 5.105-21.26 3.724-10.37 7.705-20.49 13.062-30.225 4.088-7.438 9.664-13.489 14.429-20.264.504-.71 1.489-1.082 2.245-1.609 2.58 2.112.163 3.722-.644 5.354-4.574 9.212-9.842 18.128-13.725 27.618-3.878 9.475-6.407 19.51-9.524 29.302-1.284 1.303-2.394 2.865-3.878 3.872-3.878 2.635-5.59 6.262-5.6 10.854-.457-.282-.915-.565-1.377-.847" transform="translate(500 103)"/>
            <g transform="translate(500 103) translate(28 147)">
                <mask id="prefix__e" fill="#fff">
                    <use xlink:href="#prefix__d"/>
                </mask>
                <path fill="#050C17" d="M50.107 88.507c20.88.166 37.774-16.288 37.966-37.051.174-18.897-13.528-38.235-37.323-38.377-23.433-.142-37.619 18.968-37.633 37.44-.023 21.07 16.233 37.822 36.99 37.988M43.146.768c11.791-1.401 23.034.37 33.136 6.819 17.43 11.132 26.048 27.387 23.963 48.055-2.178 21.61-14.275 36.146-34.774 43.315-1.967.686-3.934 1.364-5.91 2.045l-18.368-.07c-1.62-.536-3.225-1.109-4.859-1.606-36.67-11.222-47.95-57.42-20.644-84.542 1.084-1.08 2.154-2.174 3.234-3.263C26.66 7.17 34.166 2.284 43.146.768" mask="url(#prefix__e)"/>
            </g>
            <path fill="#050C17" d="M361.309 86c-7.705-.347-15.419-.628-23.114-1.054-29.681-1.63-59.358-3.302-89.039-4.98-1.33-.074-2.647-.35-4.369-.59C238.885 57.852 232.982 36.332 227 14.54c1.095-.248 1.802-.562 2.496-.539 27.19.998 54.456 1.654 81.108 7.753 22.288 5.101 43.142 13.912 62.396 26.298-.43 4.52-.93 9.036-1.264 13.566-.194 2.6-1.548 3.546-4.04 3.804-3.925.412-7.817 1.124-11.77 1.719-.18 1.71-.246 3.03-.472 4.319-.227 1.307-.727 2.567-.916 3.874-.797 5.509-.354 6.328 4.478 9.031.816.46 1.533 1.087 2.293 1.635M83.601 78.482c-1.57-8.65-3.2-16.68-4.432-24.77-.756-4.986 1.07-9.417 4.49-13.156 3.509-3.837 7.046-7.65 10.632-11.422 3.02-3.173 6.714-5.234 11.17-5.566 34.694-2.552 69.378-5.062 104.072-7.567.333-.023.685.243 1.508.552.642 20.75 1.284 41.697 1.959 63.439-43.035.145-85.855-1.683-129.399-1.51" transform="translate(500 103)"/>
            <path fill="#2D3038" d="M362.03 87.372c-.754-.554-1.465-1.19-2.275-1.653-4.792-2.733-5.232-3.562-4.441-9.133.187-1.321.683-2.595.908-3.917.224-1.302.29-2.638.468-4.367 3.922-.602 7.783-1.322 11.677-1.738 2.471-.26 3.814-1.218 4.006-3.847.333-4.58.829-9.146 1.255-13.717 13.526 8.341 27.066 16.668 40.578 25.029 4.862 3.003 9.67 6.09 14.794 9.321-1.713 1.597-3.187 2.819-4.484 4.211-2.555 2.733-5.56 3.671-9.29 3.392-10.868-.815-21.754-1.34-32.63-2.051-6.857-.446-13.71-1.014-20.566-1.53" transform="translate(500 103)"/>
            <path fill="#050C17" d="M331.511 11c2.98 1.06 5.968 2.102 8.937 3.186 2.106.768 4.198 1.593 6.295 2.394l15.146 6.3c4.782 2.442 9.478 5.067 14.368 7.277 18.505 8.384 37.08 16.627 55.624 24.935 11.304 5.066 22.612 10.119 33.878 15.27 1.532.697 2.832 1.894 4.241 2.86-8.069 2.635-16.228 2.286-23.955-.678-10.654-4.082-21.223-8.479-31.45-13.502-28.148-13.813-56.102-28.027-84.123-42.095-1.024-.518-1.992-1.145-3.472-2.007 1.637-1.428 3.074-2.682 4.511-3.94" transform="translate(500 103)"/>
            <path fill="#2D3038" d="M559.56 118.523c2.502 4.218 2.62 8.818 2.326 13.477-4.961-.768-9.927-1.5-14.88-2.336-1.314-.223-2.682-.582-3.845-1.196-13.379-7.059-26.73-14.177-40.161-21.322 1.244-4.8 4.506-6.636 9.192-6.95 10.26-.69 20.159.277 29.094 5.623 4.268 2.554 8.37 5.35 12.548 8.036 1.909 1.554 3.822 3.113 5.726 4.668M564.337 168c3.398 4.17 3.486 7.439.595 12-3.638-2.672-3.952-6.908-.595-12" transform="translate(500 103)"/>
            <path fill="#DEDAD4" d="M32.069 158.197c-.17.723-.165 1.545-.526 2.152-7.199 12.08-10.354 25.165-10.087 39.119.014.732-.192 1.47-.338 2.495-5.217.38-8.828-2.226-11.73-5.808-4.757-5.872-7.405-12.775-9.152-20.034-.174-.715-.385-1.638-.085-2.208 2.611-4.991 1.447-10.428 2.029-15.656-5.153-40.726 52.405-36.555 41.424-9.851l-11.535 9.79z" transform="translate(500 103)"/>
            <path fill="#A92E48" d="M18.797 102.816L16.203 111c.375-3.002.745-6.003 1.12-9 .49.275.98.545 1.476.816" transform="translate(500 103)"/>
            <path fill="#050C17" d="M482.839 232.394c17.058.876 37.558-12.615 37.86-36.82.258-20.415-14.799-37.696-37.554-37.81-23.41-.116-37.516 19.372-37.591 37.229-.085 20.467 17.463 37.987 37.285 37.401m50.092-37.406c1.525 26.407-22.346 50.045-49.923 50.012-27.096-.033-50.223-22.987-50.006-50.19.207-25.479 20.095-49.82 50.473-49.81 29.709.005 50.492 24.818 49.456 49.988" transform="translate(500 103)"/>
            <path fill="#767A7C" d="M78.01 234.999C57.243 234.836 40.978 218.4 41 197.73c.014-18.12 14.208-36.869 37.654-36.73 23.808.14 37.518 19.111 37.344 37.65-.192 20.37-17.096 36.511-37.987 36.349M482.212 230.96c-19.783.58-37.296-16.782-37.212-37.066.075-17.697 14.154-37.01 37.517-36.894 22.71.112 37.738 17.238 37.48 37.47-.301 23.988-20.76 37.358-37.785 36.49" transform="translate(500 103)"/>
        </g>
    </g>
</svg>
