<svg xmlns="http://www.w3.org/2000/svg" width="2030" height="889" viewBox="0 0 2030 889">
    <defs>
        <linearGradient id="prefix__a" x1="35.142%" x2="52.181%" y1="23.303%" y2="70.787%">
            <stop offset="0%" stop-color="#84C497"/>
            <stop offset="100%" stop-color="#428A57"/>
        </linearGradient>
        <linearGradient id="prefix__b" x1="50%" x2="50%" y1="0%" y2="100%">
            <stop offset="0%" stop-color="#008482"/>
            <stop offset="100%" stop-color="#004D4B"/>
        </linearGradient>
    </defs>
    <g fill="none" fill-rule="evenodd">
        <g>
            <path fill="url(#prefix__a)" d="M125.833 20.007C113.497 34.483 33.083 213.538 9.49 290.743 3.018 311.93.043 331.413 0 349.17v.773c.477 201.04 377.809 181.294 304.325-59.201-23.595-77.205-104.012-256.26-116.343-270.736C176.72 6.782 166.812.173 156.908.173c-9.905 0-19.813 6.61-31.075 19.834" transform="translate(1512)"/>
            <path fill="#004D4B" d="M158 88v105.094l39.044-28.503 6.956 9.294-46 33.584v74.026l67.062-50.23 6.938 9.548-74 55.433v83.202L231.116 326l6.884 9.293-80 58.484V587h-9V389.62l-74-54.333 6.902-9.281L149 375.273v-82.287L78 239.53l6.957-9.53L149 278.218V203.96l-42-30.667 6.956-9.293L149 189.585V88h9z" transform="translate(1512)"/>
        </g>
        <g>
            <path fill="url(#prefix__b)" d="M201.186 237.496c-1.98-10.778-7.65-19.796-15.74-26.396-7.084-5.784-10.03-16.557-7.31-26.296 6.485-23.277 14.512-61.72 1.665-74.818-4.805-4.899-10.562-7.882-16.85-9.091-10.045-1.92-17.337-12.446-17.308-24.627v-.28c0-41.793-20.066-75.665-44.826-75.665-24.756 0-44.822 33.872-44.822 75.665v.28c.029 12.18-7.259 22.707-17.299 24.627-6.298 1.209-12.059 4.192-16.86 9.09-12.84 13.1-4.82 51.542 1.667 74.82 2.719 9.738-.227 20.511-7.312 26.295-8.09 6.6-13.759 15.618-15.739 26.396-5.317 28.97 36.844 91.637 100.365 147.984 63.525-56.347 105.686-119.015 100.369-147.984" transform="translate(1436 145)"/>
            <path fill="#004D4B" d="M103 60v82.896l30.479-22.423 5.521 7.435-36 26.488v58.028l52.503-39.42 5.497 7.583-58 43.552v66.233L160.552 248l5.448 7.408-63 46.387V455h-7V299.034l-59-43.631 5.462-7.398L96 287.598v-65.011l-57-43.019L44.511 172 96 210.858v-58.405l-34-25.018L67.521 120 96 140.954V60h7z" transform="translate(1436 145)"/>
        </g>
        <path fill="#004D4B" d="M343.846 417.976c3.992 18.185 8.268 39.758 12.407 62.372-.531-17.231-.771-33.578-.652-47.823.665-78.996 11.55-98.475 21.21-98.023 9.666.447 19.562 19.295 18.897 98.292-.226 26.823-1.57 61.177-3.627 94.836 4.02-17.492 8.2-34.204 12.122-48.169 17.106-60.913 29.742-73.72 37.237-71.384 7.494 2.336 11.31 18.94-5.797 79.849-1.617 5.757-3.425 11.948-5.379 18.436 2.961 5.282 6.323 15.781 9.887 35.15 1.378 7.497 2.826 16.431 4.196 25.77.028-7.264.173-14.165.446-20.127 1.428-31.217 6.095-38.774 9.976-38.468 3.883.304 7.589 7.885 6.16 39.102-.475 10.402-1.491 23.655-2.778 36.694 1.758-6.573 3.558-12.832 5.229-18.088 7.563-23.792 12.71-28.67 15.627-27.644 2.917 1.026 4.192 7.629-3.371 31.42-3.138 9.868-7.833 22.977-12.463 34.865l2.32 1.578 908.275 6.207c-3.554-13.722-6.797-27.217-9.168-38.282-8.62-40.241-5.82-51.084-1.198-52.505 4.62-1.42 11.924 7.177 20.545 47.421 1.976 9.227 4.029 20.26 5.962 31.804-.27-22.127-.088-44.7.555-62.311 1.894-51.867 8.455-64.092 14.34-64.24 5.881-.15 11.927 12.8 10.033 64.668-.342 9.353-.963 20.082-1.788 31.387 3.173-14.784 6.398-28.883 9.353-40.761 13.462-54.11 22.732-65.54 28.63-64.418 5.896 1.125 9.03 16.048-4.432 70.161-4.03 16.194-9.672 36.2-15.76 56.257.083 2.523.119 5.302.098 8.36 2.122-4.316 4.167-8.388 6.073-12.087 3.859-7.484 7.225-13.539 10.164-18.406 8.234-23.972 13.869-29.343 17.582-28.519 4.496.994 6.616 12.016-4.722 51.228-.909 3.143-1.911 6.482-2.989 9.966l2.66-.485c2.75-5.445 5.4-10.581 7.861-15.228 20.537-38.754 29.733-45.737 33.977-43.778 4.242 1.963 3.754 13.932-16.784 52.69-.338.636-.681 1.281-1.03 1.934L2030 498l-2 391H0l2-283h258.253c-5.32-5.8-10.278-11.353-14.595-16.37-28.49-33.12-31.227-44.743-27.196-47.678 4.03-2.936 14.855 1.723 43.349 34.838 6.443 7.49 13.904 16.531 21.545 26.073-16.878-28.87-34.25-60.541-46.258-84.806-29.594-59.798-29.197-78.202-22.092-81.172 7.107-2.965 21.39 7.87 50.983 67.664 6.497 13.13 13.857 28.793 21.312 45.276-3.69-13.045-6.99-25.47-9.615-36.36-14.563-60.398-10.013-77.315-2.59-78.794 6.15-1.23 14.828 7.143 25.901 44.373 4.285 7.279 9.12 16.195 14.58 27.054 2.78 5.531 5.75 11.604 8.824 18.031.28-4.49.618-8.577 1.006-12.29-8.53-30.695-16.333-61.286-21.768-86.035-18.194-82.85-11.953-105.439-2.175-106.93 9.778-1.484 24.188 16.258 42.382 99.102zm78.251 114.59l-.357 1.113c-2.266 7.042-4.62 14.201-7.017 21.342 2.697 2.62 6.611 8.76 12.325 21.289.846 1.856 1.739 3.863 2.66 5.977l3.248 2.21c-3.549-14.242-6.834-28.928-8.95-40.43-.775-4.217-1.406-8.04-1.909-11.502zm-99.679 40.675l.219 1.153c.37 1.961.738 3.922 1.102 5.88-.035-1.645-.067-3.283-.095-4.912l-1.226-2.121zm88.978-8.408l-.39 1.142c-.334.974-.669 1.947-1.004 2.918l3.8 2.582c-1.007-2.531-1.799-4.733-2.406-6.642z"/>
    </g>
</svg>
