<svg xmlns="http://www.w3.org/2000/svg" width="2028" height="898" viewBox="0 0 2028 898">
    <defs>
        <linearGradient id="prefix__a" x1="50%" x2="50%" y1=".251%" y2="100%">
            <stop offset="0%" stop-color="#3D94D6"/>
            <stop offset="100%" stop-color="#C8DEEA"/>
        </linearGradient>
    </defs>
    <g fill="none" fill-rule="evenodd">
        <path fill="url(#prefix__a)" d="M0 .928C0-.147 1.523-.36 1.819.673l10.603 36.963c1.115 3.884 6.995 3.903 8.381.417.168-.422.609-.667 1.053-.57l16.748 3.624c.326.071.613.3.706.62 1.048 3.616 6.825 4.025 8.362.345l1.76-4.212c3.608-8.636 16.09-7.86 18.601 1.157l8.936 32.091c1.01 3.631 6.519 4.097 8.26.7l5.58-10.89c2.56-4.996 9.911-4.292 11.477 1.1l4.851 16.7c1.094 3.764 6.692 3.897 8.264.658.229-.472.766-.7 1.239-.475l14.526 6.961c.27.13.441.384.508.675.825 3.527 6.093 4.182 8.042 1.23.299-.452.843-.59 1.276-.264l10.356 7.79c.151.113.254.276.315.455 1.194 3.531 6.531 3.646 8.146.59.274-.519.954-.646 1.394-.26l16.031 14.067c.141.123.229.288.278.467 1.004 3.73 6.87 4.117 8.393.411l7.174-17.46c.335-.817 1.512-.749 1.751.1l6.511 23.112c1.074 3.81 6.699 3.91 8.268.706.251-.512.917-.647 1.358-.286l19.998 16.38c.144.117.238.277.292.455 1.138 3.684 6.987 3.911 8.394.184l6.747-17.86c.323-.856 1.557-.778 1.771.11l4.749 19.756c.955 3.97 6.86 4.106 8.363.72.22-.498.863-.645 1.321-.35l18.869 12.13c.198.128.323.33.386.557 1.098 3.971 7.582 3.983 8.561-.186l4.728-20.117c.229-.973 1.623-.946 1.813.036l3.076 15.852c1.162 5.99 9.84 5.663 10.548-.397l2.922-24.997c.598-5.116 8.025-5.112 8.617.004l5.376 46.413c.513 4.43 7.482 4.854 8.65.526l5.495-18.875c.243-.835 1.399-.907 1.742-.107l12.77 29.677c.7 4.004 6.506 4.423 8.261 1.238.298-.542 1.003-.689 1.457-.27l22.964 21.201c.145.134.234.315.275.508.799 3.798 6.714 4.421 8.388.727l4.092-9.026c.379-.837 1.614-.672 1.761.235l.354 2.196c.96 5.933 9.472 6 10.524.082.183-1.026 1.658-1.018 1.829.01l1.063 6.408c.961 5.79 9.202 6.013 10.476.285l3.833-17.239c.232-1.039 1.745-.934 1.83.127l2.5 31.04c.321 3.975 6.211 5.091 8.277 1.567l2.869-4.893c.414-.707 1.474-.569 1.694.22l3.981 14.293c1.146 4.116 7.688 3.956 8.585-.21l6.849-31.778c.219-1.015 1.684-.96 1.826.068l4.145 30.122c.63 4.578 7.95 4.666 8.716.105l4.635-30.904c.962-6.409 10.243-6.294 11.044.138l6.429 51.627c.715 3.885 6.311 4.394 8.17 1.338.311-.51 1.018-.59 1.439-.166l12.658 12.771c.122.123.2.282.24.451.802 3.342 5.714 4.278 7.919 1.391l8.553-11.199c.435-.57 1.323-.452 1.595.21l10.671 25.962c1.399 3.403 6.835 3.12 7.788-.408l2.107-17.625c.431-3.605 5.769-3.252 5.723.378l-.515 40.341c0 4.514 7.272 5.063 8.103.612l3.814-20.43c.191-1.026 1.664-1.006 1.828.022l8.041 50.495c.6 3.768 6.368 4.336 7.855.776l12.136-29.048c.339-.813 1.513-.739 1.749.108l14.137 50.775c32.54-13.525 65.21-26.735 98.117-39.372C809.92 280.5 873.215 244.986 960 225.446c83.023-18.693 97.086-9.156 127.753-17.133 26.468-6.884 61.217-33.026 88.248-28.867 52 8 128.099 55.255 194.806 82.918 48.362 20.055 99.83 31.246 150.508 44.402 174.026 45.18 340.757 114.235 506.686 183.546v400.134h-903.273l.001 6.182c0 .476-.359.868-.82.922l-.108.006H.928c-.512 0-.928-.415-.928-.928z"/>
        <path fill="#C8DEEA" d="M1051.186 303.483s-48-15-16-46c0 0 30.306-30.98 122.104-75.317-10.28 4.363-34.462 13.597-34.47 13.6-10.157 4.782-19.988 9.271-28.881 11.584-9.352 2.433-17.161 3.236-25.852 3.71-35.357 11.953-75.868 30.39-81.901 53.423 0 0-7 33 65 39"/>
    </g>
</svg>
