<svg xmlns="http://www.w3.org/2000/svg" width="2028" height="756" viewBox="0 0 2028 756">
    <defs>
        <linearGradient id="prefix__a" x1="50%" x2="50%" y1="0%" y2="100%">
            <stop offset="0%" stop-color="#CF7FA1"/>
            <stop offset="100%" stop-color="#E9DDE4"/>
        </linearGradient>
    </defs>
    <g fill="none" fill-rule="evenodd">
        <path fill="url(#prefix__a)" d="M658.917.883c6.63 0 12.005 8.97 12.005 20.038v.075c-.008 3.225 1.945 6.013 4.635 6.521 1.684.32 3.226 1.11 4.513 2.408 3.44 3.469 1.29 13.65-.447 19.814-.728 2.579.061 5.432 1.958 6.964 1.516 1.222 2.714 2.758 3.479 4.547 4.817-12.716 12.902-30.558 14.374-32.298 1.65-1.951 3.101-2.926 4.552-2.926l.19.005c1.388.082 2.785 1.055 4.363 2.921l.057.072c1.788 2.335 11.367 23.679 15.748 36.13 9.637-2.155 19.33-4.105 29.086-5.828C885 36.088 839.233 55.735 891 82.088c25.743 13.105 43.038 22.335 69 35 43.077 21.013 106.364 16.949 142 49 12.74 11.459 36 34 36 34-8.054 38.805 55.303 35.363 115.115 29.476-.056-.626-.092-1.265-.107-1.916l-.008-.655v-.157l.007-.603c.067-3.237.612-6.75 1.714-10.537l.213-.713.148-.476c4.987-15.91 21.076-51.54 23.566-54.448 2.213-2.587 4.17-3.926 6.117-4.018l.216-.006.217.006c1.872.088 3.753 1.33 5.863 3.725l.254.293.08.098c2.732 3.528 18.551 38.608 23.487 54.355l.146.471.422 1.45c.725 2.638 1.176 5.14 1.381 7.506 64.268-2.403 126.945 19.492 186.92 42.968 118.395 46.344 233.897 100.078 345.61 160.786 54.938 29.854 139.29 74.627 177.495 129.666l1.144 1.67v168.059H0v-453.65c22.384-6.906 56.159-8.932 70.742-12.01l.44-.095 99.523-21.748 6.846-1.496c69.602-15.219 139.283-30.699 206.876-53.194 71.754-23.88 141.4-54.746 212.302-80.863-3.981-5.192-6.16-9.83-5.657-12.568.314-1.707 1.214-3.136 2.498-4.181 1.124-.916 1.591-2.622 1.16-4.165-1.03-3.686-2.302-9.775-.264-11.85.761-.775 1.676-1.247 2.675-1.439 1.594-.304 2.75-1.971 2.745-3.9v-.045c0-6.619 3.185-11.983 7.114-11.983 3.93 0 7.114 5.364 7.114 11.983v.045c-.005 1.929 1.152 3.596 2.747 3.9.998.192 1.911.664 2.674 1.44 2.038 2.074.765 8.163-.265 11.85-.431 1.542.036 3.248 1.16 4.164 1.284 1.045 2.184 2.474 2.499 4.18.166.908.038 2.025-.352 3.301 7.081-2.464 14.181-4.868 21.301-7.2-8.16-9.816-12.782-18.796-11.84-23.87.53-2.855 2.049-5.243 4.215-6.991 1.898-1.532 2.687-4.385 1.958-6.964-1.737-6.165-3.885-16.345-.446-19.814 1.286-1.297 2.829-2.087 4.515-2.408 2.69-.508 4.64-3.296 4.633-6.521v-.075c0-11.067 5.374-20.038 12.004-20.038z"/>
        <path fill="#E9DDE4" d="M1136.291 202s5.137 18.644-29.085 25.314c-8.283 1.615-16.745 2.058-25.168 1.535-16.737-1.04-54.038-3.274-54.038-2.498 0 .977-24.856-6.649-75.505 8.902-2.426.745-4.88 1.391-7.356 1.947-52.265 11.751-620.2 147.171-786.139 518.151h132s31.733-308.406 678.817-509.474c5.877-1.826 11.906-3.099 18.015-3.839 13.506-1.636 38.603-3.592 61.164 1.944 3.983.978 8.007 1.774 12.085 2.214 23.124 2.501 95.371 8.152 102.919-17.845 0 1-27.709-26.35-27.709-26.35"/>
    </g>
</svg>
