<svg xmlns="http://www.w3.org/2000/svg" width="109" height="72" viewBox="0 0 109 72">
    <g fill="none" fill-rule="evenodd">
        <g>
            <path fill="#242528" d="M.303.332c10.412 3.635 20.77 7.438 31.206 11 .37.143.735.143 1.104 0 10.42-3.58 20.77-7.351 31.164-11-3.688 5.9-7.41 11.779-11.178 17.626-1.742-.751-3.535-1.377-5.29-2.097 1.017-1.797 2.11-3.551 3.14-5.34-3.356 1.695-6.772 3.27-10.105 5.015 2.33.891 4.663 1.765 6.975 2.705 1.289.528 2.671 1.545 2.758 3.062.206 1.685-.94 3.062-1.751 4.41C43.304 33.6 38.31 41.506 33.264 49.377c.028-2.076-.209-4.173.035-6.235 1.985-6.323 3.946-12.653 5.753-19.028.355-.947-.7-1.454-1.38-1.786-1.914-.85-3.708-1.975-5.668-2.702-1.989.864-3.897 1.909-5.847 2.856-.603.28-1.453.832-1.108 1.622 1.794 6.378 3.775 12.704 5.746 19.03.22 2.066.01 4.163.021 6.243-4.966-7.801-9.921-15.613-14.88-23.418-.864-1.436-2.118-2.904-1.902-4.697.115-1.506 1.49-2.506 2.78-3.03 2.29-.937 4.617-1.793 6.926-2.699-3.326-1.737-6.728-3.327-10.082-5.008 1.027 1.79 2.12 3.54 3.134 5.34-1.765.706-3.552 1.36-5.31 2.084C7.728 12.093 4.012 6.21.303.332z" transform="translate(22.288)"/>
            <path fill="#000" fill-rule="nonzero" d="M22.368 71.717c.034-3.446-.025-6.889.031-10.335 5.648.038 11.3-.01 16.949.02 1.104-.038 2.392.518 2.612 1.713.136 1.171.104 2.36.02 3.53-.069 1.294-1.42 2.077-2.611 1.993-4.607.01-9.215-.007-13.825.003.003 1.035.007 2.066.02 3.1-1.065.028-2.13.014-3.196-.024m3.165-7.997c.014.804.021 1.608.038 2.415 4.374-.042 8.748.039 13.122-.038.794-.462.254-1.57.404-2.31-4.516-.154-9.044-.032-13.564-.067z" transform="translate(22.288)"/>
        </g>
        <g fill="#242528">
            <path d="M.404 1.807C.857.779 2.03.207 3.12.231 8.657.217 14.194.238 19.735.224c.01.95.014 1.905.02 2.855-5.425.039-10.857-.049-16.28.042-.1.08-.299.245-.4.329-.063 1.366.014 2.74-.042 4.11.491.122.99.248 1.501.227 5.07-.014 10.141.007 15.211-.014.004.92.007 1.839.007 2.758-5.31.154-10.628.02-15.939.077-1.302.052-2.918-.2-3.433-1.598C.098 7.773.293 6.49.24 5.236c.018-1.14-.15-2.314.164-3.429zM22.395 8.042c-.01-2.607-.017-5.214.014-7.818 1.136.003 2.274-.004 3.413.017.039 2.5-.042 5.002.049 7.5 4.214.085 8.43.036 12.645.029.174-2.51.041-5.026.08-7.536 1.149-.007 2.298-.003 3.447-.017.025 2.604.032 5.211.007 7.818.014 1.398-1.306 2.566-2.667 2.541-3.956.12-7.916-.038-11.875.032-1.143-.004-2.306.066-3.424-.217-.947-.356-1.74-1.297-1.689-2.349zM66.946.224c5.548.014 11.095 0 16.643.003 1.198-.024 2.608.601 2.908 1.87.083 1.164.08 2.338-.004 3.502-.174.979-1.034 1.493-1.821 1.947.752.958 1.42 1.975 2.096 2.988-1.372-.087-3.454.738-4.22-.821-.46-.734-.896-1.482-1.341-2.223-3.667-.031-7.334-.014-11.001-.01.007 1.013.01 2.027.02 3.044-1.096.098-2.197.101-3.29.028.017-3.443-.014-6.886.01-10.328m3.295 2.216c-.028.838-.028 1.68-.025 2.52 4.332-.032 8.668.059 12.997-.042l.435-.315c-.063-.706.359-1.772-.484-2.121-4.304-.091-8.616-.004-12.923-.042zM89.213 2.793c-.045-1.577 1.595-2.674 3.05-2.566C97.76.224 103.254.237 108.75.22c.018 3.443.06 6.89-.042 10.332-.954.042-1.918.133-2.869.014-.432-.905-.066-2.087-.17-3.09-4.416-.003-8.832 0-13.248-.003-.007 1.034 0 2.072.007 3.11-1.069.028-2.135.014-3.2-.031.031-2.587-.066-5.173-.014-7.76m3.221-.206c-.014.794-.01 1.587.004 2.384 4.401-.024 8.807-.007 13.212-.01.007-.8.01-1.598.02-2.398-4.411 0-8.824-.045-13.236.024z" transform="translate(0 61.165)"/>
        </g>
    </g>
</svg>
