<svg xmlns="http://www.w3.org/2000/svg" width="1366" height="768" viewBox="0 0 1366 768">
    <g fill="none" fill-rule="evenodd">
        <path fill="#EE7D05" d="M0 0H1371V604H0z" opacity=".311" transform="translate(0 164)"/>
        <g>
            <path d="M15 0H311V534H15z" transform="translate(914 203)"/>
            <g>
                <path fill="#939DA6" d="M173 100h-35V48c13.8 11.75 34.329 36.402 34.854 45.08.06.984.108 3.388.146 6.92M172.494 357H138V229h34.61c-.06 20.847-.116 35.61-.116 35.61V357m15.387-121.246c-.08 0-.158-.009-.235-.026-.747-.175-7.04-3.489-13.094-6.728H192l-.024.275c-.324 3.499-2.598 6.479-4.095 6.479" transform="translate(914 203) translate(27 14)"/>
                <path fill="#E8E9EA" d="M127 512V0c32.193 0 53.27 3.684 65.795 11.358 12.524 7.674 40.322 39.597 40.933 49.727.612 10.129 0 170.36 0 170.36v237.263C233.728 504.622 204.393 512 127 512M127 0C94.807 0 73.73 3.684 61.205 11.358 48.68 19.032 20.882 50.955 20.27 61.085c-.61 10.129 0 170.36 0 170.36v237.263C20.271 504.622 49.607 512 127 512V0z" transform="translate(914 203) translate(27 14)"/>
                <path fill="#CDCFD1" d="M204.924 403.108c0-34.376-.522-163.693-.522-163.693 0-7.624-7.332-11.961-7.332-11.961l16.038-82.415s-3.471-31.17-11.55-61.182c-6.983-25.934-18.503-51.003-21.057-54.345C174.99 22.302 164.848 8.988 127 8.988V0c32.194 0 53.272 3.684 65.79 11.364 12.528 7.67 40.323 39.597 40.937 49.726.614 10.13 0 170.36 0 170.36v237.26c0 35.914-29.335 43.29-106.727 43.29v-40.177l62.803-29.145s15.121-5.194 15.121-39.57" transform="translate(914 203) translate(27 14)"/>
                <path fill="#CDCFD1" d="M223 175s11.753 2.777 20.728 8.712c8.97 5.935 9.55 8.218 9.199 11.87-.342 3.653-2.912 6.735-4.42 6.392-1.517-.342-25.316-12.898-25.316-12.898L223 175M49.077 403.108c0-34.376.522-163.693.522-163.693 0-7.624 7.33-11.961 7.33-11.961l-16.038-82.415s5.4-35.993 14.24-68.318C61.326 54.073 71.23 32.483 73.5 29.511 79.01 22.302 89.152 8.989 127 8.989V0C94.806 0 73.728 3.684 61.21 11.364c-12.527 7.67-40.323 39.597-40.937 49.726-.614 10.13 0 170.36 0 170.36v237.26C20.273 504.624 49.608 512 127 512v-40.177l-62.802-29.145s-15.121-5.194-15.121-39.57" transform="translate(914 203) translate(27 14)"/>
                <path fill="#CDCFD1" d="M30 175s-11.752 2.786-20.723 8.72c-8.971 5.932-9.553 8.213-9.204 11.865.35 3.65 2.913 6.732 4.427 6.389 1.515-.342 25.308-12.893 25.308-12.893L30 175" transform="translate(914 203) translate(27 14)"/>
                <path fill="#2F405C" d="M127 120c52.928 0 83.52 18.748 85.802 25.15 2.284 6.4-15.98 81.85-15.98 81.85s-38.74-9.602-69.822-9.602V120M222.862 165c2.56 0 0 112.404 0 137.154s-6.422 93.36-8.827 103.342c-2.405 9.982-9.462 10.905-9.502-2.736-.04-13.643-.533-156.127-.533-163.445 0-9.321 16.3-74.315 18.862-74.315" transform="translate(914 203) translate(27 14)"/>
                <path fill="#233044" d="M221.958 68.737c.685 1.225 4.772-2.179 4.772-2.924 0-.746.27-3.46.27-8.276 0-2.383-8.245-13.161-17.156-22.699-9.087-9.724-17.184-16.167-19.552-17.731-2.367-1.564-1.178 14.556 1.12 16.7 2.3 2.143 25.223 21.364 26.691 24.346 1.468 2.98 3.17 9.358 3.855 10.584" transform="translate(914 203) translate(27 14)"/>
                <path fill="#D90042" d="M185 443.201l4.694-1.201s18.46 37.311 19.926 40.573c.671 1.496 3.75-2.348 5.62-7.455 2.208-6.034 3.265-13.639 4.385-13.513 2.069.234 3.231 14.35 1.616 21.27-1.616 6.92-13.11 23.496-16.918 16.39-3.809-7.105-7.953-19.727-7.953-19.727L185 443.201M68 443.201L63.306 442s-18.46 37.311-19.926 40.573c-.671 1.496-3.75-2.348-5.62-7.455-2.208-6.034-3.265-13.639-4.385-13.513-2.069.234-3.232 14.35-1.616 21.27s13.11 23.496 16.918 16.39c3.81-7.105 7.954-19.727 7.954-19.727L68 443.201" transform="translate(914 203) translate(27 14)"/>
                <path fill="#2F405C" d="M127 448.787c35.018 0 57.785-4.787 57.785-4.787L196 479.558S174.174 488 127 488v-39.213" transform="translate(914 203) translate(27 14)"/>
                <path fill="#233044" d="M127 120c-52.929 0-83.52 18.748-85.803 25.15-2.282 6.4 15.98 81.85 15.98 81.85s38.74-9.602 69.823-9.602V120" transform="translate(914 203) translate(27 14)"/>
                <path fill="#2F405C" d="M127 132c-49.997 0-77.644 14.952-79.8 20.276C45.043 157.602 61.045 221 61.045 221s36.594-7.988 65.955-7.988V132" transform="translate(914 203) translate(27 14)"/>
                <path fill="#276379" d="M127 132c49.997 0 77.644 14.952 79.8 20.276 2.157 5.326-13.846 68.724-13.846 68.724s-36.594-7.988-65.954-7.988V132" transform="translate(914 203) translate(27 14)"/>
                <path fill="#233044" d="M31.139 165c-2.562 0 0 112.404 0 137.154s6.421 93.36 8.825 103.342c2.405 9.982 9.463 10.905 9.502-2.736.04-13.643.534-156.127.534-163.445C50 229.994 33.7 165 31.139 165M32.043 68.737c-.686 1.225-4.773-2.179-4.773-2.924 0-.746-.27-3.46-.27-8.276 0-2.383 8.245-13.161 17.156-22.699 9.087-9.724 17.184-16.167 19.552-17.731 2.367-1.564 1.177 14.556-1.12 16.7-2.3 2.143-25.222 21.364-26.691 24.346-1.468 2.98-3.17 9.358-3.854 10.584M127 448.787c-35.018 0-57.786-4.787-57.786-4.787L58 479.558S79.826 488 127 488v-39.213" transform="translate(914 203) translate(27 14)"/>
                <path fill="#327F93" d="M133.565 137.741c-3.887 3.52-2.775 19.075-.484 22.795 2.29 3.72 7.599 5.482 13.564 2.064 5.965-3.417 7.04-11.314 14.707-10.318 7.669.995 8.757 3.097 15.618 5.282 6.862 2.185 13.574-1.281 17.892 2.276 4.32 3.556-.597 20.307 2.456 21.14 3.053.83 7.743-24.014 6.467-27.384-1.277-3.369-12.236-8.397-29.583-12.777-17.346-4.38-36.75-6.598-40.637-3.078" transform="translate(914 203) translate(27 14)"/>
            </g>
            <path fill="#DADADA" stroke="#FFF" stroke-dasharray="4" stroke-width="2" d="M95 263h45c5.523 0 10 4.477 10 10v60c0 5.523-4.477 10-10 10H95c-5.523 0-10-4.477-10-10v-60c0-5.523 4.477-10 10-10zM95 351h45c5.523 0 10 4.477 10 10v59c0 5.523-4.477 10-10 10H95c-5.523 0-10-4.477-10-10v-59c0-5.523 4.477-10 10-10zM168 263h44c5.523 0 10 4.477 10 10v60c0 5.523-4.477 10-10 10h-44c-5.523 0-10-4.477-10-10v-60c0-5.523 4.477-10 10-10zM168 351h44c5.523 0 10 4.477 10 10v59c0 5.523-4.477 10-10 10h-44c-5.523 0-10-4.477-10-10v-59c0-5.523 4.477-10 10-10z" transform="translate(914 203)"/>
        </g>
        <text fill="#6F6F6F" font-family="SEATBCN-Medium, SEAT BCN" font-size="16" font-weight="400">
            <tspan x="208" y="134">Instrucciones del juego </tspan>
        </text>
        <path fill="#D8D8D8" d="M0 0H275V416H0z" transform="translate(281 253)"/>
        <path fill="#DADADA" d="M0 0H65V80H0z" transform="translate(592 254)"/>
        <path fill="#DADADA" d="M0 0H65V80H0z" transform="translate(592 365)"/>
        <path fill="#DADADA" d="M0 0H65V80H0z" transform="translate(592 589)"/>
        <path fill="#DADADA" d="M0 0H65V80H0z" transform="translate(591 476)"/>
        <text fill="#0F0F0F" fill-opacity=".6" font-family="SEATBCN-Bold, SEAT BCN" font-size="16" font-weight="bold">
            <tspan x="680" y="287">Investigación/</tspan> <tspan x="680" y="311">Success </tspan>
        </text>
        <text fill="#0F0F0F" fill-opacity=".6" font-family="SEATBCN-Bold, SEAT BCN" font-size="16" font-weight="bold">
            <tspan x="679" y="399">Transformación/ </tspan> <tspan x="679" y="423">innovación</tspan>
        </text>
        <text fill="#0F0F0F" fill-opacity=".6" font-family="SEATBCN-Bold, SEAT BCN" font-size="16" font-weight="bold">
            <tspan x="679" y="511">Gestión del </tspan> <tspan x="679" y="535">talento</tspan>
        </text>
        <text fill="#0F0F0F" fill-opacity=".6" font-family="SEATBCN-Bold, SEAT BCN" font-size="16" font-weight="bold">
            <tspan x="680" y="637">Baja rotación</tspan>
        </text>
    </g>
</svg>
