<svg xmlns="http://www.w3.org/2000/svg" width="1366" height="1102" viewBox="0 0 1366 1102">
    <g fill="none" fill-rule="evenodd">
        <path fill="#FFF" d="M0 0H1366V1102H0z"/>
        <g transform="translate(127 95)">
            <text fill="#520000" fill-opacity="0" stroke="#EE7D05" font-family="SEATBCN-Black, SEAT BCN" font-size="231" font-weight="700" letter-spacing="-6.6">
                <tspan x="0" y="286">01</tspan>
            </text>
            <circle cx="321" cy="243" r="15" fill="#EE7D05"/>
            <text fill="#33302E" font-family="SEATBCN-Bold, SEAT BCN" font-size="20" font-weight="bold">
                <tspan x="0" y="640">everis-partner. The perfect co-pilot with the necessary solvency and </tspan> <tspan x="0" y="678">experience to look to the future in the same direction. Forming a travel team </tspan> <tspan x="0" y="716">with transparency in decision making. </tspan>
            </text>
            <text fill="#0F0F0F" font-family="SEATBCN-Black, SEAT BCN" font-size="68" font-weight="700">
                <tspan x="1" y="448">Get your luggage </tspan> <tspan x="1" y="546">ready! </tspan>
            </text>
            <text fill="#0F0F0F" font-family="SEATBCN-Black, SEAT BCN" font-size="30" font-weight="700" opacity=".396">
                <tspan x="1" y="350">PARTNER SYNC</tspan>
            </text>
        </g>
        <text fill="#EE7D05" font-family="SEATBCN-Black, SEAT BCN" font-size="30" font-weight="700">
            <tspan x="127" y="897">Add your baggage to the car!</tspan>
        </text>
        <g>
            <text fill="#0F0F0F" fill-opacity=".6" font-family="SEATBCN-Medium, SEAT BCN" font-size="14" font-weight="400" transform="translate(1060 782)">
                <tspan x="11.891" y="110.164">Matrix of decision per </tspan> <tspan x="38.897" y="128.164">methodology </tspan> <tspan x="30.546" y="146.164">implementation </tspan>
            </text>
            <path fill="#EA5D1A" d="M65.14 21.639c.642 0 1.163.524 1.163 1.17v8.195h18.605v2.341H66.303v35.12c0 .646-.52 1.17-1.163 1.17h-2.326c-1.926 0-3.488 1.572-3.488 3.512s1.562 3.512 3.488 3.512h51.166V47.393h2.326v30.436c0 .647-.521 1.171-1.163 1.171H62.814c-3.21-.004-5.81-2.622-5.814-5.853V27.492c.004-3.231 2.604-5.85 5.814-5.853zm38.365 29.167v6.927h5.806c.641 0 1.161.517 1.161 1.154v9.236c0 .638-.52 1.155-1.161 1.155H95.376c-.642 0-1.161-.517-1.161-1.155V64.66h-9.29v3.463c0 .638-.52 1.155-1.162 1.155H69.828c-.641 0-1.161-.517-1.161-1.155v-9.236c0-.637.52-1.154 1.16-1.154h13.936c.641 0 1.161.517 1.161 1.154v3.464h9.29v-3.464c0-.637.52-1.154 1.162-1.154h5.806v-6.927h2.323zM63.977 23.98h-1.163c-1.926 0-3.488 1.573-3.488 3.512v40.972c1.005-.761 2.23-1.172 3.488-1.17h1.163V23.98zm44.173 36.062H96.537v6.927h11.613v-6.927zm-25.548 0H70.989v6.927h11.613v-6.927zm1.512-22.848c.656 0 1.188.523 1.188 1.167v3.5h4.754v2.333h-4.754v3.5c0 .645-.532 1.167-1.188 1.167h-14.26c-.655 0-1.187-.522-1.187-1.167v-9.333c0-.644.532-1.167 1.188-1.167zM110.587 9c.647 0 1.172.525 1.172 1.172v4.271c.77.251 1.518.56 2.24.928l3.02-3.025c.219-.22.517-.344.828-.345.31 0 .61.124.829.344l4.978 4.982c.22.22.345.52.345.83 0 .312-.125.61-.345.83l-3.025 3.015c.367.72.677 1.47.928 2.239h4.27c.648 0 1.173.525 1.173 1.172v7.035c0 .647-.525 1.172-1.172 1.172h-4.271c-.25.769-.56 1.518-.928 2.238l3.025 3.014c.221.22.345.519.345.831 0 .312-.124.61-.345.83l-4.983 4.972c-.458.457-1.198.457-1.656 0L114 42.49c-.722.367-1.471.677-2.241.928v4.27c0 .648-.525 1.173-1.172 1.173h-7.035c-.647 0-1.172-.525-1.172-1.172v-4.271c-.77-.251-1.521-.56-2.244-.928l-3.015 3.015c-.458.457-1.2.457-1.658 0l-4.978-4.97c-.221-.22-.345-.519-.345-.83 0-.312.124-.612.345-.831l3.025-3.014c-.367-.722-.677-1.47-.928-2.24h-4.27c-.648 0-1.173-.525-1.173-1.172v-7.035c0-.647.525-1.172 1.172-1.172h4.271c.25-.77.56-1.52.927-2.243l-3.025-3.014c-.22-.22-.345-.518-.345-.83 0-.311.124-.61.345-.83l4.984-4.98c.22-.219.518-.343.828-.343.311 0 .61.125.83.345l3.014 3.025c.722-.367 1.47-.677 2.24-.928v-4.27c0-.648.525-1.173 1.172-1.173zM82.926 39.528H71.043v7h11.883v-7zm26.488-28.183h-4.69v3.974c0 .532-.358.996-.872 1.133-1.167.307-2.288.771-3.33 1.38-.461.268-1.045.192-1.421-.186l-2.806-2.813-3.322 3.322 2.813 2.806c.378.376.454.96.186 1.42-.609 1.044-1.073 2.164-1.381 3.331-.136.515-.601.873-1.133.874h-3.974v4.69h3.974c.533 0 .998.358 1.134.873.308 1.167.772 2.287 1.381 3.33.268.461.192 1.045-.185 1.421l-2.814 2.805 3.321 3.313 2.806-2.806c.376-.376.96-.452 1.42-.184 1.042.609 2.163 1.073 3.33 1.38.515.136.874.601.874 1.134v3.974h4.69v-3.974c0-.533.36-1 .876-1.134 1.167-.307 2.288-.771 3.33-1.38.461-.268 1.044-.192 1.42.184l2.804 2.807 3.321-3.314-2.813-2.805c-.378-.376-.454-.96-.186-1.42.609-1.044 1.073-2.164 1.381-3.331.136-.515.6-.873 1.133-.874h3.974v-4.69h-3.974c-.53 0-.994-.359-1.13-.872-.308-1.167-.772-2.287-1.38-3.33-.269-.461-.193-1.045.185-1.421l2.814-2.806-3.323-3.322-2.806 2.813c-.376.38-.961.456-1.423.186-1.042-.609-2.163-1.073-3.33-1.38-.515-.136-.874-.601-.874-1.134v-3.974zm-1.858 6.405c5.903.006 10.688 4.79 10.694 10.694 0 5.907-4.788 10.695-10.694 10.695-5.907 0-10.695-4.788-10.695-10.695 0-5.906 4.788-10.694 10.695-10.694zm0 2.377c-4.595 0-8.318 3.723-8.318 8.317 0 4.595 3.723 8.318 8.318 8.318 4.591-.005 8.312-3.726 8.317-8.318 0-4.594-3.723-8.317-8.317-8.317zm0 3.456c2.684 0 4.86 2.177 4.86 4.861 0 2.685-2.176 4.862-4.86 4.862-2.685 0-4.862-2.177-4.862-4.862 0-2.684 2.177-4.86 4.862-4.86zm0 2.43c-1.343 0-2.431 1.09-2.431 2.431 0 1.343 1.088 2.431 2.43 2.431 1.343 0 2.431-1.088 2.431-2.43 0-1.343-1.088-2.431-2.43-2.431z" transform="translate(1060 782)"/>
        </g>
        <g>
            <text fill="#0F0F0F" fill-opacity=".6" font-family="SEATBCN-Medium, SEAT BCN" font-size="14" font-weight="400" transform="translate(1060 162)">
                <tspan x="38.666" y="110.164">Quality gates</tspan>
            </text>
            <path fill="#EA5D1A" d="M122.871 11c1.174 0 2.129.955 2.129 2.129v4.258c0 1.174-.955 2.13-2.129 2.13V74.87H125V77H59v-2.129h2.129V19.516c-1.174 0-2.129-.955-2.129-2.129V13.13c0-1.174.955-2.129 2.129-2.129zm-8.516 54.823l-7.56 3.148c-2.613 1.09-5.374 1.642-8.204 1.642-2.751 0-5.23-1.444-6.59-3.76-1.361 2.316-3.84 3.76-6.592 3.76-2.831 0-5.591-.553-8.205-1.642l-7.559-3.148v9.048h44.71v-9.048zM67.516 19.516h-4.258v55.355h4.258V62.097c-1.174 0-2.129-.955-2.129-2.13v-6.386c0-1.175.955-2.13 2.13-2.13v-2.128c-1.175 0-2.13-.955-2.13-2.13v-6.387c0-1.174.955-2.129 2.13-2.129v-19.16zm53.226 0h-4.258v19.161c1.174 0 2.129.955 2.129 2.13v6.387c0 1.174-.955 2.129-2.13 2.129v2.129c1.175 0 2.13.954 2.13 2.129v6.387c0 1.174-.955 2.129-2.13 2.129V74.87h4.259V19.516zm-20.298 8.568c-.504 3.822-3.55 6.855-7.38 7.334v27.539c0 .707.134 1.397.397 2.051.844 2.112 2.858 3.476 5.13 3.476 2.549 0 5.034-.497 7.386-1.478l8.378-3.49v-1.42c-1.174 0-2.13-.954-2.13-2.128V53.58c0-1.175.956-2.13 2.13-2.13v-2.128c-1.174 0-2.13-.955-2.13-2.13v-6.387c0-1.174.956-2.129 2.13-2.129v-1.256l-1.395-.279c-2.278-.455-4.179-1.908-5.217-3.985-1.43-2.863-4.17-4.743-7.3-5.073zm-16.888 0c-3.128.33-5.868 2.211-7.3 5.073-1.036 2.077-2.937 3.53-5.216 3.985l-1.395.28v1.255c1.174 0 2.13.955 2.13 2.13v6.387c0 1.174-.956 2.129-2.13 2.129v2.129c1.174 0 2.13.954 2.13 2.129v6.387c0 1.174-.956 2.129-2.13 2.129v1.419l8.378 3.49c2.352.98 4.837 1.478 7.386 1.478 2.271 0 4.286-1.364 5.13-3.474.263-.655.396-1.346.396-2.053V35.409c-3.828-.48-6.876-3.504-7.379-7.325zm-13.91 25.497h-2.13v6.387h2.131l-.002-6.387zm46.838 0h-2.13v6.387h2.13V53.58zM88.806 55.71v2.129H73.903v-2.13h14.903zm21.29 0v2.129H95.195v-2.13h14.903zm-21.29-4.258v2.129H73.903v-2.13h14.903zm21.29 0v2.129H95.195v-2.13h14.903zm-21.29-4.258v2.129H73.903v-2.13h14.903zm21.29 0v2.129H95.195v-2.13h14.903zm6.388-6.388h-2.13v6.388h2.13v-6.388zm-46.839 0h-2.129v6.388h2.131l-.002-6.388zm19.161 2.13v2.129H73.903v-2.13h14.903zm21.29 0v2.129H95.195v-2.13h14.903zm4.259-23.42h-44.71V35.25l.976-.195c1.629-.327 2.99-1.365 3.731-2.85 1.943-3.887 5.851-6.302 10.196-6.302h1.065v1.065c0 3.522 2.865 6.387 6.387 6.387 3.522 0 6.387-2.865 6.387-6.387v-1.065h1.065c4.345 0 8.253 2.415 10.196 6.301.742 1.486 2.102 2.524 3.73 2.85l.977.196V19.516zm8.516-6.387H61.129v4.258h61.744l-.002-4.258z" transform="translate(1060 162)"/>
        </g>
        <g>
            <text fill="#0F0F0F" fill-opacity=".6" font-family="SEATBCN-Medium, SEAT BCN" font-size="14" font-weight="400" transform="translate(1060 472)">
                <tspan x="1.363" y="110.164">Trabajo en base a MVPs.</tspan>
            </text>
            <g fill="#EA5D1A">
                <path stroke="#EA5D1A" stroke-width=".5" d="M34.684 0c.772 0 1.4.641 1.4 1.43v2.413c0 .06.038.11.092.125 1.452.388 2.846.978 4.145 1.754.048.029.11.02.151-.02l1.673-1.709c.546-.557 1.434-.557 1.98 0l2.792 2.851h12.21c2.136 0 3.873 1.762 3.873 3.927v41.036c0 2.165-1.737 3.926-3.872 3.926H38.284V61.6h4.622c1.193 0 2.163.987 2.163 2.2S44.1 66 42.906 66H20.579c-1.193 0-2.164-.987-2.164-2.2s.971-2.2 2.164-2.2H25.2v-5.867H3.872C1.737 55.733 0 53.972 0 51.807V10.77c0-2.165 1.737-3.927 3.872-3.927h12.752c.122 0 .236.035.333.096l2.887-2.948c.546-.557 1.434-.558 1.98 0L23.497 5.7c.04.041.103.05.151.021 1.299-.776 2.693-1.366 4.145-1.754.054-.014.092-.066.092-.125V1.43c0-.789.628-1.43 1.4-1.43h5.4zm8.222 62.898H20.579c-.489 0-.887.405-.887.902s.398.902.887.902h22.327c.488 0 .886-.405.886-.902s-.398-.902-.886-.902zm-5.591-7.165H26.169V61.6h11.146v-5.867zm24.415-8.8H1.269v4.874c0 1.455 1.168 2.639 2.603 2.639h55.256c1.435 0 2.602-1.184 2.602-2.64v-4.873zM15.836 8.132H3.872c-1.435 0-2.602 1.184-2.602 2.639l-.001 35.184h1.638V10.961c0-.653.52-1.183 1.159-1.183H15.91c-.19-.249-.294-.554-.294-.876 0-.277.077-.542.22-.77zM4.158 43.75l.001 2.205h54.635l.002-2.172c-.11.073-.257.117-.418.117H4.622c-.185 0-.35-.058-.464-.15zM48.133 8.132c.143.228.22.493.22.771 0 .321-.103.626-.293.876l10.825-.001c.615 0 1.115.53 1.115 1.183h0v34.994h1.73V10.771c0-1.455-1.167-2.639-2.602-2.639H48.133zm-1.506 3.125v.02l-.019-.001-.337.346c-.04.041-.05.105-.021.155.76 1.325 1.338 2.75 1.718 4.232.014.056.064.094.122.094h2.364c.772 0 1.4.641 1.4 1.43v5.513c0 .788-.628 1.43-1.4 1.43H48.09c-.058 0-.108.038-.122.093-.38 1.483-.958 2.907-1.718 4.233-.029.05-.02.113.021.155l1.672 1.708c.265.27.41.629.41 1.01 0 .383-.145.742-.41 1.012l-3.818 3.899c-.264.27-.616.418-.99.418s-.726-.148-.99-.419l-1.673-1.707c-.04-.042-.103-.05-.152-.022-1.297.776-2.692 1.367-4.144 1.755-.054.014-.092.065-.092.125v2.413c0 .788-.628 1.429-1.4 1.429h-5.4c-.771 0-1.4-.642-1.4-1.43v-2.413c0-.06-.037-.111-.091-.126-1.453-.387-2.847-.978-4.145-1.754-.048-.029-.11-.02-.151.022l-1.673 1.708c-.264.27-.616.418-.99.418s-.726-.149-.99-.419l-3.819-3.898c-.264-.27-.41-.63-.41-1.011 0-.382.146-.741.41-1.011l1.673-1.708c.04-.042.05-.106.021-.155-.76-1.326-1.338-2.75-1.718-4.233-.014-.055-.065-.093-.122-.093h-2.363c-.772 0-1.4-.642-1.4-1.43v-5.514c0-.788.628-1.43 1.4-1.43h2.363c.058 0 .109-.037.122-.092.38-1.483.958-2.908 1.719-4.233.028-.05.02-.114-.022-.155l-.612-.624c-.08.038-.17.06-.266.06H4.16L4.158 43.15c.114-.092.28-.15.464-.15h53.756c.161 0 .308.044.418.117l-.002-32.06H46.823l-.196.2zm-11.943-9.96h-5.4c-.07 0-.128.06-.128.133v2.413c0 .65-.429 1.217-1.042 1.38-1.339.358-2.625.903-3.823 1.62-.547.327-1.244.235-1.693-.224L20.925 4.91c-.05-.052-.132-.051-.182 0L16.925 8.81c-.032.032-.038.068-.038.093 0 .025.006.06.037.093l1.673 1.708c.45.46.54 1.17.22 1.728-.702 1.223-1.235 2.537-1.586 3.905-.16.626-.716 1.063-1.352 1.063h-2.363c-.072 0-.13.06-.13.132v5.514c0 .072.058.131.13.131h2.363c.636 0 1.192.438 1.352 1.064.35 1.368.884 2.681 1.585 3.904.32.559.23 1.27-.219 1.729l-1.672 1.708c-.05.051-.05.135 0 .186l3.818 3.9c.063.063.12.062.182 0l1.673-1.708c.27-.276.628-.42.99-.42.24 0 .483.064.703.195 1.197.716 2.483 1.26 3.824 1.619.613.164 1.04.732 1.04 1.38v2.414c0 .073.059.132.13.132h5.4c.07 0 .129-.06.129-.132v-2.413c0-.65.428-1.217 1.04-1.38 1.34-.36 2.627-.904 3.824-1.62.548-.327 1.244-.235 1.694.225l1.672 1.707c.062.064.12.064.182 0l3.819-3.899c.05-.051.05-.135 0-.187l-1.673-1.707c-.45-.46-.54-1.17-.219-1.729.701-1.223 1.235-2.537 1.585-3.905.16-.625.716-1.063 1.352-1.063h2.364c.07 0 .129-.059.129-.132v-5.513c0-.073-.058-.132-.13-.132H48.09c-.636 0-1.192-.437-1.352-1.063-.35-1.368-.884-2.682-1.585-3.905-.32-.558-.23-1.27.219-1.728l1.673-1.708c.03-.032.037-.069.037-.093 0-.025-.006-.062-.037-.094l-.666-.679-.06-.005c-.298-.045-.528-.297-.541-.607L43.226 4.91c-.05-.05-.132-.051-.182 0L41.37 6.618c-.449.46-1.145.552-1.693.224-1.197-.716-2.484-1.26-3.823-1.619-.613-.163-1.041-.73-1.041-1.38V1.43c0-.073-.058-.132-.13-.132z" transform="translate(1060 472) translate(61 11)"/>
                <path d="M28.318 25.422h-1.054c-.666 0-1.212-.538-1.243-1.212l-.16.412c-.19.486-.644.8-1.156.8h-.937c-.51 0-.963-.313-1.154-.796l-.173-.44c-.019.685-.57 1.236-1.244 1.236h-1.053c-.686 0-1.244-.57-1.244-1.273v-8.21c0-.701.558-1.272 1.244-1.272h1.262c.5 0 .95.304 1.145.776l1.694 4.1 1.662-4.092c.194-.476.645-.784 1.149-.784h1.262c.686 0 1.244.57 1.244 1.273v8.21c0 .701-.559 1.272-1.244 1.272zm-1.673-5.176c.04 0 .079.004.119.012.294.058.507.322.507.628v3.263l1.047-.007-.008-8.195h-1.255l-2.228 5.497c-.097.238-.324.393-.576.394h-.002c-.251 0-.478-.154-.576-.39l-2.274-5.506-1.255.005.007 8.202 1.046-.007-.007-3.257c0-.306.212-.57.506-.628.295-.059.588.105.7.39l1.378 3.5.931-.005 1.36-3.493c.096-.246.329-.403.58-.403z" transform="translate(1060 472) translate(61 11)"/>
                <path d="M34.366 25.422h-1.382c-.54 0-1.027-.346-1.213-.862l-3.1-8.618c-.145-.401-.087-.851.154-1.203.242-.351.637-.561 1.058-.561h1.202c.545 0 1.034.35 1.216.873l1.376 3.931 1.397-3.936c.184-.52.672-.868 1.215-.868h1.19c.421 0 .817.21 1.058.562.241.352.298.801.154 1.204l-3.113 8.618c-.187.515-.673.86-1.212.86zm-3.288-9.928l-1.195.005 3.108 8.607 1.375-.005 3.101-8.602h-1.179l-2.005 5.665c-.092.262-.337.436-.61.436h-.002c-.274 0-.518-.176-.61-.439l-1.983-5.667z" transform="translate(1060 472) translate(61 11)"/>
                <path d="M40.063 25.422h-1.038c-.675 0-1.225-.589-1.225-1.313v-8.618c0-.724.55-1.313 1.225-1.313h2.555c1.238 0 2.215.352 2.904 1.048.71.716 1.07 1.673 1.07 2.845 0 1.192-.375 2.157-1.115 2.866-.7.673-1.662 1.014-2.859 1.014h-.292v2.158c0 .724-.549 1.313-1.225 1.313zM39.025 15.5l.007 8.61 1.031-.007-.007-2.812c0-.365.276-.66.616-.66h.908c.884 0 1.57-.228 2.037-.677.474-.455.705-1.07.705-1.883 0-.804-.223-1.42-.683-1.883-.452-.457-1.145-.688-2.059-.688h-2.555zm2.464 4.217h-.817c-.34 0-.616-.296-.616-.66v-1.983c0-.365.276-.66.616-.66h.817c.63 0 1.09.142 1.368.424.277.279.418.694.418 1.233 0 .522-.14.931-.42 1.217-.275.284-.735.429-1.366.429zm-.2-1.321h.2c.3 0 .463-.046.52-.072.01-.025.034-.095.034-.252 0-.154-.02-.234-.031-.266-.06-.027-.226-.072-.523-.072h-.2v.662z" transform="translate(1060 472) translate(61 11)"/>
            </g>
        </g>
        <g>
            <text fill="#0F0F0F" fill-opacity=".6" font-family="SEATBCN-Medium, SEAT BCN" font-size="14" font-weight="400" transform="translate(1060 627)">
                <tspan x="29.727" y="110.164">Transparencia y </tspan> <tspan x="45.862" y="128.164">proximidad</tspan>
            </text>
            <path fill="#EA5D1A" stroke="#EA5D1A" d="M127.57 29.154c-.004-.027-.009-.054-.015-.08-.403-2.147-1.072-4.2-1.972-6.126-.024-.073-.057-.144-.099-.212-.836-1.749-1.864-3.39-3.055-4.896-.045-.074-.097-.144-.16-.208l-.028-.024c-1.17-1.445-2.493-2.762-3.944-3.926l-.023-.026c-.066-.065-.138-.12-.215-.164-1.512-1.184-3.159-2.203-4.913-3.031-.067-.041-.137-.073-.21-.098-1.936-.893-4-1.554-6.158-1.946l-.08-.015c-1.479-.264-3-.402-4.553-.402-1.194 0-2.37.083-3.521.24l-.011.002c-10.92 1.499-19.688 9.841-21.824 20.548-2.803.558-5.502 1.577-7.977 3.026-.504.295-.673.942-.378 1.446.295.504.942.673 1.446.378 2.047-1.199 4.263-2.077 6.565-2.614-.101.93-.155 1.873-.155 2.83 0 1.55.137 3.07.4 4.548.005.029.01.057.017.086.391 2.157 1.053 4.22 1.945 6.156.025.073.058.143.099.21.828 1.754 1.846 3.401 3.03 4.913.045.077.1.149.165.214.008.009.017.016.026.024 1.164 1.45 2.48 2.774 3.925 3.944l.024.027c.064.064.135.116.208.16 1.506 1.192 3.148 2.22 4.897 3.056.067.042.138.075.212.1 1.925.899 3.979 1.568 6.126 1.971.026.006.052.011.079.015 1.525.282 3.096.43 4.702.43.956 0 1.9-.054 2.83-.155-2.456 10.493-11.89 18.331-23.12 18.331-13.091 0-23.742-10.65-23.742-23.742 0-6.6 2.645-12.733 7.447-17.267.424-.4.443-1.069.043-1.493-.4-.425-1.07-.444-1.494-.043-2.534 2.392-4.528 5.215-5.926 8.39C56.734 47.021 56 50.524 56 54.145 56 68.402 67.599 80 81.855 80c12.524 0 22.994-8.95 25.356-20.79 10.77-2.147 19.147-11.005 20.574-22.015l.002-.019c.14-1.087.213-2.196.213-3.32 0-1.606-.148-3.177-.43-4.702zm-6.165-9.165c.705.978 1.34 2.01 1.892 3.09L104.57 41.805c-.578-1.06-1.229-2.074-1.944-3.038l18.778-18.778zm-1.32-1.669L101.29 37.114c-.775-.884-1.608-1.715-2.496-2.486l18.792-18.791c.892.765 1.727 1.595 2.498 2.483zm-4.174-3.797L97.134 33.3c-.968-.712-1.987-1.358-3.05-1.932l18.723-18.723c1.085.548 2.122 1.176 3.104 1.877zm-9.02-3.932c1.327.27 2.613.651 3.849 1.133l-18.67 18.67c-1.193-.514-2.43-.942-3.707-1.275l18.529-18.528zm-7.673-.297c.96-.119 1.936-.18 2.927-.18.72 0 1.433.033 2.138.097L85.889 28.605c-1.315-.207-2.662-.315-4.034-.315-.214 0-.429.005-.643.01l18.006-18.006zm-3.773.784L79.367 27.156c2.273-7.714 8.365-13.806 16.078-16.078zM78.501 35.993c-.064-.705-.098-1.417-.098-2.138 0-.99.062-1.967.18-2.927l.343-.342c.968-.12 1.947-.183 2.93-.183.72 0 1.433.034 2.137.097l-5.492 5.493zm.38 2.61l7.721-7.723c1.326.27 2.612.652 3.848 1.134L80.014 42.45c-.482-1.236-.864-2.522-1.134-3.848zm3.932 9.019c-.702-.982-1.33-2.02-1.877-3.105l11.581-11.581c1.085.548 2.123 1.175 3.105 1.877l-12.81 12.809zm1.313 1.675l13.171-13.17c.892.765 1.728 1.595 2.498 2.483L86.61 51.795c-.888-.77-1.718-1.606-2.484-2.498zm4.153 3.818l12.836-12.836c.706.977 1.34 2.01 1.892 3.09L91.368 55.006c-1.08-.553-2.112-1.187-3.089-1.892zm8.977 3.975c-1.32-.278-2.6-.664-3.83-1.152l10.513-10.512c.487 1.23.873 2.51 1.15 3.83l-7.833 7.834zm8.183-.212l-.561.56c-.897.104-1.809.159-2.733.159-.774 0-1.54-.039-2.295-.111l5.636-5.636c.072.755.11 1.52.11 2.295 0 .924-.054 1.836-.157 2.733zm1.405-9.376c-.338-1.271-.771-2.504-1.29-3.69l18.674-18.675c.487 1.23.874 2.51 1.151 3.83l-18.535 18.535zm1.757 9.202l16.393-16.393c-2.238 7.91-8.483 14.155-16.393 16.393zm17.127-20.116l-18.023 18.024c.002-.156.005-.311.005-.467 0-1.423-.117-2.82-.34-4.18l18.405-18.405c.073.755.112 1.52.112 2.295 0 .924-.055 1.836-.159 2.733z" transform="translate(1060 627)"/>
        </g>
        <g>
            <text fill="#0F0F0F" fill-opacity=".6" font-family="SEATBCN-Medium, SEAT BCN" font-size="14" font-weight="400" transform="translate(1060 317)">
                <tspan x="0" y="113">Capacidad de adaptación </tspan> <tspan x="59.836" y="131">al medio</tspan>
            </text>
            <path fill="#EA5D1A" d="M117.647 9c5.678 0 10.299 4.576 10.299 10.2 0 5.623-4.62 10.2-10.299 10.2h-9.16c3.704 4.886 5.727 10.834 5.727 17 0 7.435-2.91 14.206-7.657 19.265h6.513v-4.268l14.812 8.802L113.07 79v-4.268H66.154v-2.267h19.453c14.512 0 26.319-11.693 26.319-26.066 0-6.26-2.275-12.271-6.39-17h-5.053v-4.486c-4.39-2.989-9.516-4.58-14.876-4.58-14.512 0-26.318 11.694-26.318 26.066 0 7.335 3.134 14.33 8.603 19.266h8.01C68.773 62.127 63.867 54.82 63.867 46.4c0-11.873 9.753-21.533 21.741-21.533 11.989 0 21.742 9.66 21.742 21.533 0 11.874-9.753 21.533-21.742 21.533H63.866v-2.267h.773C59.757 60.45 57 53.573 57 46.4c0-15.622 12.833-28.333 28.607-28.333 5.304 0 10.403 1.423 14.876 4.13V19.2c0-5.624 4.62-10.2 10.299-10.2zm-2.288 56.4v2.532h-11.19c-2.193 1.856-4.667 3.395-7.356 4.533h18.546v2.532l8.074-4.798-8.074-4.799zm-56.467 6.978v1.892H57v-1.892h1.892zm4.73 0v1.892H61.73v-1.892h1.892zm-1.892-6.621v1.892h-1.892v-1.892h1.892zm23.877-38.624c-10.726 0-19.453 8.643-19.453 19.266 0 10.624 8.727 19.266 19.453 19.266 10.727 0 19.453-8.642 19.453-19.266 0-10.623-8.726-19.266-19.453-19.266zm.244 2.678c9.65 0 17.5 7.638 17.5 17.027 0 9.389-7.85 17.027-17.5 17.027s-17.5-7.638-17.5-17.027c0-9.389 7.85-17.027 17.5-17.027zm1.167 2.328v4.483h-2.333V32.14c-3.304.246-6.313 1.522-8.688 3.505l3.256 3.169-1.65 1.605-3.256-3.169c-2.038 2.312-3.35 5.238-3.603 8.454h4.607v2.27h-4.608c.253 3.215 1.565 6.142 3.603 8.453l3.256-3.168 1.65 1.604-3.255 3.168c2.375 1.983 5.383 3.26 8.688 3.506v-4.483h2.333v4.483c3.304-.247 6.313-1.523 8.688-3.506l-3.256-3.168 1.65-1.605 3.256 3.168c2.038-2.31 3.35-5.237 3.603-8.453H96.35v-2.27h4.608c-.254-3.215-1.565-6.143-3.603-8.454L94.1 40.418l-1.65-1.606 3.256-3.168c-2.375-1.983-5.383-3.259-8.688-3.505zm-.059 6.185v4.733c1.283.469 2.21 1.713 2.21 3.186 0 .523-.125 1.011-.333 1.454l2.218 2.271-1.562 1.6-2.218-2.272c-.432.213-.91.34-1.42.34-1.827 0-3.313-1.522-3.313-3.393 0-1.473.926-2.717 2.209-3.186v-4.733h2.21zm-1.105 6.788c-.608 0-1.104.508-1.104 1.13 0 .624.496 1.132 1.104 1.132.61 0 1.105-.508 1.105-1.131s-.496-1.131-1.105-1.131zm31.793-33.845h-6.865c-4.417 0-8.01 3.558-8.01 7.933v7.933h14.875c4.417 0 8.01-3.559 8.01-7.933 0-4.375-3.593-7.933-8.01-7.933zm1.785 11.922v1.892h-1.891V23.19h1.891zm-3.783 0v1.892h-1.892V23.19h1.892zm-4.73 0v1.892h-1.892V23.19h1.892zm8.513-4.73v1.892h-11.35V18.46h11.35zm0-4.73v1.893h-11.35V13.73h11.35z" transform="translate(1060 317)"/>
        </g>
    </g>
</svg>
