<svg xmlns="http://www.w3.org/2000/svg" xmlns:xlink="http://www.w3.org/1999/xlink" width="1366" height="768" viewBox="0 0 1366 768">
    <defs>
        <path id="prefix__a" d="M1068 0v101.862c0 19.354-15.689 35.042-35.042 35.042h-.14l-34.982-.14h-.4l-259.062-.001c-14.455 0-26.174-11.719-26.174-26.174v-.2c.112-14.598 11.978-26.373 26.576-26.373h6.33c18.044 0 32.67 14.627 32.67 32.67v.035l-.095 89.96c-.037 34.332 27.765 62.194 62.098 62.23h19.546c23.596 0 42.724 19.128 42.724 42.723v.027c-.015 23.615-19.163 42.75-42.777 42.75h-64.153c-31.687 0-57.382 25.673-57.409 57.36-.026 31.653 25.612 57.334 57.265 57.36h159.441c55.115 0 99.84 44.596 100 99.712l.112 39.157"/>
        <path id="prefix__b" d="M698.347 0l.043 11.872c.198 55.228-44.413 100.16-99.641 100.358H425.356c-20.662 0-37.412 16.75-37.412 37.413 0 .197.001.395.005.593.327 20.66-16.155 37.673-36.815 38-.198.004-.395.006-.593.006H100.22c-55.158 0-99.9 44.66-100 99.818l-.053 28.99c-.093 50.859 41.062 92.163 91.92 92.255h.168c50.951 0 92.256-41.304 92.256-92.255V174.28c0-34.285 27.794-62.079 62.08-62.079 34.295 0 62.107 27.784 62.14 62.08l.243 246.457c.152 55.19 44.908 99.901 100.098 100h213.665C670.93 520.738 710 559.806 710 608"/>
        <path id="prefix__c" d="M699.15 0v105.428c0 31.364-25.426 56.79-56.79 56.79s-56.79 25.426-56.79 56.79v73.099c0 55.228-44.772 100-100 100H304.654c-31.842 0-57.654-25.812-57.654-57.654 0-31.84 25.812-57.653 57.654-57.653h92.914c54.09 0 97.97 43.79 98.081 97.88.111 54.09 43.991 97.88 98.081 97.88h17.973c55.228 0 100 44.771 100 100v.296L711.598 608"/>
    </defs>
    <g fill="none" fill-rule="evenodd">
        <g transform="translate(115 160)">
            <g transform="matrix(-1 0 0 1 1780 0)">
                <use stroke="#FFF" stroke-width="18" xlink:href="#prefix__a"/>
                <use stroke="#949494" stroke-width="14" xlink:href="#prefix__a"/>
            </g>
            <path stroke="#FFF" stroke-dasharray="18" stroke-width="3" d="M712 0v101.997c0 19.353 15.689 35.042 35.042 35.042h.14l34.982-.14.4-.001h259.069c14.451 0 26.167-11.716 26.167-26.168v-.2c-.112-14.594-11.974-26.366-26.57-26.366h-6.337c-18.048 0-32.678 14.63-32.678 32.679v.026l.072 89.98c.028 34.701-28.08 62.855-62.782 62.883h-22.137c-22.531 0-40.796 18.265-40.796 40.796 0 22.678 18.114 41.204 40.786 41.713l67.807 1.523c31.724.713 57.08 26.617 57.113 58.35.033 31.483-25.464 57.033-56.948 57.066H825.296c-55.002 0-99.68 44.42-99.998 99.421L725.07 608h0"/>
            <use stroke="#FFF" stroke-width="20" xlink:href="#prefix__b"/>
            <use stroke="#949494" stroke-width="14" xlink:href="#prefix__b"/>
            <path stroke="#FFF" stroke-dasharray="18" stroke-width="3" d="M698.347 0l.043 11.767c.198 55.228-44.413 100.16-99.641 100.358H425.29c-20.625 0-37.346 16.721-37.346 37.348 0 .197.001.395.005.593.327 20.623-16.126 37.608-36.75 37.935-.197.004-.395.005-.593.005H100.22c-55.157 0-99.9 44.66-100 99.818l-.052 28.61c-.093 50.859 41.061 92.163 91.92 92.256h.168c50.951 0 92.256-41.305 92.256-92.256V174.176c0-34.285 27.794-62.08 62.08-62.08 34.295 0 62.107 27.785 62.14 62.08l.242 245.754c.153 55.19 44.909 99.902 100.099 100H621.93c48.64 0 88.07 39.43 88.07 88.07h0"/>
            <use stroke="#FFF" stroke-width="18" xlink:href="#prefix__c"/>
            <use stroke="#949494" stroke-width="14" xlink:href="#prefix__c"/>
            <path stroke="#FFF" stroke-dasharray="18" stroke-width="3" d="M699.15 0v105.567c0 31.326-25.395 56.72-56.72 56.72h-.07c-31.326-.038-56.752 25.326-56.79 56.652V292.107c0 55.228-44.772 100-100 100H304.654c-31.842 0-57.654-25.812-57.654-57.654 0-31.84 25.812-57.653 57.654-57.653h92.914c54.09 0 97.97 43.79 98.081 97.88.111 54.09 43.991 97.88 98.081 97.88H612c55.228 0 100 44.771 100 100V608h0"/>
        </g>
        <g>
            <text fill="#0F0F0F" font-family="SEATBCN-Bold, SEAT BCN" font-size="25" font-weight="bold" transform="translate(867 231)">
                <tspan x="27.962" y="35">C</tspan>
            </text>
            <path stroke="#EB71A3" stroke-width="3" d="M75 37c8.284 0 15-6.716 15-15 0-8.284-6.716-15-15-15-8.284 0-15 6.716-15 15 0 8.284 6.716 15 15 15z" transform="translate(867 231)"/>
        </g>
        <g>
            <text fill="#0F0F0F" font-family="SEATBCN-Bold, SEAT BCN" font-size="25" font-weight="bold" transform="translate(587 211)">
                <tspan x="28.425" y="35">A</tspan>
            </text>
            <path stroke="#EB71A3" stroke-width="3" d="M75 37c8.284 0 15-6.716 15-15 0-8.284-6.716-15-15-15-8.284 0-15 6.716-15 15 0 8.284 6.716 15 15 15z" transform="translate(587 211)"/>
        </g>
        <g>
            <text fill="#0F0F0F" font-family="SEATBCN-Bold, SEAT BCN" font-size="25" font-weight="bold" transform="translate(721 352)">
                <tspan x="29.288" y="35">B</tspan>
            </text>
            <path stroke="#EB71A3" stroke-width="3" d="M75 37c8.284 0 15-6.716 15-15 0-8.284-6.716-15-15-15-8.284 0-15 6.716-15 15 0 8.284 6.716 15 15 15z" transform="translate(721 352)"/>
        </g>
        <text fill="#6F6F6F" font-family="SEATBCN-Medium, SEAT BCN" font-size="16" font-weight="400">
            <tspan x="208" y="132">Instrucciones del juego </tspan>
        </text>
    </g>
</svg>
