<svg xmlns="http://www.w3.org/2000/svg" width="1366" height="1160" viewBox="0 0 1366 1160">
    <g fill="none" fill-rule="evenodd">
        <path fill="#FFF" d="M0 0H1366V1160H0z"/>
        <g transform="translate(454 128)">
            <text fill="#520000" fill-opacity="0" stroke="#84C497" font-family="SEATBCN-Black, SEAT BCN" font-size="231" font-weight="700" letter-spacing="-6.6">
                <tspan x="0" y="286">02</tspan>
            </text>
            <circle cx="369" cy="241" r="15" fill="#84C497"/>
            <text fill="#33302E" font-family="SEATBCN-Bold, SEAT BCN" font-size="20" font-weight="bold">
                <tspan x="0" y="640">Take the wheel and speed up! everis provides the efficiency and time to </tspan> <tspan x="0" y="678">market needed to lead the way along with the determination and experience </tspan> <tspan x="0" y="716">the team needs. </tspan> <tspan x="0" y="754">Together with the ability to adapt to the environment in which we find </tspan> <tspan x="0" y="792">ourselves, in order to go beyond our capabilities.</tspan>
            </text>
            <text fill="#0F0F0F" font-family="SEATBCN-Black, SEAT BCN" font-size="68" font-weight="700">
                <tspan x="1" y="448">Speed up on the </tspan> <tspan x="1" y="546">road! </tspan>
            </text>
            <text fill="#0F0F0F" font-family="SEATBCN-Black, SEAT BCN" font-size="30" font-weight="700" opacity=".396">
                <tspan x="1" y="350">DELIVERY FIRST</tspan>
            </text>
        </g>
        <g>
            <text fill="#0F0F0F" fill-opacity=".6" font-family="SEATBCN-Medium, SEAT BCN" font-size="14" font-weight="400" transform="translate(127 800)">
                <tspan x="0" y="113">Delivery productivity suite </tspan> <tspan x="55.062" y="131">readiness </tspan>
            </text>
            <path fill="#84C497" d="M115.6 13c.58 0 1.05.47 1.05 1.05v18.353c1.201.623 2.302 1.42 3.268 2.368 5.37 5.267 5.452 13.89.185 19.26 1 .171 1.919.663 2.616 1.401 1.778 1.882 1.693 4.848-.188 6.626l-10.745 12.816c-.598.715-1.483 1.127-2.415 1.126H83.05c-.066-.002-.131-.01-.195-.023L67.3 73.06v1.89c0 .58-.47 1.05-1.05 1.05h-4.2c-.58 0-1.05-.47-1.05-1.05v-21c0-.58.47-1.05 1.05-1.05h4.2c.58 0 1.05.47 1.05 1.05v.623c3.823-.964 7.837-.863 11.607.294l8.539 3.283h12.93c.933 0 1.845.278 2.62.796 2.17 1.45 2.754 4.384 1.304 6.554h1.918c.963.003 1.874-.438 2.47-1.195l5.268-6.654c-6.196 1.729-12.755-1.133-15.703-6.851H69.4c-.58 0-1.05-.47-1.05-1.05v-35.7c0-.58.47-1.05 1.05-1.05zM65.2 55h-2.1v18.9h2.1V55zm12.952 1.826c-3.538-1.05-7.302-1.072-10.852-.061v14.163L83.148 73.9h26.223c.31 0 .605-.137.804-.375l10.79-12.866c.03-.035.062-.068.096-.1.535-.491.84-1.185.84-1.912-.002-1.434-1.163-2.596-2.597-2.597h-.217c-.607-.001-1.194.21-1.66.596l-7.092 8.959c-.993 1.262-2.511 1.998-4.117 1.995H93.55v-2.1h6.825c1.45 0 2.625-1.175 2.625-2.625s-1.175-2.625-2.625-2.625H87.25c-.128.002-.256-.02-.377-.064zM110.35 32.95c-6.378 0-11.55 5.171-11.55 11.55.008 6.376 5.175 11.543 11.55 11.55 6.38 0 11.55-5.171 11.55-11.55 0-6.379-5.17-11.55-11.55-11.55zm.154 2.051c.41.002.782.239.956.609l1.966 4.16 4.638.55c.412.048.758.334.885.73.127.395.012.828-.295 1.108l-3.56 3.252 1.727 5.193c.101.306.058.642-.117.912-.319.493-.976.633-1.469.314l-4.73-3.08-4.732 3.077c-.257.167-.575.215-.87.13-.564-.161-.89-.75-.729-1.313l1.506-5.233-3.36-3.276c-.173-.17-.283-.392-.312-.633-.07-.582.345-1.111.927-1.181l4.56-.55 2.048-4.174c.166-.379.549-.616.961-.595zM86.2 15.1H70.45v33.6h26.918c-.89-2.74-.89-5.69 0-8.43 2.328-7.161 10.02-11.08 17.182-8.752V15.1H98.8v11.55c0 .58-.47 1.05-1.05 1.05h-10.5c-.58 0-1.05-.47-1.05-1.05V15.1zm24.283 23.413l-1.33 2.708c-.158.323-.468.543-.825.587l-2.933.354 2.22 2.17c.28.272.387.677.28 1.052L107 48.49l2.928-1.9c.352-.228.805-.228 1.157 0l2.761 1.797-.985-2.96c-.133-.398-.019-.837.29-1.12l2.358-2.154-2.917-.345c-.363-.044-.679-.271-.834-.603l-1.275-2.693zM92.95 38c.58 0 1.05.504 1.05 1.125v6.75c0 .621-.47 1.125-1.05 1.125h-18.9c-.58 0-1.05-.504-1.05-1.125v-6.75c0-.621.47-1.125 1.05-1.125zm-1.05 2.25H75.1v4.5h16.8v-4.5zM77.293 18.293c.39-.39 1.024-.39 1.414 0l4 4c.188.187.293.442.293.707 0 .552-.448 1-1 1h-1v2c0 .552-.448 1-1 1h-4c-.552 0-1-.448-1-1v-2h-1c-.265 0-.52-.105-.707-.293-.39-.39-.39-1.023 0-1.414zM96.7 15.1h-8.4v10.5h8.4V15.1zM78 20.414l-1.65 1.649c.392.146.65.52.65.937v2h2v-2c0-.417.259-.79.65-.937L78 20.413z" transform="translate(127 800)"/>
        </g>
        <g>
            <text fill="#0F0F0F" fill-opacity=".6" font-family="SEATBCN-Medium, SEAT BCN" font-size="14" font-weight="400" transform="translate(127 412)">
                <tspan x="1.447" y="110.164">Tech stack simplification</tspan>
            </text>
            <path fill="#84C497" d="M121.247 13c2.621 0 4.753 2.167 4.753 4.832v39.642c0 2.664-2.132 4.831-4.753 4.831H99.572v2.897c0 1.216.575 2.361 1.502 2.99l2.453 1.663h1.95c1.263 0 2.29 1.044 2.29 2.328v1.49c0 1.283-1.027 2.327-2.29 2.327H79.523c-1.263 0-2.29-1.044-2.29-2.328v-1.49c0-1.283 1.027-2.327 2.29-2.327h1.95l2.453-1.664c.927-.628 1.502-1.773 1.502-2.989v-2.897H63.753c-2.62 0-4.753-2.167-4.753-4.831V17.832C59 15.167 61.132 13 63.753 13zm-15.77 58.85H79.523c-.18 0-.327.15-.327.333v1.49c0 .183.147.332.327.332h25.954c.18 0 .327-.15.327-.333v-1.49c0-.183-.147-.332-.327-.332zm-7.868-9.545H87.391v2.897c0 1.903-.888 3.64-2.376 4.65l-.004.003H99.99c-1.493-1.012-2.381-2.75-2.381-4.653v-2.897zm23.638-47.31H63.753c-1.539 0-2.79 1.273-2.79 2.837v39.642c0 1.564 1.251 2.836 2.79 2.836h57.494c1.539 0 2.79-1.272 2.79-2.836V17.832c0-1.564-1.251-2.837-2.79-2.837zM120.472 17c.842 0 1.528.695 1.528 1.55v16.622c0 .551-.44.998-.984.998s-.984-.447-.984-.998V23.93H64.968v32.076h55.064V39.828c0-.551.44-.998.984-.998.543 0 .984.447.984.998V56.45c0 .854-.686 1.549-1.528 1.549H64.528C63.686 58 63 57.305 63 56.45v-37.9c0-.855.686-1.55 1.528-1.55zM76.48 45.86c1.035-1.147 2.71-1.147 3.746 0 1.032 1.144 1.032 3.005 0 4.15L77.4 53.14c-1.036 1.147-2.711 1.147-3.746 0l-1.88-2.082c-1.032-1.144-1.032-3.005 0-4.15 1.036-1.146 2.711-1.146 3.746 0l.007.008zm36.35.14c1.196 0 2.17 1.017 2.17 2.266v1.468c0 1.25-.974 2.266-2.17 2.266H86.17C84.975 52 84 50.983 84 49.734v-1.468c0-1.25.974-2.266 2.17-2.266zm-33.907 1.303c-.315-.35-.826-.35-1.141 0l-1.604 1.777c-.36.398-.943.398-1.303 0l-.657-.728c-.315-.35-.826-.35-1.14 0-.316.348-.316.915 0 1.264l1.878 2.081.083.08c.316.267.769.24 1.058-.08l2.826-3.13c.315-.35.315-.915 0-1.264zm33.906.715H86.171c-.132 0-.238.111-.238.248v1.468c0 .137.106.248.238.248h26.658c.132 0 .238-.111.238-.248v-1.468c0-.137-.106-.248-.238-.248zM76.48 35.86c1.036-1.147 2.711-1.147 3.747 0 1.032 1.144 1.032 3.005 0 4.15l-2.827 3.13c-1.035 1.147-2.71 1.147-3.745 0l-1.88-2.082c-1.032-1.144-1.032-3.005 0-4.15 1.036-1.146 2.711-1.146 3.746 0l.007.008zM112.83 37c1.197 0 2.171 1.017 2.171 2.266v1.468c0 1.25-.974 2.266-2.17 2.266H86.17C84.975 43 84 41.983 84 40.734v-1.468c0-1.25.974-2.266 2.17-2.266zm-33.906.303c-.315-.35-.826-.35-1.141 0l-1.604 1.777c-.36.398-.943.398-1.303 0l-.657-.728c-.315-.35-.826-.35-1.14 0-.316.348-.316.915 0 1.263l1.878 2.082.083.08c.316.267.769.24 1.058-.08l2.826-3.13c.315-.349.315-.916 0-1.264zm33.906 1.715H86.171c-.132 0-.238.111-.238.249v1.467c0 .137.106.248.238.248h26.658c.132 0 .238-.111.238-.248v-1.467c0-.138-.106-.249-.238-.249zM76.48 25.86c1.036-1.147 2.711-1.147 3.747 0 1.032 1.144 1.032 3.005 0 4.15l-2.827 3.13c-1.035 1.147-2.71 1.147-3.745 0l-1.88-2.082c-1.032-1.144-1.032-3.005 0-4.15 1.036-1.146 2.711-1.146 3.746 0l.007.008zM97.246 27c.534 0 .967.452.967 1.009 0 .557-.433 1.009-.967 1.009H86.171c-.132 0-.238.111-.238.248v1.468c0 .137.106.248.238.248h26.658c.132 0 .238-.111.238-.248v-1.468c0-.137-.106-.248-.238-.248h-11.074c-.534 0-.967-.452-.967-1.009 0-.557.433-1.009.967-1.009h11.074c1.197 0 2.171 1.017 2.171 2.266v1.468c0 1.25-.974 2.266-2.17 2.266H86.17C84.975 33 84 31.983 84 30.734v-1.468c0-1.25.974-2.266 2.17-2.266zm-18.322.303c-.315-.35-.826-.35-1.141 0l-1.604 1.777c-.36.398-.943.398-1.303 0l-.657-.728c-.315-.35-.826-.35-1.14 0-.316.348-.316.915 0 1.264l1.878 2.081.083.08c.316.267.769.24 1.058-.08l2.826-3.13c.315-.349.315-.916 0-1.264zm-10.014-8.308h-3.94v2.938h3.94v-2.938zm51.123 0H70.878v2.938h49.154v-2.938z" transform="translate(127 412)"/>
        </g>
        <g>
            <text fill="#0F0F0F" fill-opacity=".6" font-family="SEATBCN-Medium, SEAT BCN" font-size="14" font-weight="400" transform="translate(127 606)">
                <tspan x="49.425" y="110.164">Cloud first </tspan>
            </text>
            <path fill="#84C497" d="M93.027 41.427l14.547 14.583c.416.417.541 1.044.314 1.59-.227.545-.753.9-1.341.9h-7.273v14.583c0 1.607-1.304 2.917-2.91 2.917h-8.727c-1.606 0-2.91-1.31-2.91-2.917V58.5h-7.273c-.588 0-1.12-.355-1.344-.9-.224-.546-.099-1.173.314-1.59l14.547-14.583c.567-.57 1.49-.57 2.056 0zM92 44.52L80.966 55.584h5.216c.803 0 1.455.653 1.455 1.458v16.041h8.727v-16.04c0-.806.652-1.46 1.455-1.46h5.216L92 44.522zM92 12c8.17 0 15.695 4.545 19.405 11.648 8.814.913 15.595 8.29 15.595 17.156 0 7.72-5.238 14.546-12.734 16.597-.782.21-1.581-.24-1.794-1.005-.216-.767.24-1.562 1.015-1.772 6.239-1.705 10.596-7.39 10.596-13.82 0-7.624-6.017-13.927-13.7-14.347-.539-.03-1.014-.349-1.242-.83C106.055 19.1 99.33 14.88 92 14.88c-9.377 0-17.433 6.899-18.74 16.044-.102.709-.717 1.239-1.443 1.239-6.668 0-11.9 5.167-11.9 11.521 0 5.876 4.456 10.796 10.371 11.444.8.09 1.377.801 1.287 1.59-.082.738-.715 1.282-1.447 1.282-.056 0-.108-.003-.166-.009C62.574 57.182 57 51.03 57 43.684c0-7.61 6.005-13.857 13.58-14.367C72.598 19.362 81.596 12 92 12z" transform="translate(127 606)"/>
        </g>
        <g>
            <text fill="#0F0F0F" fill-opacity=".6" font-family="SEATBCN-Medium, SEAT BCN" font-size="14" font-weight="400" transform="translate(127 218)">
                <tspan x="1.538" y="110.164">Partner portfolio cockpit </tspan>
            </text>
            <path fill="#84C497" d="M122.687 10c2.378 0 4.313 1.926 4.313 4.292 0 1.899-1.243 3.512-2.96 4.079v4.736c0 .026-.002.05-.004.073-.038.71-.627 1.275-1.35 1.275h-11.104c1.376 2.102 2.429 4.376 3.138 6.762h3.876c.568-1.71 2.187-2.949 4.09-2.949 2.38 0 4.314 1.928 4.314 4.297 0 2.366-1.935 4.292-4.313 4.292-1.904 0-3.522-1.236-4.091-2.945h-3.232c.335 1.831.475 3.711.409 5.616 0 .383-.008.765-.024 1.146h6.937c.715 0 1.298.552 1.349 1.25.003.029.004.06.004.098v4.732c1.718.567 2.961 2.18 2.961 4.079 0 2.369-1.935 4.296-4.314 4.296-2.376 0-4.309-1.927-4.309-4.296 0-1.898 1.241-3.511 2.957-4.078v-3.386h-5.843c-.708 4.774-2.74 9.279-5.904 13.002v20.494c0 1.177-.964 2.135-2.148 2.135H77.543c-1.02 0-1.848-.716-2.111-1.825l-1.355-5.702c-.158-.669-.22-.81-1.038-.81h-3.966c-2.27 0-4.146-1.82-4.365-4.232l-1.244-13.589h-2.823c-.537-.003-1.718-.054-2.326-.982-.655-.998-.143-2.161.23-3.01l5.07-11.471c.22-4.629 1.67-9.11 4.202-12.974.409-.623 1.247-.799 1.873-.392.625.407.802 1.242.393 1.865-2.311 3.528-3.616 7.63-3.774 11.861-.007.17-.045.338-.114.493l-5.172 11.702-.092.213H64.7c.7 0 1.283.531 1.347 1.225l1.355 14.815c.081.885.68 1.781 1.671 1.781h3.966c2.013 0 3.214.944 3.671 2.887l1.296 5.45h5.733v-5.917c-1.715-.567-2.956-2.178-2.956-4.074 0-2.37 1.933-4.297 4.31-4.297 2.378 0 4.313 1.928 4.313 4.297 0 1.896-1.243 3.508-2.96 4.074v5.917h10.851V64.988c-1.717-.566-2.96-2.178-2.96-4.074 0-2.37 1.935-4.296 4.313-4.296 2.377 0 4.31 1.927 4.31 4.296 0 1.896-1.242 3.507-2.957 4.074v11.317h6.878V55.87c0-.328.12-.645.338-.891 3.785-4.28 5.862-9.774 5.848-15.47v-.051c.461-12.836-9.645-23.663-22.526-24.136-4.22-.157-8.396.823-12.079 2.833-.655.358-1.477.119-1.836-.534-.36-.653-.12-1.472.536-1.83 4.11-2.244 8.772-3.337 13.48-3.163 6.962.256 13.411 3.197 18.157 8.283.26.278.511.562.757.849h11.778v-3.39c-1.716-.567-2.957-2.18-2.957-4.078 0-2.366 1.933-4.292 4.31-4.292zM85.092 64.713c-.884 0-1.603.718-1.603 1.6 0 .881.719 1.597 1.603 1.597.887 0 1.608-.716 1.608-1.597 0-.882-.721-1.6-1.608-1.6zm13.558-5.4c-.886 0-1.607.718-1.607 1.6 0 .881.72 1.598 1.607 1.598.884 0 1.604-.717 1.604-1.597 0-.883-.72-1.601-1.604-1.601zM90.5 20c.744 0 1.348.603 1.348 1.348v5.945h3.558v-3.536c0-.744.603-1.348 1.348-1.348.744 0 1.347.604 1.347 1.348v3.536h1.257c.745 0 1.348.603 1.348 1.348v1.256h3.537c.744 0 1.347.604 1.347 1.348 0 .745-.603 1.348-1.347 1.348h-3.537v3.557h5.946c.745 0 1.348.604 1.348 1.348 0 .744-.603 1.348-1.348 1.348h-5.946v3.557h3.537c.744 0 1.347.604 1.347 1.348 0 .744-.603 1.348-1.347 1.348h-3.537v1.26c0 .744-.603 1.348-1.348 1.348h-1.257v3.532c0 .744-.603 1.348-1.347 1.348-.745 0-1.348-.604-1.348-1.348v-3.532h-3.558v5.945c0 .745-.604 1.348-1.348 1.348-.744 0-1.348-.603-1.348-1.348v-5.945h-3.558v3.532c0 .744-.603 1.348-1.348 1.348-.744 0-1.347-.604-1.347-1.348v-3.532h-1.257c-.745 0-1.348-.604-1.348-1.348V45.1h-3.537c-.744 0-1.347-.604-1.347-1.348 0-.744.603-1.348 1.347-1.348h3.537v-3.557h-5.946c-.745 0-1.348-.604-1.348-1.348 0-.744.603-1.348 1.348-1.348h5.946v-3.557h-3.537c-.744 0-1.347-.603-1.347-1.348 0-.744.603-1.348 1.347-1.348h3.537v-1.256c0-.745.603-1.348 1.348-1.348h1.257v-3.536c0-.744.603-1.348 1.347-1.348.745 0 1.348.604 1.348 1.348v3.536h3.558v-5.945c0-.745.604-1.348 1.348-1.348zm32.187 29.232c-.885 0-1.604.718-1.604 1.6 0 .884.72 1.602 1.604 1.602.886 0 1.607-.718 1.607-1.601s-.72-1.6-1.607-1.6zM98.01 29.99H82.989v15.023h15.022V29.989zm24.676.975c-.885 0-1.604.718-1.604 1.6 0 .881.72 1.598 1.604 1.598.886 0 1.607-.717 1.607-1.597 0-.883-.72-1.601-1.607-1.601zM71.439 19.44c.585-.585 1.536-.587 2.121-.002.585.586.587 1.533.002 2.119-.296.297-.68.443-1.063.443-.384 0-.768-.146-1.06-.44-.585-.585-.585-1.534 0-2.12zm51.248-6.745c-.885 0-1.604.717-1.604 1.597 0 .883.72 1.601 1.604 1.601.886 0 1.607-.718 1.607-1.6 0-.881-.72-1.598-1.607-1.598z" transform="translate(127 218)"/>
        </g>
        <text fill="#84C497" font-family="SEATBCN-Black, SEAT BCN" font-size="30" font-weight="700">
            <tspan x="454" y="961">Añade tu equipaje</tspan>
        </text>
    </g>
</svg>
