<svg xmlns="http://www.w3.org/2000/svg" width="1366" height="814" viewBox="0 0 1366 814">
    <g fill="none" fill-rule="evenodd">
        <path fill="#FFF" d="M0 0H1366V814H0z"/>
        <text fill="#33302E" font-family="SEATBCN-Bold, SEAT BCN" font-size="20" font-weight="bold">
            <tspan x="131" y="281">Shall we plan this path together? Before starting this journey, we will keep these 3 transversal </tspan> <tspan x="131" y="319">pillars that will give sense to our route. </tspan>
        </text>
        <text fill="#0F0F0F" font-family="SEATBCN-Black, SEAT BCN" font-size="68" font-weight="700">
            <tspan x="133" y="212">Starting point!</tspan>
        </text>
        <text fill="#000" font-family="SEATBCN-Bold, SEAT BCN" font-size="24" font-weight="bold">
            <tspan x="137.392" y="613">Gobernance/</tspan> <tspan x="173.896" y="648">Culture</tspan>
        </text>
        <text fill="#000" font-family="SEATBCN-Bold, SEAT BCN" font-size="24" font-weight="bold">
            <tspan x="634.16" y="613">Delivery/</tspan> <tspan x="646.688" y="648">Quality</tspan>
        </text>
        <text fill="#000" font-family="SEATBCN-Bold, SEAT BCN" font-size="24" font-weight="bold">
            <tspan x="1037.956" y="613">Transformation/</tspan> <tspan x="1074.028" y="648">Innovation </tspan>
        </text>
        <path fill="#242528" d="M1202.886 506.022c3.339-8.257 5.05-16.993 5.05-26.022 0-34.969-26.342-64.558-60.388-68.386V401l-13.818 10.497c-34.64 3.221-61.665 33.154-61.665 68.503 0 2.857.21 5.721.558 8.547-6.454 5.138-10.623 13.094-10.623 22.034 0 10.866 6.15 20.287 15.097 24.938v10.74c0 4.214 3.386 7.644 7.548 7.644h10.065c4.161 0 7.548-3.43 7.548-7.645v-9.1c11.184 7.6 24.15 11.648 37.742 11.648h28.988c5.08 6.221 12.757 10.194 21.335 10.194 15.26 0 27.677-12.576 27.677-28.032 0-10.874-6.157-20.298-15.114-24.946zm-58.042-89.546c32.556 2.508 58.06 30.413 58.06 63.524 0 8.369-1.588 16.465-4.683 24.113-2.504-.757-5.153-1.178-7.898-1.178-.901 0-1.792.051-2.67.138 3.387-7.171 5.186-15.04 5.186-23.073 0-27.632-20.446-50.527-47.558-53.251l-2.765-.278v5.11l-13.418-10.194 13.418-10.193v5.101l2.328.181zm17.93 111.943H1140c-8.809 0-17.324-2.446-24.784-7.043 1.374-3.326 2.139-6.97 2.139-10.795 0-.862-.053-1.708-.128-2.549h50.45v-50.967h-15.096v45.87h-5.033v-35.677h-15.096v35.677h-5.033v-25.483h-15.096v17.061c-4.534-6.534-11.736-11.032-19.999-11.83-.047-.897-.13-1.791-.13-2.683 0-24.831 18.163-45.318 42.386-48.078l12.968 9.852v-9.597c23.139 3.687 40.258 23.771 40.258 47.823 0 8.662-2.294 17.118-6.604 24.533-10.027 3.56-17.437 12.788-18.429 23.886zm-45.42-25.484v-20.387h5.033v20.387h-5.032zm25.162 0h-5.032v-30.58h5.032v30.58zm15.097 0v-40.774h5.032v40.774h-5.032zM1077.097 480c0-29.52 20.358-54.959 47.88-61.854l-4.268 3.241 8.28 6.292c-24.22 5.138-41.828 26.623-41.828 52.321 0 .887.086 1.779.131 2.67-3.548.31-6.897 1.305-9.936 2.847-.156-1.835-.26-3.677-.26-5.517zm-10.065 30.58c0-12.644 10.16-22.935 22.645-22.935s22.646 10.29 22.646 22.936c0 9.961-6.316 18.437-15.097 21.597v-16.97c.79.286 1.63.47 2.516.47 4.162 0 7.548-3.43 7.548-7.646 0-4.215-3.386-7.645-7.548-7.645-3.276 0-6.044 2.138-7.085 5.097h-5.961c-1.04-2.959-3.807-5.097-7.083-5.097-4.162 0-7.548 3.43-7.548 7.645s3.386 7.645 7.548 7.645c.886 0 1.726-.183 2.516-.468v16.97c-8.781-3.16-15.097-11.637-15.097-21.598zm20.13 0h5.032v22.786c-.828.094-1.666.15-2.517.15-.85 0-1.688-.056-2.516-.15V510.58zm10.064-2.548c0-1.404 1.13-2.548 2.516-2.548 1.386 0 2.516 1.144 2.516 2.548 0 1.404-1.13 2.549-2.516 2.549-1.386 0-2.516-1.145-2.516-2.549zm-15.097 0c0 1.404-1.13 2.549-2.516 2.549-1.386 0-2.516-1.145-2.516-2.549s1.13-2.548 2.516-2.548c1.386 0 2.516 1.144 2.516 2.548zm12.58 40.774h-10.064c-1.386 0-2.516-1.144-2.516-2.548v-8.73c2.403.69 4.93 1.085 7.548 1.085 2.62 0 5.146-.395 7.549-1.086v8.731c0 1.404-1.13 2.548-2.516 2.548zM1140 543.71c-12.316 0-24.08-3.583-34.282-10.329 2.808-2.034 5.228-4.574 7.123-7.505 8.192 4.987 17.517 7.64 27.159 7.64h22.773c.328 3.644 1.352 7.082 2.93 10.194H1140zm37.913 6.42l.765-6.204c.732-5.935 5.74-10.41 11.645-10.41 5.905 0 10.912 4.475 11.644 10.41l.765 6.203c-3.568 2.38-7.828 3.774-12.41 3.774-4.581 0-8.841-1.394-12.409-3.774zm7.377-26.807c0-2.811 2.257-5.097 5.033-5.097 2.775 0 5.032 2.286 5.032 5.097 0 2.81-2.257 5.096-5.032 5.096-2.776 0-5.033-2.286-5.033-5.096zm22.014 22.767l-.345-2.793c-.717-5.823-4.317-10.663-9.234-13.124 1.638-1.815 2.662-4.205 2.662-6.85 0-5.622-4.514-10.194-10.064-10.194-5.551 0-10.065 4.572-10.065 10.194 0 2.645 1.024 5.035 2.66 6.847-4.917 2.462-8.515 7.301-9.235 13.124l-.344 2.793c-3.51-4.039-5.662-9.324-5.662-15.12 0-12.644 10.16-22.935 22.646-22.935 12.485 0 22.645 10.29 22.645 22.936 0 5.795-2.152 11.08-5.664 15.122z"/>
        <g fill="#000" fill-rule="nonzero">
            <path d="M57 49v-5c-11.028 0-20 8.972-20 20h5c0-8.273 6.727-15 15-15z" transform="translate(611 400)"/>
            <path d="M154.178 0H91.6c-4.312 0-7.822 3.497-7.822 7.793v6.469c-4.185-1.5-8.815-1.14-12.716 1.008-2.767-4.575-7.783-7.477-13.488-7.477-5.489 0-10.469 2.902-13.23 7.48-4.69-2.593-10.456-2.622-15.206.111l-.23.133c-4.75 2.732-7.606 7.725-7.702 13.064-5.358.096-10.37 2.94-13.113 7.674l-.133.228c-2.743 4.733-2.706 10.48-.112 15.15C3.254 54.388.342 59.347.342 64.814v.261c0 5.469 2.912 10.43 7.506 13.182-2.597 4.67-2.63 10.414.112 15.15l.133.228c2.746 4.734 7.757 7.578 13.113 7.674.029 1.59.331 3.138.824 4.617L0 141.743l24.517-6.108 6.115 24.362 23.052-38.436c1.324.35 2.714.535 4.15.535 1.34 0 2.65-.18 3.906-.507L84.777 160l6.114-24.362 24.517 6.107-22.03-35.818c.496-1.478.796-3.026.825-4.616 5.36-.096 10.372-2.94 13.112-7.674l.133-.229c2.746-4.733 2.71-10.479.112-15.15 3.864-2.317 6.513-6.216 7.267-10.713h39.35c4.313 0 7.823-3.497 7.823-7.793V7.793C162 3.497 158.49 0 154.178 0zm-28.682 10.391v5.196h-5.214V10.39h-5.215v5.196h-5.215V5.196h26.074v10.39h-5.215v-5.195h-5.215zM83.778 47.75C78.17 39.336 68.582 33.77 57.704 33.77c-17.253 0-31.288 13.984-31.288 31.174 0 17.19 14.035 31.173 31.288 31.173 16.547 0 30.097-12.87 31.182-29.087.85.314 1.757.511 2.714.511h2.475c-1.346 18.842-17.123 33.772-36.37 33.772-20.13 0-36.504-16.315-36.504-36.37 0-20.054 16.374-36.368 36.503-36.368 9.799 0 19.232 4.005 26.074 10.97v8.204zm0 17.195c0 14.324-11.697 25.977-26.074 25.977-14.377 0-26.074-11.653-26.074-25.977 0-14.325 11.697-25.978 26.074-25.978 14.377 0 26.074 11.653 26.074 25.978zm-51.15 81.593l-4.314-17.202-17.201 4.284 13.86-22.536c1.106 1.28 2.412 2.41 3.938 3.289l.23.132c4.75 2.73 10.52 2.697 15.208.112 1.16 1.92 2.735 3.522 4.574 4.761l-16.294 27.16zm71.668-12.916l-17.201-4.284-4.315 17.203-16.281-27.142c1.825-1.241 3.4-2.85 4.566-4.78 4.688 2.585 10.453 2.619 15.206-.111l.23-.133c1.525-.878 2.83-2.008 3.936-3.289l13.859 22.536zm-1.479-58.876L99.1 75.993l2.595 2.933c2.936 3.317 3.43 8.092 1.238 11.88l-.133.228c-2.195 3.785-6.576 5.752-10.946 4.87l-3.846-.77.775 3.831c.876 4.336-1.088 8.718-4.89 10.906l-.229.132c-3.799 2.185-8.596 1.689-11.923-1.234l-2.944-2.585-1.251 3.705c-1.419 4.195-5.32 7.011-9.971 7.011-4.394 0-8.294-2.816-9.71-7.009l-1.252-3.704-2.943 2.585c-3.327 2.925-8.12 3.424-11.924 1.234l-.23-.133c-3.801-2.187-5.764-6.57-4.888-10.905l.774-3.832-3.846.772c-4.36.878-8.75-1.084-10.946-4.871l-.133-.229c-2.195-3.787-1.697-8.562 1.239-11.88l2.594-2.932-3.718-1.247c-4.208-1.414-7.035-5.3-7.035-9.675v-.262c0-4.375 2.827-8.26 7.035-9.671l3.718-1.247-2.594-2.933c-2.933-3.318-3.431-8.092-1.239-11.88l.133-.229c2.196-3.787 6.605-5.748 10.946-4.87l3.846.771-.774-3.832c-.879-4.338 1.087-8.72 4.889-10.905l.229-.133c3.804-2.19 8.594-1.69 11.924 1.234l2.943 2.585 1.252-3.704c1.418-4.193 5.319-7.01 9.97-7.01 4.394 0 8.295 2.817 9.71 7.01l1.252 3.704 2.944-2.585c3.335-2.92 8.127-3.418 11.923-1.234l.115.068v12.623c-7.358-5.869-16.56-9.194-26.074-9.194-23.002 0-41.718 18.647-41.718 41.565 0 22.917 18.716 41.564 41.718 41.564 22.124 0 40.23-17.26 41.586-38.967h10.223c-.84 3.313-3.303 6.069-6.696 7.204zm53.968-14.997c0 1.434-1.168 2.598-2.607 2.598H91.6c-1.439 0-2.607-1.164-2.607-2.598V7.793c0-1.434 1.168-2.597 2.607-2.597h13.037v15.586h36.504V5.196h13.037c1.44 0 2.607 1.163 2.607 2.597V59.75z" transform="translate(611 400)"/>
            <path d="M136 52L141 52 141 57 136 57zM146 52L151 52 151 57 146 57zM126 52L131 52 131 57 126 57zM125 41L152 41 152 46 125 46zM53.672 76.88L47.689 71.107 44 74.667 53.672 84 79 59.56 75.311 56z" transform="translate(611 400)"/>
        </g>
        <g fill="#000" fill-rule="nonzero">
            <path d="M106 21.333v-2.666C105.988 8.362 97.69.012 87.45 0h-15.9C61.31.012 53.012 8.362 53 18.667v2.666c.005.707.28 1.385.769 1.894l3.524 3.546C54.803 27.258 53.005 29.45 53 32v2.667c.009 2.942 2.377 5.324 5.3 5.333h2.862c.734 5.108 3.535 9.683 7.738 12.64V60l-9.54 7.2c-.826.637-1.218 1.694-1.007 2.72l5.3 24c.287 1.212 1.359 2.07 2.597 2.08h26.5c1.238-.01 2.31-.868 2.597-2.08l5.3-24c.21-1.026-.18-2.083-1.007-2.72L90.1 60v-7.36c4.203-2.957 7.004-7.532 7.738-12.64h2.862c2.923-.009 5.291-2.391 5.3-5.333V32c-.005-2.551-1.804-4.742-4.293-5.227l3.525-3.546c.488-.509.763-1.187.768-1.894zM60.95 34.667H58.3V32h2.65v2.667zm34.132 35.76l-4.452 20.24H68.37l-4.452-20.24 9.222-6.96c.663-.508 1.054-1.296 1.06-2.134v-6.106c3.46 1.03 7.14 1.03 10.6 0v6.106c.006.838.397 1.626 1.06 2.134l9.222 6.96zM92.75 37.333c0 7.364-5.932 13.334-13.25 13.334s-13.25-5.97-13.25-13.334V22.987l8.268-4.16 18.232 4.586v13.92zm7.95-2.666h-2.65V32h2.65v2.667zm0-14.427l-2.65 2.667v-1.574c0-1.225-.832-2.292-2.014-2.586l-21.2-5.334c-.615-.156-1.265-.08-1.829.214l-10.6 5.333c-.9.44-1.469 1.365-1.457 2.373v1.574L58.3 20.24v-1.573c0-7.364 5.932-13.334 13.25-13.334h15.9c7.318 0 13.25 5.97 13.25 13.334v1.573zM53 80.907v-3.574C53 69.97 47.068 64 39.75 64h-26.5C5.932 64 0 69.97 0 77.333v3.574c-.008 3.539 1.384 6.935 3.87 9.44l.423.426C1.804 91.258.005 93.45 0 96v2.667c.009 2.942 2.377 5.324 5.3 5.333h2.862c.734 5.108 3.535 9.683 7.738 12.64V124l-9.54 7.2c-.826.637-1.218 1.694-1.007 2.72l5.3 24c.287 1.212 1.359 2.07 2.597 2.08h26.5c1.238-.01 2.31-.868 2.597-2.08l5.3-24c.21-1.026-.18-2.083-1.007-2.72L37.1 124v-7.36c4.203-2.957 7.004-7.532 7.738-12.64H47.7c2.923-.009 5.291-2.391 5.3-5.333V96c-.005-2.551-1.804-4.742-4.293-5.227l.424-.426c2.485-2.505 3.877-5.901 3.869-9.44zM7.95 98.667H5.3V96h2.65v2.667zm34.132 35.76l-4.452 20.24H15.37l-4.452-20.24 9.222-6.96c.663-.508 1.054-1.296 1.06-2.134v-6.106c3.46 1.03 7.14 1.03 10.6 0v6.106c.006.838.397 1.626 1.06 2.134l9.222 6.96zm-2.332-33.094c0 7.364-5.932 13.334-13.25 13.334s-13.25-5.97-13.25-13.334V86.987l8.268-4.16 18.232 4.586v13.92zm7.95-2.666h-2.65V96h2.65v2.667zm0-17.76c-.002 2.12-.84 4.154-2.332 5.653l-.318.347v-1.574c-.001-1.225-.832-2.292-2.014-2.586l-21.2-5.334c-.615-.156-1.265-.08-1.828.214l-10.6 5.333c-.902.44-1.47 1.365-1.458 2.373v1.574l-.318-.347c-1.491-1.499-2.33-3.532-2.332-5.653v-3.574c.013-4.412 3.565-7.986 7.95-8h26.5c4.385.014 7.937 3.588 7.95 8v3.574zM95.357 107H63.643c-1.46 0-2.643 1.183-2.643 2.643v31.714c0 1.46 1.183 2.643 2.643 2.643h31.714c1.46 0 2.643-1.183 2.643-2.643v-31.714c0-1.46-1.183-2.643-2.643-2.643zm-2.643 31.714H66.286v-26.428h26.428v26.428zM120.63 53h31.713c.918.005 1.773-.469 2.258-1.251.485-.782.53-1.761.12-2.586l-15.856-31.815C138.368 16.512 137.47 16 136.5 16c-.97 0-1.868.512-2.365 1.348l-15.856 31.815c-.409.82-.366 1.794.113 2.575.478.78 1.325 1.258 2.239 1.262zm15.857-28.539l11.58 23.236h-23.16l11.58-23.236zM23.5 53C33.717 53 42 44.717 42 34.5S33.717 16 23.5 16 5 24.283 5 34.5c.012 10.212 8.288 18.488 18.5 18.5zm0-31.714c7.298 0 13.214 5.916 13.214 13.214S30.798 47.714 23.5 47.714 10.286 41.798 10.286 34.5c.008-7.294 5.92-13.206 13.214-13.214z" transform="translate(140 400)"/>
            <path d="M73 27H78V32H73zM82 27H87V32H82zM19 91H24V96H19zM29 91H34V96H29zM160 72.29V61.657c0-1.468-1.186-2.658-2.65-2.658h-31.8c-10.24.012-18.538 8.335-18.55 18.605v5.316c.013 4.398 3.565 7.96 7.95 7.974h-2.65c-2.923.008-5.291 2.383-5.3 5.316v2.657c.009 2.933 2.377 5.307 5.3 5.316h2.862c.734 5.091 3.535 9.651 7.738 12.599v7.335l-9.54 7.177c-.826.635-1.218 1.688-1.007 2.71l5.3 23.922c.287 1.208 1.359 2.064 2.597 2.073h26.5c1.238-.01 2.31-.865 2.597-2.073l5.3-23.921c.21-1.023-.18-2.076-1.007-2.711l-9.54-7.177v-7.335c4.203-2.948 7.004-7.508 7.738-12.599h2.862c2.923-.009 5.291-2.383 5.3-5.316v-2.657c-.009-2.933-2.377-5.308-5.3-5.316h-2.65v-3.402c4.969-3.46 7.937-9.137 7.95-15.204zm-45.05 26.578h-2.65v-2.657h2.65v2.657zm34.132 35.643l-4.452 20.173h-22.26l-4.452-20.173 9.222-6.937c.663-.506 1.054-1.291 1.06-2.127v-6.086c3.46 1.027 7.14 1.027 10.6 0v6.086c.006.836.397 1.62 1.06 2.127l9.222 6.937zm-2.332-32.985c0 7.34-5.932 13.29-13.25 13.29s-13.25-5.95-13.25-13.29v-14.3l8.268-4.145 18.232 4.571v13.874zm7.95-5.315v2.657h-2.65v-2.657h2.65zm-5.247-13.37l-20.617-5.156c-.615-.157-1.266-.082-1.829.213l-10.6 5.315c-.9.44-1.469 1.361-1.457 2.366-1.464 0-2.65-1.19-2.65-2.658v-5.316c0-7.34 5.932-13.29 13.25-13.29h29.15v7.974c-.01 4.147-1.95 8.05-5.247 10.552z" transform="translate(140 400)"/>
            <path d="M126 91H131V96H126zM136 91H141V96H136z" transform="translate(140 400)"/>
        </g>
    </g>
</svg>
