<svg xmlns="http://www.w3.org/2000/svg" width="1366" height="1205" viewBox="0 0 1366 1205">
    <g fill="none" fill-rule="evenodd">
        <path fill="#FFF" d="M0 0H1366V1205H0z"/>
        <g>
            <text fill="#FFF" fill-opacity="0" stroke="#DC79A2" font-family="SEATBCN-Black, SEAT BCN" font-size="231" font-weight="700" letter-spacing="-6.6" transform="translate(127 128)">
                <tspan x="0" y="286">03</tspan>
            </text>
            <path fill="#EB71A3" d="M369 258c8.284 0 15-6.716 15-15 0-8.284-6.716-15-15-15-8.284 0-15 6.716-15 15 0 8.284 6.716 15 15 15z" transform="translate(127 128)"/>
            <text fill="#33302E" font-family="SEATBCN-Bold, SEAT BCN" font-size="20" font-weight="bold" transform="translate(127 128)">
                <tspan x="0" y="640">There is no path without obstacles, and if there are, they will help you learn. </tspan> <tspan x="0" y="678">Whatever path you choose, it will always successful. </tspan> <tspan x="0" y="716"> Our mission is to guide and focus our purpose towards continuous </tspan> <tspan x="0" y="754">improvement. </tspan>
            </text>
            <text fill="#0F0F0F" font-family="SEATBCN-Black, SEAT BCN" font-size="68" font-weight="700" transform="translate(127 128)">
                <tspan x="1" y="448">Begin the </tspan> <tspan x="1" y="546">exploration! </tspan>
            </text>
            <text fill="#0F0F0F" font-family="SEATBCN-Black, SEAT BCN" font-size="30" font-weight="700" opacity=".396" transform="translate(127 128)">
                <tspan x="1" y="350">RETHINK</tspan>
            </text>
        </g>
        <text fill="#EB71A3" font-family="SEATBCN-Black, SEAT BCN" font-size="30" font-weight="700">
            <tspan x="127" y="961">Choose your way!</tspan>
        </text>
        <g>
            <text fill="#0F0F0F" fill-opacity=".6" font-family="SEATBCN-Medium, SEAT BCN" font-size="14" font-weight="400" transform="translate(1060 815)">
                <tspan x="6.55" y="110.164">Anticipación de futuro/ </tspan> <tspan x="33.248" y="128.164">autotech radar</tspan>
            </text>
            <path fill="#CF7FA1" d="M94.92 9.053c7.108-.456 13.881 2.03 19.053 6.989 5.1 4.89 8.027 11.789 8.027 18.926 0 8.727-4.264 16.82-11.406 21.65-1.617 1.093-2.908 2.584-3.8 4.318h3.032v2.258h-3.904c-.21.73-.367 1.482-.445 2.258h2.135v2.258H105.4v3.387c0 .624-.496 1.129-1.107 1.129h-1.107c0 3.736-2.978 6.774-6.64 6.774-3.662 0-6.64-3.038-6.64-6.774h-1.107c-.61 0-1.107-.505-1.107-1.13V67.71h-2.213v-2.258h2.126c-.087-.777-.26-1.527-.474-2.258h-3.866v-2.258h2.983c-.904-1.753-2.202-3.263-3.828-4.371-7.36-5.017-11.591-13.4-11.315-22.423l2.212.07c-.251 8.24 3.61 15.893 10.332 20.476 2.254 1.535 3.963 3.721 5.026 6.248h15.696c1.049-2.509 2.751-4.679 5-6.2 6.523-4.41 10.417-11.799 10.417-19.768 0-6.612-2.604-12.75-7.33-17.281-4.723-4.527-10.905-6.792-17.4-6.38zm6.052 63.173h-8.854c0 2.49 1.986 4.516 4.427 4.516 2.442 0 4.427-2.025 4.427-4.516zm2.213-4.516h-13.28v2.258h13.28V67.71zm.424-4.516H89.44c.182.734.301 1.49.375 2.258h13.448c.066-.766.168-1.525.345-2.258zm-12.417-48.74c2.451 0 4.444 2.04 4.444 4.546v31.818c0 2.507-1.993 4.546-4.444 4.546-1.759 0-3.269-1.059-3.989-2.579-.489.189-1.013.306-1.567.306-2.45 0-4.444-2.039-4.444-4.546 0-.533.107-1.04.273-1.515-2.1-.812-3.606-2.873-3.606-5.303 0-.935.243-1.805.637-2.585-1.667-.656-2.86-2.299-2.86-4.233 0-1.934 1.193-3.577 2.86-4.232-.394-.78-.637-1.65-.637-2.586 0-2.43 1.505-4.49 3.606-5.302-.166-.476-.273-.982-.273-1.516 0-2.507 1.993-4.546 4.444-4.546.554 0 1.078.117 1.567.306.72-1.52 2.23-2.578 3.989-2.578zm10.707 0c1.759 0 3.269 1.06 3.99 2.579.488-.189 1.012-.306 1.566-.306 2.45 0 4.444 2.04 4.444 4.546 0 .534-.106 1.04-.273 1.516 2.1.811 3.606 2.873 3.606 5.302 0 .935-.243 1.806-.636 2.586 1.667.655 2.859 2.298 2.859 4.232 0 1.934-1.192 3.577-2.86 4.233.394.78.637 1.65.637 2.585 0 2.43-1.505 4.491-3.606 5.303.167.476.273.982.273 1.515 0 2.507-1.993 4.546-4.444 4.546-.554 0-1.078-.117-1.567-.306-.72 1.52-2.23 2.579-3.989 2.579-2.451 0-4.444-2.039-4.444-4.546V19c0-2.506 1.993-4.545 4.444-4.545zm-10.707 2.273c-1.023 0-1.878.715-2.135 1.679.63.784 1.024 1.775 1.024 2.867h-2.222c0-1.254-.997-2.273-2.223-2.273-1.225 0-2.222 1.02-2.222 2.273 0 1.253.997 2.272 2.222 2.272v2.273c-1.082 0-2.062-.413-2.833-1.072-1.547.294-2.722 1.68-2.722 3.345 0 1.88 1.496 3.409 3.333 3.409 1.838 0 3.333-1.53 3.333-3.41h2.223c0 3.134-2.492 5.683-5.556 5.683-1.255 0-2.402-.444-3.333-1.166v.03c-1.226 0-2.222 1.019-2.222 2.272 0 1.254.996 2.273 2.222 2.273v.03c.93-.722 2.078-1.167 3.333-1.167 3.064 0 5.556 2.55 5.556 5.682h-2.223c0-1.88-1.495-3.409-3.333-3.409-1.837 0-3.333 1.53-3.333 3.41 0 1.666 1.175 3.05 2.722 3.345.771-.66 1.751-1.073 2.833-1.073v2.273c-1.225 0-2.222 1.019-2.222 2.272 0 1.254.997 2.273 2.222 2.273 1.226 0 2.223-1.02 2.223-2.273h2.222c0 1.093-.395 2.083-1.024 2.867.257.964 1.112 1.679 2.135 1.679 1.226 0 2.222-1.02 2.222-2.273V19c0-1.253-.996-2.273-2.222-2.273zm10.707 0c-1.226 0-2.222 1.02-2.222 2.273v31.818c0 1.254.996 2.273 2.222 2.273 1.023 0 1.878-.715 2.135-1.679-.63-.784-1.024-1.774-1.024-2.867h2.222c0 1.254.997 2.273 2.223 2.273 1.225 0 2.222-1.02 2.222-2.273 0-1.253-.997-2.272-2.222-2.272V44c1.082 0 2.062.414 2.833 1.073 1.546-.295 2.722-1.68 2.722-3.346 0-1.88-1.495-3.409-3.333-3.409s-3.334 1.53-3.334 3.41h-2.222c0-3.133 2.493-5.683 5.556-5.683 1.255 0 2.402.445 3.333 1.167v-.03c1.226 0 2.222-1.02 2.222-2.273 0-1.253-.996-2.273-2.222-2.273v-.029c-.93.722-2.078 1.166-3.333 1.166-3.063 0-5.556-2.549-5.556-5.682h2.222c0 1.88 1.496 3.409 3.334 3.409s3.333-1.53 3.333-3.41c0-1.665-1.176-3.05-2.722-3.344-.771.659-1.751 1.072-2.833 1.072v-2.273c1.225 0 2.222-1.019 2.222-2.272 0-1.254-.997-2.273-2.222-2.273-1.226 0-2.223 1.02-2.223 2.273h-2.222c0-1.092.395-2.083 1.024-2.867-.257-.964-1.112-1.679-2.135-1.679zm-33.08 3.182c.627 0 1.136.508 1.136 1.136 0 2.507 2.038 4.546 4.545 4.546.628 0 1.136.508 1.136 1.136 0 .629-.508 1.137-1.136 1.137-2.507 0-4.545 2.039-4.545 4.545 0 .629-.51 1.136-1.137 1.136s-1.136-.507-1.136-1.136c0-2.506-2.039-4.545-4.546-4.545-.627 0-1.136-.508-1.136-1.137 0-.628.51-1.136 1.136-1.136 2.507 0 4.546-2.039 4.546-4.546 0-.628.51-1.136 1.136-1.136zm0 4.901c-.506.76-1.159 1.413-1.918 1.917.76.505 1.413 1.158 1.917 1.917.505-.759 1.158-1.412 1.917-1.917-.759-.505-1.412-1.158-1.917-1.917zM75.181 9c.627 0 1.136.508 1.136 1.136 0 2.507 2.039 4.546 4.546 4.546.627 0 1.136.508 1.136 1.136 0 .629-.509 1.137-1.136 1.137-2.507 0-4.546 2.039-4.546 4.545 0 .629-.509 1.136-1.136 1.136-.627 0-1.137-.507-1.137-1.136 0-2.506-2.038-4.545-4.545-4.545-.627 0-1.136-.508-1.136-1.137 0-.628.509-1.136 1.136-1.136 2.507 0 4.545-2.039 4.545-4.546 0-.628.51-1.136 1.137-1.136zm0 4.901c-.505.76-1.158 1.413-1.917 1.917.759.505 1.412 1.158 1.917 1.917.505-.759 1.158-1.412 1.917-1.917-.76-.504-1.412-1.158-1.917-1.917z" transform="translate(1060 815)"/>
        </g>
        <g>
            <text fill="#0F0F0F" fill-opacity=".6" font-family="SEATBCN-Medium, SEAT BCN" font-size="14" font-weight="400" transform="translate(1060 425)">
                <tspan x="4.275" y="110.164">Learning together: pills, </tspan> <tspan x="47.115" y="128.164">talks, PoCs </tspan>
            </text>
            <path fill="#CF7FA1" d="M92.5 7c3.178 0 5.991 2.112 6.956 5.223.964 3.112-.141 6.506-2.734 8.394l.45 2.638h28.178c2.013.006 3.644 1.681 3.65 3.75V67c-.006 2.069-1.637 3.744-3.65 3.75H97.367v3.75h7.3c.672 0 1.216.56 1.216 1.25v5c0 .69-.544 1.249-1.216 1.249H80.333c-.672 0-1.216-.56-1.216-1.25v-5c0-.69.544-1.25 1.216-1.25h7.3v-3.75H59.65c-2.013-.005-3.644-1.68-3.65-3.749V28.254c0-2.76 2.179-5 4.867-5h26.961l.45-2.637c-2.593-1.888-3.698-5.282-2.734-8.394C86.51 9.113 89.322 7 92.5 7zm10.95 70h-21.9v2.5h21.9V77zm-8.517-6.25h-4.866v3.75h4.866v-3.75zm31.634-4.999H58.433v1.25c0 .69.545 1.25 1.217 1.25h65.7c.672 0 1.217-.56 1.217-1.25v-1.25zm-1.217-39.996H60.867c-1.343.004-2.43 1.12-2.434 2.5v34.997h68.134V27.004c0-.69-.545-1.25-1.217-1.25zM124.778 27c.675 0 1.222.56 1.222 1.25v32.5c0 .69-.547 1.25-1.222 1.25H61.222C60.547 62 60 61.44 60 60.75v-32.5c0-.69.547-1.25 1.222-1.25zm-34.98 25.675l-1.834 3.037c-.17.3-.46.51-.794.575-.333.077-.682 0-.953-.212L84.053 54.5H81.39l-3.3 4.5c-.23.315-.593.5-.978.5h12.723l2.616-4.8-2.652-2.025zM72.833 54.5H71c-2.023.006-3.66 1.681-3.667 3.75v1.25h9.778c-.385 0-.747-.185-.978-.5l-3.3-4.5zm50.723-25H62.444v30h2.445v-1.25c0-3.452 2.736-6.25 6.111-6.25h1.442l.501-2.588c-1.98-1.398-3.162-3.701-3.165-6.162V39.5h-2.445c-.675 0-1.222-.56-1.222-1.25 0-4.142 3.283-7.5 7.333-7.5 1.464-.001 2.893.457 4.095 1.312.263-.038.528-.06.794-.062 1.621 0 3.175.658 4.322 1.83 1.146 1.173 1.79 2.762 1.79 4.42v5c-.003 2.46-1.186 4.764-3.166 6.162L81.78 52h2.664c.256-.004.505.08.71.237l1.417 1.025 2.823-4.7c.884-1.464 2.57-2.204 4.217-1.85l4.412-9.025 2.176 1.125-4.461 9.125c.42.444.73.984.904 1.575.333 1.066.218 2.225-.318 3.2l-3.69 6.788h30.922v-30zm-45.223 25H75.89l1.222 1.662 1.222-1.662zM120 51v3h-19v-3h19zm-26.487-1.713c-.722-.376-1.606-.12-2.029.588l-.403.662 2.567 1.95.538-.987c.204-.383.248-.835.121-1.252-.126-.417-.413-.763-.794-.96zm-14.52 1.2c-1.231.35-2.533.35-3.764 0L74.936 52h4.35zM120 47v3h-19v-3h19zm-38-7.5h-9.778v3.75c0 2.761 2.19 5 4.89 5 2.7 0 4.888-2.239 4.888-5V39.5zm27 2.5v3h-8v-3h8zm11 0v3h-10v-3h10zm-14-6v3h-5v-3h5zm14 0v3h-12v-3h12zm-43.524-1.638c-1.286-1.07-3.016-1.393-4.589-.86-1.572.535-2.769 1.854-3.173 3.498h13.078c-.522-1.496-1.906-2.496-3.459-2.5-.275.005-.55.038-.819.1-.363.087-.746 0-1.038-.238zM111 32v3h-10v-3h10zm9 0v3h-8v-3h8zM94.447 21.73c-1.274.366-2.62.366-3.894 0l-.255 1.525h4.404zM92.5 9.506c-2.688 0-4.867 2.238-4.867 5 0 2.76 2.18 4.999 4.867 4.999 2.688 0 4.867-2.238 4.867-5 0-2.76-2.18-5-4.867-5zM93 11c2.21 0 4 1.79 4 4s-1.79 4-4 4-4-1.79-4-4 1.79-4 4-4zm0 2.667c-.736 0-1.333.597-1.333 1.333s.597 1.333 1.333 1.333 1.333-.597 1.333-1.333-.597-1.333-1.333-1.333z" transform="translate(1060 425)"/>
        </g>
        <g>
            <text fill="#0F0F0F" fill-opacity=".6" font-family="SEATBCN-Medium, SEAT BCN" font-size="14" font-weight="400" transform="translate(1060 620)">
                <tspan x="2.567" y="110.164">Introduce new business-</tspan> <tspan x="7.18" y="128.164">oriented tech solutions</tspan>
            </text>
            <path fill="#CF7FA1" d="M92.444 11c3.03-.03 5.513 2.37 5.543 5.36v2.67c.987-.812 2.23-1.256 3.515-1.256 3.03.002 5.484 2.425 5.483 5.414v7.93c1.336-1.42 3.308-2.195 5.788-2.195 5.139 0 6.99 3.265 7.882 4.834l.21.362c.062.106.104.223.123.345.084.533-.286 1.031-.825 1.114-3.891.594-4.182 2.372-4.182 5.016v13.24C115.981 66.628 105.47 77 92.501 77c-12.97 0-23.482-10.372-23.482-23.166V40.411c-.016-2.543-.383-4.253-4.182-4.833-.124-.02-.243-.061-.351-.124-.47-.274-.626-.873-.349-1.336.065-.11.134-.23.21-.363.89-1.568 2.742-4.832 7.88-4.832 2.48 0 4.452.777 5.789 2.197v-7.932c-.001-1.267.449-2.494 1.271-3.468 1.94-2.295 5.399-2.604 7.726-.69v-2.67c.03-2.948 2.444-5.33 5.431-5.36zm.103 1.94c-1.938-.024-3.53 1.507-3.554 3.42v22.597c0 .538-.443.975-.989.975s-.989-.437-.989-.975v-15.77c-.024-1.877-1.561-3.394-3.465-3.418-1.938-.024-3.53 1.506-3.554 3.419V42.3c0 .539-.443.976-.989.976s-.989-.437-.989-.976v-5.504c-.018-2.701-1.038-5.921-5.789-5.921-3.328 0-4.823 1.677-5.701 3.065 4.098 1.129 4.47 4.001 4.47 6.655v13.24c0 11.716 9.627 21.214 21.503 21.214 11.877 0 21.504-9.498 21.504-21.214V40.415c.019-2.603.465-5.371 4.47-6.475-.878-1.388-2.375-3.066-5.702-3.066-4.751 0-5.77 3.222-5.788 5.924V42.3c0 .539-.443.976-.99.976-.545 0-.988-.437-.988-.976V23.19c0-1.326-.767-2.535-1.976-3.115-1.742-.834-3.84-.117-4.686 1.602-.256.55-.355 1.05-.355 1.512v15.769c0 .538-.443.975-.989.975s-.989-.437-.989-.975V16.359c-.024-1.878-1.561-3.395-3.465-3.419zM93 48c8.121 0 14.52 8.043 14.789 8.385.281.36.281.87 0 1.23C107.52 57.956 101.123 66 93 66s-14.52-8.043-14.789-8.385c-.281-.36-.281-.87 0-1.23C78.48 56.044 84.88 48 93 48zm0 1.969c-5.964 0-11.136 5.213-12.758 7.031 1.622 1.818 6.794 7.031 12.758 7.031 5.964 0 11.136-5.213 12.758-7.031-1.622-1.818-6.794-7.031-12.758-7.031zM92.5 53c2.484.003 4.497 1.792 4.5 4 0 2.209-2.015 4-4.5 4S88 59.209 88 57s2.015-4 4.5-4zm0 1.806c-1.363 0-2.468.983-2.468 2.194 0 1.211 1.105 2.194 2.468 2.194 1.362-.002 2.466-.983 2.468-2.194 0-1.211-1.105-2.194-2.468-2.194zM73 48c.552 0 1 .44 1 .982v4.036c0 .542-.448.982-1 .982s-1-.44-1-.982v-4.036c0-.542.448-.981 1-.982z" transform="translate(1060 620)"/>
        </g>
        <g>
            <text fill="#0F0F0F" fill-opacity=".6" font-family="SEATBCN-Medium, SEAT BCN" font-size="14" font-weight="400" transform="translate(1060 230)">
                <tspan x="0" y="113">Innovación/ COEM mundial </tspan> <tspan x="58.31" y="131">NTT DATA </tspan>
            </text>
            <path fill="#CF7FA1" d="M92.347 10c2.243 0 4.234 1.452 4.944 3.604.309.938.594 1.743.844 2.453 1.048 2.988 1.632 4.634 1.632 8.917v10.083c.003 1.728 1.389 3.128 3.098 3.13 4.054.004 7.34 3.327 7.347 7.429v10.507c0 .449-.378.746-.822.746h-3.171c-.444 0-.828-.297-.828-.746v-1.964h-2.41v1.964c0 .449-.415.746-.858.746h-3.171c-.444 0-.792-.297-.792-.746V51.45h-2.812v17.904c0 1.01.809 1.83 1.807 1.83.999 0 1.808-.82 1.808-1.83v-1.77c.013-1.353.896-2.538 2.177-2.924 1.282-.385 2.662.12 3.403 1.245 1.083-.643 2.397-.748 3.566-.287 1.17.462 2.065 1.44 2.432 2.654 1.412-.476 2.963-.255 4.19.596 1.229.85 1.993 2.234 2.064 3.738 2.24.094 4.052 1.879 4.203 4.142.015.223-.062.443-.213.608-.15.164-.361.258-.583.26L63.906 78c-.38 0-.706-.263-.789-.634-.37-1.656.15-3.387 1.367-4.556 1.217-1.17 2.952-1.605 4.569-1.146.814-.984 2.095-1.44 3.34-1.19.109-1.843 1.248-3.462 2.934-4.17 1.687-.707 3.624-.38 4.992.844.74-1.07 2.079-1.532 3.31-1.142 1.232.39 2.072 1.542 2.077 2.848v.5c0 1.01.81 1.83 1.808 1.83s1.807-.82 1.807-1.83V51.45H86.51v4.673c0 .449-.327.746-.77.746h-3.172c-.2.012-.396-.062-.538-.204-.142-.143-.218-.34-.207-.542v-1.964h-2.544v1.964c0 .449-.364.746-.807.746h-3.172c-.443 0-.842-.297-.842-.746V45.616c.006-4.102 3.293-7.425 7.347-7.43 1.71 0 3.095-1.4 3.098-3.13V24.975c0-4.283.595-5.929 1.644-8.917.249-.71.548-1.515.857-2.453.71-2.152 2.701-3.604 4.944-3.604zm1.394 41.45h-2.813v17.905c0 1.908-1.529 3.454-3.414 3.454-1.886 0-3.415-1.546-3.415-3.454v-.501c-.007-.703-.537-1.287-1.229-1.353-.692-.065-1.32.408-1.457 1.097.104.21.193.427.266.65.138.427-.09.886-.512 1.027-.422.14-.876-.092-1.015-.518-.485-1.488-1.965-2.401-3.495-2.157-1.53.245-2.66 1.575-2.668 3.141l.023.544c.552.489.937 1.142 1.097 1.866.063.283-.028.58-.239.776-.21.197-.51.265-.783.179-.274-.086-.482-.314-.545-.597-.14-.628-.586-1.141-1.184-1.362-.598-.221-1.266-.12-1.773.27.131.096.258.2.379.309.33.3.355.815.058 1.148-.297.333-.805.36-1.135.06-.935-.856-2.284-1.067-3.431-.538-1.148.53-1.874 1.698-1.85 2.974l54.596-.373c-.375-.942-1.22-1.607-2.215-1.743-.994-.137-1.984.277-2.593 1.084-.27.35-.77.416-1.12.146-.35-.27-.42-.775-.157-1.132.529-.702 1.252-1.228 2.078-1.513-.003-1.277-.756-2.43-1.917-2.932-1.16-.502-2.506-.257-3.42.622-.207.209-.51.287-.79.206-.28-.082-.494-.31-.56-.598-.066-.287.027-.588.243-.786.105-.1.214-.193.326-.283-.206-1.214-1.244-2.103-2.462-2.108-.692-.003-1.353.287-1.825.8-.175.188-.321.403-.432.637-.194.401-.672.57-1.07.377-.4-.193-.57-.675-.383-1.08.112-.238.246-.465.402-.677-.273-.621-.936-.967-1.594-.83-.658.136-1.134.717-1.143 1.396v1.772c0 1.908-1.529 3.454-3.415 3.454-1.886 0-3.414-1.546-3.414-3.454V51.45zM87 60c.552 0 1 .366 1 .817v5.366c0 .451-.448.817-1 .817s-1-.366-1-.817v-5.366c0-.451.448-.817 1-.817zm11 5c.27.001.528.107.716.295.188.187.29.44.284.702.004.263-.1.517-.29.705-.189.189-.448.296-.72.298-.267 0-.524-.105-.71-.292-.187-.187-.288-.439-.28-.699v-.012c-.006-.262.097-.515.285-.702.188-.188.445-.294.715-.295zm0-8c.552 0 1 .362 1 .809v5.382c0 .447-.448.809-1 .809s-1-.362-1-.809V57.81c0-.447.448-.809 1-.809zm-11 0c.552 0 1 .431 1 .963v.074c0 .532-.448.963-1 .963-.265 0-.52-.101-.707-.282-.188-.18-.293-.426-.293-.681v-.074c0-.532.448-.963 1-.963zm14.374-2.84h-1.607v1.083h1.607V54.16zm-16.472 0H83.43v1.083h1.473V54.16zm23.703 0h-1.607v1.083h1.607V54.16zm-30.934 0h-1.607v1.083h1.607V54.16zm30.934-2.71h-8.838v1.084h8.838V51.45zm-23.703 0h-8.838v1.084h8.838V51.45zm0-12.818c-.854.765-1.957 1.185-3.098 1.18-3.167.004-5.735 2.6-5.74 5.804v4.209h8.838zm13.258 8.484h-2.812v2.709h2.812v-2.71zm-4.42 0h-2.812v2.709h2.813v-2.71zm-4.419 0H86.51v2.709h2.812v-2.71zm10.446-8.484v11.193h8.838v-4.21c-.005-3.204-2.573-5.8-5.74-5.803-1.141.005-2.244-.415-3.098-1.18zM92.34 11.626c-1.256 0-2.817.654-3.423 2.492-.314.953-.607 1.766-.859 2.483-1.021 2.91-1.55 4.37-1.55 8.373V45.49h11.65V24.974c0-4.002-.519-5.463-1.54-8.372-.252-.717-.544-1.53-.858-2.484-.605-1.838-2.165-2.492-3.42-2.492zM92 18c2.256-.02 4.265 1.23 4.957 3.084.141.364-.087.758-.509.88-.422.122-.879-.075-1.02-.44-.608-1.572-2.17-2.133-3.429-2.133-1.26 0-2.822.56-3.429 2.133-.141.365-.598.562-1.02.44-.422-.122-.65-.516-.51-.88.693-1.854 2.702-3.103 4.96-3.084z" transform="translate(1060 230)"/>
        </g>
    </g>
</svg>
