<?xml version="1.0" encoding="UTF-8"?>
<svg width="65px" height="80px" viewBox="0 0 65 80" version="1.1" xmlns="http://www.w3.org/2000/svg" xmlns:xlink="http://www.w3.org/1999/xlink">
    <title>icn/maleta1</title>
    <defs>
        <filter x="-6.0%" y="-8.3%" width="112.0%" height="116.6%" filterUnits="objectBoundingBox" id="filter-1">
            <feGaussianBlur stdDeviation="1" in="SourceGraphic"></feGaussianBlur>
        </filter>
    </defs>
    <g id="icn/maleta1" stroke="none" stroke-width="1" fill="none" fill-rule="evenodd">
        <g id="mochila" transform="translate(1.000000, -5.000000)">
            <path d="M32.0005264,14.0214844 L32.0005264,14.0214844 L32.0005264,14.0214844 C39.7641722,9.10764578 50.0413038,11.4178709 54.9551424,19.1815167 C56.2651451,21.2512625 57.10194,23.5847504 57.4057606,26.0153157 L62.5949566,67.5288834 C63.2799815,73.0090828 59.3927245,78.0069846 53.9125252,78.6920095 C53.5010769,78.7434406 53.0868281,78.7692308 52.6721778,78.7692308 L11.3278222,78.7692308 C5.80497469,78.7692308 1.32782219,74.2920783 1.32782219,68.7692308 C1.32782219,68.3545805 1.35361239,67.9403317 1.40504342,67.5288834 L6.59412904,26.0161985 C7.73383036,16.8985879 16.0490246,10.4312146 25.1666352,11.5709159 C27.5972211,11.8747391 29.930735,12.7115151 32.0005264,14.0214844 Z" id="Rectangle-Copy-2" fill="#8ECECF"></path>
            <path d="M62.2406405,64.6837136 L62.5949566,67.5288834 C63.2799815,73.0090828 59.3927245,78.0069846 53.9125252,78.6920095 C53.5010769,78.7434406 53.0868281,78.7692308 52.6721778,78.7692308 L11.3278222,78.7692308 C5.80497469,78.7692308 1.32782219,74.2920783 1.32782219,68.7692308 C1.32782219,68.3545805 1.35361239,67.9403317 1.40504342,67.5288834 L1.53007569,66.5271763 C3.22205488,69.6491621 6.52735425,71.7692308 10.3278222,71.7692308 L10.3278222,71.7692308 L52.6721778,71.7692308 C53.0868281,71.7692308 53.5010769,71.7434406 53.9125252,71.6920095 C57.9511682,71.1871792 61.1246874,68.3400339 62.2406405,64.6837136 Z" id="Combined-Shape" fill="#53B4B6"></path>
            <path d="M32,50 C44.7025492,50 57,39.7025492 57,27 C57,14.2974508 44.7030757,13.8105469 32.0005264,13.8105469 C19.2979772,13.8105469 7,14.2974508 7,27 C7,39.7025492 19.2974508,50 32,50 Z" id="Oval" fill="#53B4B6" filter="url(#filter-1)"></path>
            <path d="M32,46 C44.7025492,46 57,35.7025492 57,23 C57,10.2974508 44.7030757,9.81054687 32.0005264,9.81054687 C19.2979772,9.81054687 7,10.2974508 7,23 C7,35.7025492 19.2974508,46 32,46 Z" id="Oval" fill="#BFE3E4"></path>
            <rect id="Rectangle" stroke="#46A3A5" stroke-width="2" fill="#FFDE4A" x="27" y="42" width="11" height="9"></rect>
        </g>
    </g>
</svg>