<?xml version="1.0" encoding="UTF-8"?>
<svg width="65px" height="80px" viewBox="0 0 65 80" version="1.1" xmlns="http://www.w3.org/2000/svg" xmlns:xlink="http://www.w3.org/1999/xlink">
    <title>icn/maleta4</title>
    <defs>
        <filter x="-7.3%" y="-13.6%" width="114.6%" height="127.3%" filterUnits="objectBoundingBox" id="filter-1">
            <feGaussianBlur stdDeviation="1" in="SourceGraphic"></feGaussianBlur>
        </filter>
        <path d="M33,65 C36.3333333,60.7306281 38,57.4579008 38,55.1818182 C38,51.7676943 35.7614237,49 33,49 C30.2385763,49 28,51.7676943 28,55.1818182 C28,57.4579008 29.6666667,60.7306281 33,65 Z" id="path-2"></path>
        <mask id="mask-3" maskContentUnits="userSpaceOnUse" maskUnits="objectBoundingBox" x="0" y="0" width="10" height="16" fill="white">
            <use xlink:href="#path-2"></use>
        </mask>
        <path d="M33,65.4013672 C30.9408784,67.9826119 29.2742117,69.4432239 28,69.7832031 C20.5571775,71.7690623 14.115862,68.2272789 11,61.013916" id="path-4"></path>
        <mask id="mask-5" maskContentUnits="userSpaceOnUse" maskUnits="objectBoundingBox" x="0" y="0" width="22" height="9.31564264" fill="white">
            <use xlink:href="#path-4"></use>
        </mask>
        <path d="M55,65.4013672 C52.9408784,67.9826119 51.2742117,69.4432239 50,69.7832031 C42.5571775,71.7690623 36.115862,67.2133629 33,60" id="path-6"></path>
        <mask id="mask-7" maskContentUnits="userSpaceOnUse" maskUnits="objectBoundingBox" x="0" y="0" width="22" height="10.2499404" fill="white">
            <use xlink:href="#path-6"></use>
        </mask>
    </defs>
    <g id="icn/maleta4" stroke="none" stroke-width="1" fill="none" fill-rule="evenodd">
        <path d="M11,23 L54,23 L54,65 C54,70.5228475 49.5228475,75 44,75 L21,75 C15.4771525,75 11,70.5228475 11,65 L11,23 L11,23 Z" id="Rectangle-Copy-9" fill="#C3A2B6"></path>
        <path d="M57,12 C60.8659932,12 64,15.1340068 64,19 C64,19.6949895 63.8987175,20.3663233 63.7101075,21.0000463 C62.8489278,18.1080039 60.1706393,16 57,16 L57,16 L8,16 C4.82936074,16 2.15107217,18.1080039 1.29018925,20.9989568 C1.10128247,20.3663233 1,19.6949895 1,19 C1,15.1340068 4.13400675,12 8,12 L57,12 Z" id="Combined-Shape" fill="#BB96AC"></path>
        <path d="M57,18.999733 C60.8659932,18.999733 64,22.1337397 64,25.999733 C64,27.07362 63.7581785,28.0910266 63.3260191,29.0004691 C62.2030863,26.6349087 59.792501,24.999733 57,24.999733 L57,24.999733 L8,24.999733 C5.20749895,24.999733 2.79691366,26.6349087 1.67350433,29 C1.24182151,28.0910266 1,27.07362 1,25.999733 C1,22.1337397 4.13400675,18.999733 8,18.999733 L57,18.999733 Z" id="Combined-Shape" fill="#D1B8C7" transform="translate(32.500000, 23.999866) scale(1, -1) translate(-32.500000, -23.999866) "></path>
        <path d="M28.3807235,10.5801663 C29.8241219,10.8600554 31.235951,11 32.6162109,11 C33.9500055,11 35.2829066,10.8693191 36.614914,10.6079572 C37.6988136,10.3952822 38.7498975,11.1015455 38.9625764,12.1854444 C38.9874668,12.3122963 39,12.4412627 39,12.5705335 L39,15.4237142 C38.999996,16.5282815 38.1045673,17.4237102 37,17.4237102 C36.871321,17.4237102 36.7429424,17.4112915 36.6166494,17.3866269 C35.296857,17.1288756 33.9545884,17 32.5898438,17 C31.1874949,17 29.7844268,17.1360756 28.3806395,17.4082267 C27.2962644,17.6184419 26.2467842,16.9098062 26.0365577,15.8254333 C26.0122418,15.7000093 26,15.5725439 26,15.4447846 L26,12.543571 C26.0000229,11.4390141 26.8954432,10.5435939 28,10.5435939 C28.1277848,10.5435939 28.2552754,10.5558407 28.3807235,10.5801663 Z" id="Rectangle" fill="#82546F"></path>
        <path d="M32.5,9.5 C33.389747,9.5 34.2019507,9.83200206 34.8194853,10.3788803 C34.0848826,10.4603737 33.3506823,10.5 32.6162109,10.5 C31.822302,10.5 31.0179488,10.4537006 30.203151,10.3611017 C30.8173971,9.82414486 31.6208445,9.5 32.5,9.5 Z" id="Combined-Shape" fill="#82546F"></path>
        <path d="M32.5,17.5 C33.389747,17.5 34.2019507,17.8320021 34.8194853,18.3788803 C34.0848826,18.4603737 33.3506823,18.5 32.6162109,18.5 C31.822302,18.5 31.0179488,18.4537006 30.203151,18.3611017 C30.8173971,17.8241449 31.6208445,17.5 32.5,17.5 Z" id="Combined-Shape" fill="#82546F" transform="translate(32.511805, 18.000000) scale(1, -1) translate(-32.511805, -18.000000) "></path>
        <path d="M12,25 L53,25 L53,33 C53,40.7319865 46.7319865,47 39,47 L26,47 C18.2680135,47 12,40.7319865 12,33 L12,25 L12,25 Z" id="Rectangle" fill="#D1B8C7" style="mix-blend-mode: multiply;" filter="url(#filter-1)"></path>
        <path d="M11,23 L54,23 L54,31 C54,38.7319865 47.7319865,45 40,45 L25,45 C17.2680135,45 11,38.7319865 11,31 L11,23 L11,23 Z" id="Rectangle" fill="#D1B8C7"></path>
        <use id="Oval" stroke="#00FFFC" mask="url(#mask-3)" stroke-width="2" stroke-linecap="round" stroke-dasharray="1,3" xlink:href="#path-2"></use>
        <use id="Path-28" stroke="#00FFFC" mask="url(#mask-5)" stroke-width="4" stroke-linecap="round" stroke-dasharray="1,3" xlink:href="#path-4"></use>
        <use id="Path-28" stroke="#00FFFC" mask="url(#mask-7)" stroke-width="4" stroke-linecap="round" stroke-dasharray="1,3" transform="translate(44.000000, 65.124970) scale(-1, 1) translate(-44.000000, -65.124970) " xlink:href="#path-6"></use>
    </g>
</svg>