<?xml version="1.0" encoding="UTF-8"?>
<svg width="65px" height="80px" viewBox="0 0 65 80" version="1.1" xmlns="http://www.w3.org/2000/svg" xmlns:xlink="http://www.w3.org/1999/xlink">
    <title>icn/maleta2</title>
    <g id="icn/maleta2" stroke="none" stroke-width="1" fill="none" fill-rule="evenodd">
        <g id="maleta" transform="translate(4.000000, 3.000000)">
            <path d="M3.60839844,12 C6.05523475,10.3144249 9.24990662,8.49805363 13.192414,6.55088625 C15.2580641,5.53068172 17.5309542,5 19.8348047,5 L48,5 C53.5228475,5 58,9.4771525 58,15 L58,65.6515924 C58,69.4665286 55.3062702,72.7506934 51.5650478,73.4970131 L39.0178367,76 L39.0178367,76 C16.8154183,37.7463437 5.01227226,16.4130104 3.60839844,12 Z" id="Path-27" fill="#9ECA8B"></path>
            <path d="M23,7 L23,3 C23,1.34314575 24.3431458,3.04359188e-16 26,0 L35,0 C36.6568542,-3.04359188e-16 38,1.34314575 38,3 L38,7 L38,7" id="Path" stroke="#9ECA8C" stroke-width="3"></path>
            <path d="M43.4702453,7 C49.2279139,7 53.9011016,10.6614776 53.9213761,16.3489375 L53.9966957,45.5414151 C54.0118937,59.3780723 53.9746845,67.0668024 53.8846592,68.6491322 C53.7083382,71.7482401 52.3856056,72.5147594 49.3679192,73.4252197 L46.3525525,74 C48.1780793,73.8189849 51.8647506,70.7001707 51.9874351,68.5438064 L52.0070756,68.0692954 C52.1255044,64.3500424 52.1306483,47.0668535 52.0211698,16.3555472 C52.0048779,11.7852669 48.3164046,8.07322857 43.7217452,7.94211313 L43.4702453,7.93852907 L9,7.93852907 L11.3469734,7 L43.4702453,7 Z" id="Path" fill="#FFFFFF" fill-rule="nonzero" opacity="0.628208705"></path>
            <rect id="Rectangle-Copy-8" fill="#C4DFB9" x="0" y="9" width="48" height="67"></rect>
            <path d="M4,46 L45,46 L45,60 C45,65.5228475 40.5228475,70 35,70 L14,70 C8.4771525,70 4,65.5228475 4,60 L4,46 L4,46 Z" id="Rectangle" fill="#9ECA8C"></path>
            <rect id="Rectangle" fill="#BF9CB1" x="16" y="17" width="17" height="7"></rect>
        </g>
    </g>
</svg>