<?xml version="1.0" encoding="UTF-8"?>
<svg width="65px" height="80px" viewBox="0 0 65 80" version="1.1" xmlns="http://www.w3.org/2000/svg" xmlns:xlink="http://www.w3.org/1999/xlink">
    <title>icn/maleta3</title>
    <g id="icn/maleta3" stroke="none" stroke-width="1" fill="none" fill-rule="evenodd">
        <rect id="Rectangle-Copy-12" fill="#FFEEA3" x="0" y="10" width="65" height="20"></rect>
        <rect id="Rectangle-Copy-13" fill="#FFE985" x="0" y="30" width="65" height="20"></rect>
        <rect id="Rectangle-Copy-14" fill="#FFE46B" x="0" y="50" width="65" height="20"></rect>
        <path d="M65,20 C65,25.5228475 60.5228475,30 55,30 L10,30 C4.4771525,30 6.76353751e-16,25.5228475 0,20 C-8.38928767e-17,19.3149627 0.0688817631,18.6460135 0.200096935,17.999701 C1.1263483,22.564286 5.16194715,26 10,26 L10,26 L55,26 C59.8380528,26 63.8736517,22.564286 64.8000425,17.9996121 C64.9311182,18.6460135 65,19.3149627 65,20 Z" id="Combined-Shape" fill="#FFEEA3" opacity="0.883696057" style="mix-blend-mode: multiply;"></path>
        <path d="M65,40 C65,45.5228475 60.5228475,50 55,50 L10,50 C4.4771525,50 6.76353751e-16,45.5228475 0,40 C-8.38928767e-17,39.3149627 0.0688817631,38.6460135 0.200096935,37.999701 C1.1263483,42.564286 5.16194715,46 10,46 L10,46 L55,46 C59.8380528,46 63.8736517,42.564286 64.8000425,37.9996121 C64.9311182,38.6460135 65,39.3149627 65,40 Z" id="Combined-Shape-Copy" fill="#FFEEA3" opacity="0.883696057" style="mix-blend-mode: multiply;"></path>
        <path d="M65,60 C65,65.5228475 60.5228475,70 55,70 L10,70 C4.4771525,70 6.76353751e-16,65.5228475 0,60 C-8.38928767e-17,59.3149627 0.0688817631,58.6460135 0.200096935,57.999701 C1.1263483,62.564286 5.16194715,66 10,66 L10,66 L55,66 C59.8380528,66 63.8736517,62.564286 64.8000425,57.9996121 C64.9311182,58.6460135 65,59.3149627 65,60 Z" id="Combined-Shape-Copy-2" fill="#FFEEA3" opacity="0.883696057" style="mix-blend-mode: multiply;"></path>
        <path d="M29.392219,8.61129617 C30.6879447,8.87043206 31.9429472,9 33.1572266,9 C34.3062003,9 35.4551562,8.88399398 36.6040943,8.65198194 C37.6868172,8.43331603 38.7417858,9.13379616 38.9604276,10.216524 C38.9867436,10.3468427 39,10.4794607 39,10.61241 L39,69.343945 C39.0000197,70.4485254 38.1045804,71.3439647 37,71.3439647 C36.8702974,71.3439647 36.7409023,71.3313478 36.6136428,71.3062922 C35.5765167,71.1020974 34.4758102,71 33.3115234,71 C32.0032775,71 30.6949923,71.1289061 29.3866678,71.3867184 C28.3029413,71.6002655 27.251289,70.8948522 27.0377352,69.811127 C27.012638,69.6837659 27,69.554264 27,69.4244537 L27,10.5724613 C26.9999989,9.46789117 27.8954299,8.57246019 29,8.57246019 C29.1316995,8.57246019 29.2630769,8.58546867 29.392219,8.61129617 Z" id="Rectangle" fill="#7D4203"></path>
        <path d="M27,50 L39,50 C39,54 40.6666667,57.3333333 44,60 C43.8574219,60.0761719 32.0410156,60.2568359 32,60 C28.6666667,58.6664673 27,55.333134 27,50 Z" id="Rectangle" fill="#A55703"></path>
        <rect id="Rectangle" stroke="#FA9528" stroke-width="3" x="26.5" y="41.5" width="13" height="9" rx="2"></rect>
    </g>
</svg>