<svg xmlns="http://www.w3.org/2000/svg" xmlns:xlink="http://www.w3.org/1999/xlink" width="1366" height="768" viewBox="0 0 1366 768">
    <defs>
        <filter id="prefix__c" width="126.3%" height="143.3%" x="-13.2%" y="-21.7%" filterUnits="objectBoundingBox">
            <feGaussianBlur in="SourceGraphic" stdDeviation="40"/>
        </filter>
        <filter id="prefix__d" width="126.3%" height="143.3%" x="-13.2%" y="-21.7%" filterUnits="objectBoundingBox">
            <feGaussianBlur in="SourceGraphic" stdDeviation="40"/>
        </filter>
        <filter id="prefix__f" width="105.6%" height="109.5%" x="-2.8%" y="-2.4%" filterUnits="objectBoundingBox">
            <feOffset dy="21" in="SourceAlpha" result="shadowOffsetOuter1"/>
            <feGaussianBlur in="shadowOffsetOuter1" result="shadowBlurOuter1" stdDeviation="6.5"/>
            <feColorMatrix in="shadowBlurOuter1" values="0 0 0 0 0 0 0 0 0 0.2 0 0 0 0 0.196078431 0 0 0 0.146661932 0"/>
        </filter>
        <filter id="prefix__h" width="105.5%" height="109.4%" x="-2.8%" y="-2.4%" filterUnits="objectBoundingBox">
            <feOffset dy="21" in="SourceAlpha" result="shadowOffsetOuter1"/>
            <feGaussianBlur in="shadowOffsetOuter1" result="shadowBlurOuter1" stdDeviation="6.5"/>
            <feColorMatrix in="shadowBlurOuter1" values="0 0 0 0 0 0 0 0 0 0.2 0 0 0 0 0.196078431 0 0 0 0.146661932 0"/>
        </filter>
        <filter id="prefix__j" width="119.1%" height="119.6%" x="-9.6%" y="-8.5%" filterUnits="objectBoundingBox">
            <feOffset dy="2" in="SourceAlpha" result="shadowOffsetOuter1"/>
            <feGaussianBlur in="shadowOffsetOuter1" result="shadowBlurOuter1" stdDeviation="4.5"/>
            <feColorMatrix in="shadowBlurOuter1" values="0 0 0 0 0.12967033 0 0 0 0 0.27032967 0 0 0 0 0.171428571 0 0 0 0.779966128 0"/>
        </filter>
        <filter id="prefix__l" width="114.3%" height="113.9%" x="-7.2%" y="-5.2%" filterUnits="objectBoundingBox">
            <feOffset dy="4" in="SourceAlpha" result="shadowOffsetOuter1"/>
            <feGaussianBlur in="shadowOffsetOuter1" result="shadowBlurOuter1" stdDeviation="4.5"/>
            <feColorMatrix in="shadowBlurOuter1" values="0 0 0 0 0.12967033 0 0 0 0 0.27032967 0 0 0 0 0.171428571 0 0 0 0.779966128 0"/>
        </filter>
        <filter id="prefix__n" width="122.7%" height="128.8%" x="-11.3%" y="-7.2%" filterUnits="objectBoundingBox">
            <feOffset dy="16" in="SourceAlpha" result="shadowOffsetOuter1"/>
            <feGaussianBlur in="shadowOffsetOuter1" result="shadowBlurOuter1" stdDeviation="7"/>
            <feColorMatrix in="shadowBlurOuter1" values="0 0 0 0 0.062745098 0 0 0 0 0.137254902 0 0 0 0 0.0862745098 0 0 0 0.198371941 0"/>
        </filter>
        <filter id="prefix__p" width="109.9%" height="110.9%" x="-5%" y="-2.7%" filterUnits="objectBoundingBox">
            <feOffset dy="16" in="SourceAlpha" result="shadowOffsetOuter1"/>
            <feGaussianBlur in="shadowOffsetOuter1" result="shadowBlurOuter1" stdDeviation="7"/>
            <feColorMatrix in="shadowBlurOuter1" values="0 0 0 0 0.062745098 0 0 0 0 0.137254902 0 0 0 0 0.0862745098 0 0 0 0.198371941 0"/>
        </filter>
        <filter id="prefix__r" width="105.9%" height="108.3%" x="-2.9%" y="-2.1%" filterUnits="objectBoundingBox">
            <feOffset dy="16" in="SourceAlpha" result="shadowOffsetOuter1"/>
            <feGaussianBlur in="shadowOffsetOuter1" result="shadowBlurOuter1" stdDeviation="7"/>
            <feColorMatrix in="shadowBlurOuter1" values="0 0 0 0 0.062745098 0 0 0 0 0.137254902 0 0 0 0 0.0862745098 0 0 0 0.198371941 0"/>
        </filter>
        <filter id="prefix__v" width="113.5%" height="113.9%" x="-6.8%" y="-5.2%" filterUnits="objectBoundingBox">
            <feOffset dy="4" in="SourceAlpha" result="shadowOffsetOuter1"/>
            <feGaussianBlur in="shadowOffsetOuter1" result="shadowBlurOuter1" stdDeviation="4.5"/>
            <feColorMatrix in="shadowBlurOuter1" values="0 0 0 0 0.12967033 0 0 0 0 0.27032967 0 0 0 0 0.171428571 0 0 0 0.779966128 0"/>
        </filter>
        <filter id="prefix__x" width="128.2%" height="129%" x="-14.1%" y="-12.5%" filterUnits="objectBoundingBox">
            <feOffset dy="2" in="SourceAlpha" result="shadowOffsetOuter1"/>
            <feGaussianBlur in="shadowOffsetOuter1" result="shadowBlurOuter1" stdDeviation="4.5"/>
            <feColorMatrix in="shadowBlurOuter1" values="0 0 0 0 0.12967033 0 0 0 0 0.27032967 0 0 0 0 0.171428571 0 0 0 0.450475306 0"/>
        </filter>
        <filter id="prefix__z" width="124.2%" height="124.8%" x="-12.1%" y="-14.1%" filterUnits="objectBoundingBox">
            <feOffset dy="-2" in="SourceAlpha" result="shadowOffsetOuter1"/>
            <feGaussianBlur in="shadowOffsetOuter1" result="shadowBlurOuter1" stdDeviation="4.5"/>
            <feColorMatrix in="shadowBlurOuter1" values="0 0 0 0 0.12967033 0 0 0 0 0.27032967 0 0 0 0 0.171428571 0 0 0 0.779966128 0"/>
        </filter>
        <filter id="prefix__B" width="113.4%" height="113.8%" x="-6.7%" y="-5.5%" filterUnits="objectBoundingBox">
            <feOffset dy="3" in="SourceAlpha" result="shadowOffsetOuter1"/>
            <feGaussianBlur in="shadowOffsetOuter1" result="shadowBlurOuter1" stdDeviation="4.5"/>
            <feColorMatrix in="shadowBlurOuter1" values="0 0 0 0 0.12967033 0 0 0 0 0.27032967 0 0 0 0 0.171428571 0 0 0 0.464652535 0"/>
        </filter>
        <filter id="prefix__D" width="112.5%" height="112.8%" x="-6.2%" y="-4.1%" filterUnits="objectBoundingBox">
            <feOffset dy="6" in="SourceAlpha" result="shadowOffsetOuter1"/>
            <feGaussianBlur in="shadowOffsetOuter1" result="shadowBlurOuter1" stdDeviation="4.5"/>
            <feColorMatrix in="shadowBlurOuter1" values="0 0 0 0 0.12967033 0 0 0 0 0.27032967 0 0 0 0 0.171428571 0 0 0 0.464652535 0"/>
        </filter>
        <filter id="prefix__F" width="6625.7%" height="214.9%" x="-3262.9%" y="-57.4%" filterUnits="objectBoundingBox">
            <feGaussianBlur in="SourceGraphic" stdDeviation="40"/>
        </filter>
        <filter id="prefix__G" width="6625.7%" height="214.9%" x="-3262.9%" y="-57.4%" filterUnits="objectBoundingBox">
            <feGaussianBlur in="SourceGraphic" stdDeviation="40"/>
        </filter>
        <path id="prefix__a" d="M0 0H1364V550H0z"/>
        <path id="prefix__e" d="M933.76 1v95.837c0 55.228-44.77 100-100 100H128.756c-55.228 0-100 44.771-100 100v70.395c0 55.228 44.772 100 100 100h442.49c48.473 0 87.768 39.295 87.768 87.768"/>
        <path id="prefix__g" d="M1193.372 80.05c0 22.867 6.453 37.616 20.877 53.144-14.21 11.923-23.25 29.806-23.25 49.806 0 6.027.839 11.854 2.373 17.392-11.63 18.23-18.372 39.88-18.372 63.108 0 21.165 5.6 41.022 15.393 58.174-19.151 11.675-35.795 27.047-48.962 45.116C1122.705 350.128 1098.037 340 1071 340c-36.803 0-69.22 18.759-88.225 47.232C971.777 383.2 959.895 381 947.5 381c-29.125 0-55.034-3.59-73.695 15.915C858.359 362.35 823.305 354 783 354c-11.107 0-21.787 1.829-31.756 5.203C744.888 355.886 737.666 354 730 354c-17.69 0-33.037 9.99-40.734 24.632C669.913 355.626 640.916 341 608.5 341c-20.487 0-39.605 5.846-55.791 15.95-6.232-1.914-12.85-2.95-19.71-2.95-18.043 0-34.41 7.146-46.454 18.746C471.838 353.456 448.628 341 422.5 341c-35.883 0-66.27 23.484-76.662 55.915C316.858 406.768 296 434.189 296 466.5c0 40.593 32.907 73.5 73.5 73.5 28.07 0 52.459-15.741 64.838-38.874 4.209-.62 8.313-1.561 12.283-2.806C444.294 504.092 443 510.394 443 517c0 27.615 22.386 50 50 50 23.769 0 43.649-16.591 48.73-38.82C559.917 543.067 583.164 552 608.5 552c12.085 0 23.69-2.037 34.504-5.778C653.576 549.829 667.168 552 682 552c22.576 0 42.274-5.03 52.82-12.502C749.08 547.458 765.51 552 783 552c27.299 0 52.016-11.05 69.925-28.92 15.342 36.616 51.324 62.43 93.396 62.906-.205 1.81-.321 3.648-.321 5.514 0 9.479 2.729 18.315 7.43 25.785C921.607 634.55 900 668.25 900 707c0 41.827 28.06 74.511 64.086 90.25L1374 798.703V80.051c-120.148.76-180.357.76-180.628 0z"/>
        <path id="prefix__i" d="M840.393 755.04c0-53.214-43.093-96.355-96.25-96.355-29.997 0-59.881 3.851-77.533 25.383-5.178-2.09-28.406-23.233-69.926-32.977-45.401-10.656-96.237-10.656-128.582 0-32.346 10.655-34.606 7.15-47.349 18.855-16.047-11.849-35.88-18.855-57.348-18.855-31.924 0-60.232 15.486-77.848 39.359-6.078-1.973-12.534-3.095-19.231-3.247-3.88-52.067-39.541-95.27-87.63-110.23 12.632-5.83 37.221-40.313 31.656-81.571-5.566-41.258-24.524-64.429-53.2-77.842-.644-.301-1.422.036-2.134.054 34.958-21.288 58.974-56.309 62.764-96.596 40.533-6.316 74.359-30.77 91.286-63.981 12.075 3.759 25.133 3.441 38.216 5.785 155.068 27.779 220.716-18.014 249.4-52.8v.113c0 55.838 45.216 101.102 100.992 101.102 48.368 0 88.785-34.04 98.673-79.493 18.609 19.167 44.633 31.078 73.441 31.078 56.562 0 102.415-45.902 102.415-102.526 0-.503 7.22.502 7.212 0 5.548.99 27.252 0 33.083 0 53.42 0 71.138-30.818 71.138-84.296C1085.14 77.828 723.928 78.495 0 78v720.703L622.212 798c49.792 0 203.476-2.46 204.788-.75-1.066-.695 13.393-8.628 13.393-42.21z"/>
        <path id="prefix__k" d="M77.038 147.75c41.42 0 69.547-44.252 74.168-83.003 4.621-38.752-34-70-75-64.007-41 5.993-84 25.255-75 64.007 9 38.751 34.41 83.004 75.832 83.004z"/>
        <path id="prefix__m" d="M298.387 272.281c46.673 0 82.173-37.156 100.1-80.31.064-.032-76.533-142.394-78.23-142.405-7.441-.048-15.32-.309-23.126.831-61.94 9.046-126.902 38.118-113.305 96.606 13.597 58.488 51.985 125.278 114.561 125.278z"/>
        <path id="prefix__o" d="M537.5 488c21.292 0 40.202-10.165 52.166-25.9 4.194.588 8.477.9 12.834.9 50.534 0 91.5-40.966 91.5-91.5S653.034 280 602.5 280c-45.108 0-82.59 32.642-90.119 75.594C506.185 342.254 492.677 333 477 333c-21.539 0-39 17.461-39 39 0 20.21 15.373 36.828 35.062 38.803-.685 3.798-1.062 7.702-1.062 11.697 0 36.175 29.325 65.5 65.5 65.5"/>
        <path id="prefix__q" d="M929.627 501.426c3.558 15.816 22.607 42.375 67.182 30.574 3.55-.94 7.17-.201 10.677-.581-6.922 21.451-10.677 44.326-10.677 68.081.226-2.042 125.126-3.208 374.698-3.5V47.472c-75.572-.216-113.944-.398-115.115-.547C1271.274 57.669 1289.552 64 1309.31 64c8.472 0 16.67-1.167 24.446-3.344 4.19 9 9.381 17.438 15.447 25.159-31.945 13.354-54.393 44.897-54.393 81.685 0 18.168 5.48 35.055 14.867 49.105-71.704 26.589-125.7 89.643-139.449 166.645-4.207.931-8.375 1.968-12.489 3.135-12.367-22.291-36.13-37.385-63.429-37.385-12.846 0-24.902 3.355-35.366 9.215-16.91-13.881-38.548-22.215-62.134-22.215-16.053 0-31.203 3.86-44.575 10.702C942.296 327.293 922.112 314 898.81 314c-33.137 0-60 26.863-60 60 0 1.51.074 3.002.185 4.484-44.447 7.938-51.826 45.94-51.826 76.943 0 31.004 22.098 47.733 47.832 61.815s78.306 4.57 94.627-15.816z"/>
        <path id="prefix__s" d="M859.314 0C839.677 88.676 760.585 155 666 155c-72.571 0-136.011-39.05-170.485-97.277C468.79 71.326 438.542 79 406.5 79c-28.993 0-56.517-6.284-81.291-17.556-52 60.919-129.337 99.556-215.71 99.556-1.276 0-2.546-.031-3.82-.048 2.825 13.406 4.32 27.301 4.32 41.548 0 42.174-13.03 81.298-35.272 113.588C173.823 330.271 250 415.482 250 518.5c0 26.455-5.024 51.737-14.17 74.943C272.706 570.358 316.29 557 363 557c105.24 0 194.646 67.743 227.022 161.998L0 719V-.001h859.314zM699 680c35.846 0 68.197 14.97 91.14 38.998L607.866 719c22.943-24.029 55.289-39 91.135-39zM865.227 0l120.554.002C967.601 8.965 947.14 14 925.5 14c-21.637 0-42.096-5.038-60.273-14z"/>
        <path id="prefix__t" d="M0 0H1374V720H0z"/>
        <path id="prefix__w" d="M116.8 223.2c62.575 0 105.066-66.79 112.047-125.279 6.981-58.488-51.365-105.65-113.304-96.605C53.603 10.361-11.358 39.433 2.238 97.921 15.835 156.41 54.223 223.2 116.8 223.2z"/>
        <path id="prefix__y" d="M53.223 100.368c28.145 0 47.257-29.95 50.397-56.178C106.76 17.962 80.517-3.187 52.657.869 24.798 4.925-4.42 17.962 1.695 44.189c6.116 26.229 23.382 56.18 51.528 56.18z"/>
        <path id="prefix__A" d="M60.987 117c32.79 0 55.056-35.042 58.715-65.729C123.36 20.584 92.786-4.16 60.328.586 27.871 5.332-6.17 20.584.955 51.27 8.079 81.958 28.195 117 60.987 117z"/>
        <path id="prefix__C" d="M114.564 218.742c61.21 0 102.773-65.292 109.601-122.469 6.83-57.177-50.243-103.282-110.83-94.44-60.587 8.843-124.13 37.263-110.83 94.44 13.299 57.177 50.849 122.47 112.059 122.47z"/>
        <path id="prefix__E" d="M134.89 257.209c72.14 0 121.125-76.974 129.173-144.38C272.111 45.425 204.848-8.928 133.441 1.496 62.035 11.92-12.855 45.424 2.82 112.83c15.674 67.405 59.93 144.379 132.07 144.379z"/>
        <path id="prefix__H" d="M4.76 0v217"/>
    </defs>
    <g fill="none" fill-rule="evenodd">
        <text fill="#6F6F6F" font-family="SEATBCN-Medium, SEAT BCN" font-size="16" font-weight="400">
            <tspan x="116" y="62">Instrucciones del juego </tspan>
        </text>
        <g transform="translate(1 218)">
            <mask id="prefix__b" fill="#fff">
                <use xlink:href="#prefix__a"/>
            </mask>
            <use fill="#D8D8D8" xlink:href="#prefix__a"/>
            <g mask="url(#prefix__b)">
                <g transform="translate(-8 -124)">
                    <g>
                        <path fill="#E7DEC0" d="M1246 .547L1245.999 2H1374v719H975.103v3.25c0-1.295-37.894-2.379-113.685-3.25H0V2h1060.446V.547H1246z" transform="translate(0 77)"/>
                        <g transform="translate(0 77) translate(200 46)">
                            <path stroke="#787878" stroke-width="7" d="M937.5.605l-1.917 99.398c-1.041 53.974-44.733 97.378-98.711 98.064L.113 208.698h0v263.834c0 12.841 10.41 23.251 23.251 23.251H573.54c32.705 0 59.217 26.512 59.217 59.217h0" filter="url(#prefix__c)" opacity=".666"/>
                            <path stroke="#787878" stroke-width="7" d="M937.5 1l-1.914 99.007c-1.043 53.972-44.733 97.374-98.71 98.06L.112 208.698h0v263.834c0 12.841 10.41 23.251 23.251 23.251H573.54c32.705 0 59.217 26.512 59.217 59.217h0" filter="url(#prefix__d)" opacity=".666"/>
                            <use stroke="#FFF" stroke-width="38" xlink:href="#prefix__e"/>
                            <use stroke="#949494" stroke-width="30" xlink:href="#prefix__e"/>
                            <path stroke="#FFF" stroke-dasharray="18" stroke-width="3" d="M933.76 1l1.574 92.65c.938 55.22-43.067 100.746-98.288 101.684-.565.01-1.131.014-1.698.014H128.755c-55.228 0-100 44.771-100 100v71.884c0 55.228 44.772 100 100 100h442.49c48.473 0 87.768 39.295 87.768 87.768h0"/>
                        </g>
                    </g>
                    <use fill="#000" filter="url(#prefix__f)" xlink:href="#prefix__g"/>
                    <use fill="#45915C" xlink:href="#prefix__g"/>
                    <use fill="#000" filter="url(#prefix__h)" xlink:href="#prefix__i"/>
                    <use fill="#45915C" xlink:href="#prefix__i"/>
                    <g opacity=".744">
                        <g transform="translate(176) translate(603.794 99.253)">
                            <use fill="#000" filter="url(#prefix__j)" xlink:href="#prefix__k"/>
                            <use fill="#3E8353" xlink:href="#prefix__k"/>
                            <path stroke="#2E613D" stroke-linecap="round" stroke-linejoin="round" stroke-width="3" d="M58.143 123.676c-2.905 6.342 1.265 14.85 8.105 16.775 5.652 1.592 21.67-3.371 14.808-11.79-2.206-2.706-5.557-2.427-6.018 1.09-.436 3.341 3.655 5.98 6.242 6.976 4.712 1.812 16.396-1.852 12.659-8.496-2.326 10.363 15.092 1.772 17.81-1.954 4.201-5.765-1.333-12.263-8.33-11.463" opacity=".834"/>
                            <path stroke="#2E613D" stroke-linecap="round" stroke-linejoin="round" stroke-width="3" d="M122.682 20.282c4.43-3.227 15.69 8.886 11.14 16.005 5.219.106 11.454 5.109 12.979 10.33 2.23 7.635-5.292 8.375-9.287 11.951 4.468 2.864 7.208 8.775 6.172 14.235-1.5 7.91-15.251 14.44-21.48 8.856" opacity=".803"/>
                            <path stroke="#2E613D" stroke-linecap="round" stroke-linejoin="round" stroke-width="3" d="M75.518 59.33C60.841 34.293 93.792 44.787 88.45 53.963c-2.47 4.241-12.595-3.575-3.759-5.368 3.221-.654 6.6-.833 9.851-.352 1.383.205 3.082.984 3.5 2.33 1.413 4.555 1.053 22.584-9.852 15.678-5.539-3.508 4.907-4.99 7-3.742 16.106 9.614 1.266 25.009-12.315 24.293-4.547-.24-6.777-7.636-.777-8.688 6.02-1.054 9.028 8.137 3.37 10.384-3.715 1.475-7.547 3.11-11.537 3.247-4.652.158-22.181-9.516-15.034-17.513 7.15-8 13.753-1.061 14.127.776.199.975-1.369 1.627-2.333 1.837-8.674 1.89-8.964-5.767-8.554-12.006" opacity=".744"/>
                        </g>
                        <g transform="translate(176) rotate(-61 290.246 160.894)">
                            <use fill="#000" filter="url(#prefix__l)" xlink:href="#prefix__m"/>
                            <use fill="#4FA669" xlink:href="#prefix__m"/>
                        </g>
                        <g stroke="#236F36" stroke-linecap="round" stroke-linejoin="round" stroke-width="4" opacity=".526">
                            <path d="M54.154 67.734c.885-5.742 9.644-10.95-2.21-13.864-3.629-.89-11.265-.763-13.209 2.876-1.685 3.154 1.321 7.613 4.273 4.446 6.444-6.91-10.094-10.087-14.68-7.006-3.193 2.145-5.883 7.426-4.512 11.24 1.858 5.16 5.853 3.901 11.265 3.662C36.664 53.48 8.197 81.234 28.23 79.616c-14.066 1.697-12.63 15.73 2.192 15.22-5.642-.756-14.028 3.334-9.994 9.905 3.654 5.95 24.015 6.628 21.427-3.281-2.199 5.478-1.471 11.102 6.45 12.436 10.095 1.696 22.226-16.42 11.168-18.45 8.807 3.592 16.254-7.084 6.05-10.132M86.823 184.975c-4.357 9.757 1.899 22.846 12.157 25.807 8.48 2.45 32.505-5.186 22.213-18.138-3.31-4.163-8.336-3.734-9.028 1.677-.653 5.14 5.484 9.2 9.364 10.732 7.068 2.789 24.594-2.85 18.988-13.07-3.488 15.943 22.638 2.726 26.715-3.007 6.303-8.869-2-18.865-12.495-17.636M114.087 90.474c-22.506-37.555 28.02-21.815 19.829-8.052-3.787 6.363-19.313-5.361-5.764-8.051 4.939-.98 10.12-1.25 15.105-.528 2.12.307 4.725 1.476 5.365 3.494 2.168 6.834 1.616 33.877-15.105 23.518-8.493-5.263 7.524-7.486 10.732-5.613 24.696 14.421 1.943 37.513-18.882 36.439-6.972-.36-10.39-11.454-1.19-13.03 9.229-1.583 13.841 12.204 5.166 15.574-5.697 2.213-11.572 4.666-17.69 4.87-7.134.238-34.011-14.273-23.052-26.269 10.962-12 21.087-1.591 21.661 1.165.305 1.462-2.098 2.44-3.577 2.755-13.3 2.834-13.745-8.65-13.117-18.01" transform="translate(176) rotate(-61 241.113 -17.784)"/>
                        </g>
                        <path stroke="#236F36" stroke-linecap="round" stroke-linejoin="round" stroke-width="3" d="M554.345 372.898c.578-3.86 6.305-7.36-1.445-9.319-2.373-.598-7.366-.512-8.637 1.934-1.102 2.12.864 5.116 2.794 2.988 4.213-4.644-6.6-6.78-9.599-4.709-2.087 1.442-3.846 4.99-2.95 7.555 1.215 3.468 3.827 2.622 7.366 2.46 1.035-10.49-17.578 8.164-4.48 7.077-9.197 1.14-8.257 10.573 1.433 10.23-3.688-.508-9.171 2.241-6.534 6.657 2.39 4 15.702 4.455 14.01-2.205-1.438 3.682-.962 7.462 4.218 8.359 6.6 1.14 14.532-11.037 7.301-12.402 5.759 2.415 10.628-4.76 3.957-6.809" opacity=".721" transform="translate(176)"/>
                        <path stroke="#236F36" stroke-linecap="round" stroke-linejoin="round" stroke-width="5" d="M1.94 271.545c-6.016 13.173 2.622 30.843 16.79 34.84 11.708 3.307 44.887-7 30.674-24.486-4.57-5.62-11.511-5.04-12.467 2.264-.903 6.94 7.572 12.421 12.93 14.489 9.761 3.764 33.964-3.847 26.222-17.646-4.817 21.523 31.262 3.682 36.893-4.058 8.703-11.974-2.761-25.468-17.256-23.809" opacity=".834" transform="translate(176)"/>
                        <path stroke="#236F36" stroke-linecap="round" stroke-linejoin="round" stroke-width="3" d="M755.455 732.447c-8.542.466-12.964-24.974-.954-30.437-6.738-4.573-10.638-16.427-8.19-24.565 3.58-11.9 14.05-6.477 22.32-7.77-3.409-7.549-1.962-17.623 4.039-23.898 8.695-9.09 32.242-5.964 35.64 6.645" opacity=".803" transform="translate(176)"/>
                    </g>
                    <g transform="translate(0 78)">
                        <use fill="#000" filter="url(#prefix__n)" xlink:href="#prefix__o"/>
                        <use fill="#84C497" xlink:href="#prefix__o"/>
                        <use fill="#000" filter="url(#prefix__p)" xlink:href="#prefix__q"/>
                        <use fill="#84C497" xlink:href="#prefix__q"/>
                        <g transform="translate(0 1)">
                            <use fill="#000" filter="url(#prefix__r)" xlink:href="#prefix__s"/>
                            <use fill="#84C497" xlink:href="#prefix__s"/>
                        </g>
                        <g>
                            <mask id="prefix__u" fill="#fff">
                                <use xlink:href="#prefix__t"/>
                            </mask>
                            <g mask="url(#prefix__u)">
                                <g>
                                    <path stroke="#449659" stroke-linecap="round" stroke-linejoin="round" stroke-width="3" d="M619.312 613.584c-14.677-25.037 18.274-14.544 12.932-5.368-2.469 4.242-12.595-3.574-3.759-5.368 3.221-.653 6.6-.833 9.851-.351 1.383.204 3.082.984 3.5 2.33 1.413 4.555 1.053 22.583-9.851 15.677-5.54-3.508 4.906-4.99 6.998-3.741 16.107 9.614 1.267 25.008-12.314 24.292-4.547-.24-6.777-7.636-.776-8.687 6.019-1.055 9.027 8.136 3.369 10.383-3.715 1.476-7.547 3.111-11.537 3.247-4.652.158-22.18-9.515-15.034-17.513 7.15-8 13.753-1.06 14.127.777.199.975-1.368 1.627-2.333 1.837-8.674 1.889-8.964-5.768-8.554-12.007" opacity=".744" transform="translate(-80 -170)"/>
                                    <g transform="translate(-80 -170) rotate(-61 972.391 166.56)">
                                        <use fill="#000" filter="url(#prefix__v)" xlink:href="#prefix__w"/>
                                        <use fill="#63B57C" xlink:href="#prefix__w"/>
                                        <path stroke="#449659" stroke-linecap="round" stroke-linejoin="round" stroke-width="4" d="M184.436 29.238c6.733-4.892 23.847 13.468 16.932 24.257 7.933.16 17.41 7.743 19.728 15.657 3.39 11.572-8.044 12.692-14.116 18.113 6.792 4.34 10.956 13.3 9.382 21.575-2.281 11.988-23.182 21.885-32.65 13.422" opacity=".803"/>
                                    </g>
                                    <g transform="translate(-80 -170) rotate(51 -120.205 1281.921)">
                                        <use fill="#000" filter="url(#prefix__x)" xlink:href="#prefix__y"/>
                                        <use fill="#56AE71" xlink:href="#prefix__y"/>
                                        <path stroke="#236F36" stroke-linecap="round" stroke-linejoin="round" stroke-width="2" d="M40.353 84.211c-1.97 4.391.86 10.281 5.5 11.614 3.836 1.102 14.705-2.334 10.048-8.163-1.497-1.873-3.77-1.68-4.083.755-.296 2.313 2.48 4.14 4.235 4.83 3.198 1.254 11.127-1.283 8.59-5.882-1.578 7.174 10.241 1.227 12.086-1.353 2.85-3.991-.905-8.49-5.653-7.936" opacity=".834"/>
                                        <path stroke="#236F36" stroke-linecap="round" stroke-linejoin="round" stroke-width="2" d="M83.175 13.975c3.012-2.219 10.669 6.11 7.575 11.003 3.55.073 7.789 3.513 8.826 7.103 1.517 5.248-3.599 5.757-6.315 8.216 3.038 1.968 4.901 6.033 4.197 9.786-1.02 5.438-10.37 9.928-14.607 6.089" opacity=".803"/>
                                        <path stroke="#236F36" stroke-linecap="round" stroke-linejoin="round" stroke-width="2" d="M52.008 41.649c-10.11-16.691 12.589-9.696 8.909-3.579-1.701 2.828-8.677-2.382-2.59-3.578 2.22-.436 4.547-.556 6.787-.235.952.137 2.123.656 2.41 1.554.974 3.036.726 15.056-6.786 10.452-3.816-2.34 3.38-3.327 4.821-2.495 11.096 6.41.873 16.673-8.483 16.195-3.132-.16-4.668-5.09-.535-5.791 4.147-.703 6.219 5.424 2.322 6.922-2.56.984-5.2 2.074-7.948 2.164-3.205.106-15.28-6.343-10.357-11.675 4.925-5.333 9.474-.707 9.732.518.137.65-.943 1.085-1.607 1.225-5.976 1.259-6.175-3.845-5.893-8.005" opacity=".744"/>
                                    </g>
                                    <g transform="translate(-80 -170) rotate(-170 385.122 261.816)">
                                        <use fill="#000" filter="url(#prefix__z)" xlink:href="#prefix__A"/>
                                        <use fill="#56AE71" xlink:href="#prefix__A"/>
                                        <path stroke="#2C8542" stroke-linecap="round" stroke-linejoin="round" stroke-width="2" d="M45.736 97.212c-2.282 5.123.994 11.995 6.368 13.549 4.441 1.286 17.027-2.722 11.635-9.523-1.733-2.185-4.366-1.96-4.728.88-.343 2.7 2.872 4.831 4.904 5.635 3.703 1.464 12.883-1.496 9.947-6.862-1.828 8.37 11.857 1.432 13.993-1.578 3.301-4.656-1.047-9.904-6.545-9.259" opacity=".834"/>
                                        <path stroke="#2C8542" stroke-linecap="round" stroke-linejoin="round" stroke-width="2" d="M96.381 15.427c3.544-2.572 12.551 7.081 8.912 12.753 4.175.085 9.163 4.072 10.383 8.233 1.784 6.084-4.234 6.673-7.43 9.523 3.575 2.282 5.767 6.993 4.938 11.343-1.2 6.304-12.2 11.507-17.184 7.058" opacity=".803"/>
                                    </g>
                                    <g transform="translate(-80 -170) rotate(105 467.134 942.463)">
                                        <use fill="#000" filter="url(#prefix__B)" xlink:href="#prefix__C"/>
                                        <use fill="#56AE71" xlink:href="#prefix__C"/>
                                        <path stroke="#236F36" stroke-linecap="round" stroke-linejoin="round" stroke-width="3" d="M53.934 67.963c.85-5.648 9.273-10.771-2.125-13.637-3.49-.876-10.832-.75-12.7 2.83-1.621 3.1 1.27 7.487 4.107 4.372 6.197-6.796-9.705-9.922-14.115-6.891-3.07 2.11-5.656 7.304-4.338 11.056 1.786 5.075 5.628 3.837 10.832 3.601 1.521-15.35-25.85 11.947-6.588 10.356-13.525 1.669-12.144 15.472 2.108 14.97-5.425-.743-13.488 3.28-9.61 9.743 3.514 5.853 23.091 6.52 20.603-3.227-2.114 5.388-1.415 10.92 6.203 12.232 9.705 1.669 21.37-16.151 10.737-18.148 8.468 3.534 15.629-6.967 5.818-9.965" opacity=".721"/>
                                        <path stroke="#236F36" stroke-linecap="round" stroke-linejoin="round" stroke-width="3" d="M86.296 181.886c-4.253 9.513 1.854 22.275 11.868 25.162 8.277 2.388 31.731-5.056 21.684-17.685-3.23-4.059-8.137-3.64-8.813 1.635-.638 5.012 5.353 8.971 9.14 10.464 6.9 2.719 24.01-2.778 18.537-12.744-3.405 15.545 22.099 2.66 26.079-2.93 6.152-8.648-1.952-18.394-12.198-17.196" opacity=".834"/>
                                    </g>
                                    <g transform="translate(-80 -170) rotate(40 82.944 227.934)">
                                        <use fill="#000" filter="url(#prefix__D)" xlink:href="#prefix__E"/>
                                        <use fill="#56AE71" xlink:href="#prefix__E"/>
                                        <path stroke="#FFF" stroke-linecap="round" stroke-linejoin="round" stroke-width="2" d="M63.73 79.571c1.003-6.683 10.941-12.745-2.508-16.137-4.118-1.036-12.781-.887-14.987 3.348-1.912 3.67 1.499 8.86 4.848 5.175 7.311-8.042-11.453-11.74-16.657-8.154-3.622 2.496-6.674 8.642-5.118 13.083 2.107 6.006 6.64 4.54 12.78 4.261 1.796-18.165-30.502 14.137-7.773 12.255-15.96 1.974-14.329 18.308 2.487 17.715-6.4-.88-15.915 3.88-11.339 11.528 4.146 6.927 27.248 7.714 24.312-3.819-2.495 6.377-1.67 12.922 7.319 14.475 11.452 1.974 25.217-19.112 12.67-21.476 9.992 4.182 18.442-8.243 6.866-11.791" opacity=".721"/>
                                        <path stroke="#2C8542" stroke-linecap="round" stroke-linejoin="round" stroke-width="4" d="M212.513 35.277c7.796-5.648 27.613 15.55 19.605 28.007 9.186.186 20.16 8.942 22.844 18.08 3.925 13.36-9.314 14.654-16.345 20.913 7.864 5.011 12.686 15.357 10.863 24.91-2.641 13.843-26.842 25.27-37.805 15.5" opacity=".803"/>
                                    </g>
                                    <path stroke="#449659" stroke-linecap="round" stroke-linejoin="round" stroke-width="4" d="M1423.704 309.726c.884-5.742 9.643-10.95-2.21-13.864-3.63-.89-11.265-.763-13.21 2.876-1.684 3.154 1.322 7.613 4.273 4.446 6.445-6.909-10.093-10.087-14.68-7.006-3.192 2.145-5.882 7.426-4.511 11.24 1.858 5.16 5.853 3.901 11.265 3.662 1.582-15.607-26.884 12.146-6.852 10.528-14.066 1.697-12.629 15.73 2.192 15.22-5.641-.755-14.027 3.334-9.993 9.905 3.654 5.951 24.014 6.628 21.427-3.28-2.2 5.478-1.472 11.101 6.45 12.435 10.094 1.697 22.225-16.42 11.168-18.45 8.806 3.592 16.253-7.083 6.05-10.131" opacity=".721" transform="translate(-80 -170)"/>
                                    <path stroke="#449659" stroke-linecap="round" stroke-linejoin="round" stroke-width="4" d="M284.634 737.028c11.465 6.875-4.98 43.7-25.29 40.262 4.738 11.823-.543 30.592-10.805 38.99-15.004 12.281-23.835-3.91-35.667-9.476-2.166 12.763-12.818 24.547-26.055 27.42-19.18 4.163-46.94-20.501-40.35-39.81" opacity=".803" transform="translate(-80 -170)"/>
                                    <path stroke="#449659" stroke-linecap="round" stroke-linejoin="round" stroke-width="4" d="M274.53 713.132c11.309 6.146 27.512-.41 31.934-12.711 3.658-10.166-3.427-40.194-19.813-28.689-5.266 3.7-5.182 9.884 1.236 11.183 6.097 1.23 11.483-5.937 13.648-10.555 3.943-8.412-1.307-30.323-14.022-24.32 18.786 5.6 5.2-27.463-1.314-32.93-10.078-8.452-22.754.866-22.18 13.808" opacity=".834" transform="translate(-80 -170)"/>
                                </g>
                            </g>
                        </g>
                    </g>
                    <g>
                        <path fill="#84C497" d="M23.012 53.19c14.75 3.292 27.116 1.313 37.094-5.937 14.968-10.875 22.629-25.848 17.11-33.444-5.519-7.596-22.126-4.937-37.094 5.938-9.98 7.25-15.682 18.398-17.11 33.444z" style="mix-blend-mode:multiply" transform="translate(50.357 425.944)"/>
                        <path fill="#004D4B" d="M53.124 31.84c1.664 2.29 1.156 5.494-1.134 7.157-.097.071-.197.139-.3.203L5.508 68.004c-.492.307-1.135.194-1.493-.26-.352-.447-.288-1.091.145-1.46l41.542-35.33c2.143-1.824 5.358-1.564 7.181.58.084.098.165.2.241.306z" transform="translate(50.357 425.944)"/>
                    </g>
                    <g>
                        <path fill="#84C497" d="M15.951 37.16c10.226 2.3 18.797.918 25.714-4.147C52.04 25.415 57.35 14.954 53.525 9.647c-3.826-5.306-15.338-3.449-25.713 4.149-6.917 5.065-10.87 12.853-11.86 23.365z" style="mix-blend-mode:multiply" transform="rotate(-99 366.857 101.41)"/>
                        <path fill="#004D4B" d="M36.825 22.244c1.161 1.611.797 3.86-.815 5.02-.061.045-.124.088-.189.128L3.82 47.51c-.341.214-.79.136-1.037-.181-.244-.313-.2-.762.101-1.02l28.79-24.679c1.477-1.266 3.701-1.095 4.968.382.064.075.125.153.183.233z" transform="rotate(-99 366.857 101.41)"/>
                    </g>
                    <g>
                        <path fill="#84C497" d="M25.804 103.197c18.774-12.309 29.406-27.542 31.897-45.7C61.436 30.258 53.21 6.558 39.33 4.56 25.45 2.563 11.168 23.024 7.433 50.26c-2.49 18.16 3.633 35.804 18.37 52.936z" style="mix-blend-mode:multiply" transform="rotate(19 -294.038 4189.878)"/>
                        <path fill="#004D4B" d="M31.673 48.63l4.538.652c3.006.433 5.093 3.221 4.66 6.228-.017.117-.037.233-.062.349l-17.113 81.357c-.178.845-.965 1.42-1.824 1.33-.846-.089-1.472-.827-1.421-1.675l4.948-83.125c.18-3.032 2.785-5.344 5.817-5.163.153.01.305.025.457.046z" transform="rotate(19 -294.038 4189.878)"/>
                    </g>
                    <g>
                        <path fill="#84C497" d="M13.336 31.332c8.55 1.938 15.715.773 21.498-3.498 8.675-6.406 13.115-15.226 9.916-19.7-3.198-4.474-12.823-2.908-21.498 3.498-5.783 4.27-9.088 10.837-9.916 19.7z" style="mix-blend-mode:multiply" transform="rotate(104 478.639 457.002)"/>
                        <path fill="#004D4B" d="M30.788 18.755c.979 1.369.662 3.272-.707 4.251-.046.033-.093.065-.14.095L3.194 40.055c-.285.181-.661.116-.868-.151-.205-.264-.167-.642.085-.86L26.477 18.24c1.227-1.061 3.082-.926 4.143.301.06.068.115.14.168.213z" transform="rotate(104 478.639 457.002)"/>
                    </g>
                    <g>
                        <path fill="#84C497" d="M15.951 37.16c10.226 2.3 18.797.918 25.714-4.147C52.04 25.415 57.35 14.954 53.525 9.647c-3.826-5.306-15.338-3.449-25.713 4.149-6.917 5.065-10.87 12.853-11.86 23.365z" style="mix-blend-mode:multiply" transform="rotate(65 470.428 856.337)"/>
                        <path fill="#004D4B" d="M36.825 22.244c1.161 1.611.797 3.86-.815 5.02-.061.045-.124.088-.189.128L3.82 47.51c-.341.214-.79.136-1.037-.181-.244-.313-.2-.762.101-1.02l28.79-24.679c1.477-1.266 3.701-1.095 4.968.382.064.075.125.153.183.233z" transform="rotate(65 470.428 856.337)"/>
                    </g>
                    <path d="M598.474 735.278c12.229-8.936 18.861-19.553 19.897-31.85 1.554-18.446-4.834-34.093-14.27-34.948-9.434-.856-18.343 13.404-19.897 31.85-1.036 12.297 3.72 23.946 14.27 34.948z" style="mix-blend-mode:multiply" fill="#84C497"/>
                    <g>
                        <path fill="#84C497" d="M12.552 29.146c8.046 1.803 14.79.719 20.233-3.254 8.165-5.959 12.343-14.163 9.333-18.325-3.01-4.162-12.07-2.706-20.234 3.253-5.442 3.973-8.553 10.081-9.332 18.326z" style="mix-blend-mode:multiply" transform="rotate(-152 237.72 210.48)"/>
                        <path fill="#004D4B" d="M28.977 17.446c.911 1.26.628 3.02-.632 3.932-.05.036-.102.07-.155.104L3.005 37.262c-.268.168-.62.107-.815-.142-.192-.245-.157-.598.08-.8l22.656-19.357c1.165-.996 2.916-.858 3.912.307.049.057.095.116.139.176z" transform="rotate(-152 237.72 210.48)"/>
                    </g>
                    <g>
                        <path fill="#84C497" d="M70.077 69.842c.964-17.404-3.679-31.18-13.928-41.326-15.373-15.22-34.062-21.393-41.744-13.79-7.681 7.605-1.446 26.108 13.927 41.328C38.582 66.2 52.496 70.796 70.077 69.842z" style="mix-blend-mode:multiply" transform="rotate(19 -386.493 3916.396)"/>
                        <path fill="#004D4B" d="M39.512 39.374l.594-.588c2.159-2.137 5.641-2.12 7.778.04.077.077.151.157.224.239l42.369 48.23c.439.499.427 1.25-.026 1.735-.447.48-1.192.522-1.69.098L39.816 47.47c-2.313-1.969-2.592-5.44-.624-7.753.102-.12.208-.234.32-.344z" transform="rotate(19 -386.493 3916.396)"/>
                    </g>
                    <g>
                        <path fill="#84C497" d="M12.552 29.146c8.046 1.803 14.79.719 20.233-3.254 8.165-5.959 12.343-14.163 9.333-18.325-3.01-4.162-12.07-2.706-20.234 3.253-5.442 3.973-8.553 10.081-9.332 18.326z" style="mix-blend-mode:multiply" transform="rotate(173 176.443 268.214)"/>
                        <path fill="#004D4B" d="M28.977 17.446c.911 1.26.628 3.02-.632 3.932-.05.036-.102.07-.155.104L3.005 37.262c-.268.168-.62.107-.815-.142-.192-.245-.157-.598.08-.8l22.656-19.357c1.165-.996 2.916-.858 3.912.307.049.057.095.116.139.176z" transform="rotate(173 176.443 268.214)"/>
                    </g>
                    <g>
                        <path fill="#84C497" d="M81.635 33.633c-9.204-14.895-20.97-23.538-35.296-25.93C24.85 4.116 5.81 9.91 3.813 20.643 1.818 31.377 17.62 42.986 39.11 46.573c14.326 2.391 28.501-1.922 42.525-12.94z" style="mix-blend-mode:multiply" transform="rotate(19 -610.572 3860.468)"/>
                        <path fill="#004D4B" d="M38.788 26.337l.176-.943c.555-2.986 3.426-4.956 6.413-4.401.092.017.184.037.276.059l62.918 15.08c.651.156 1.076.783.98 1.445-.096.657-.688 1.124-1.348 1.064l-64.502-5.82c-3.025-.273-5.256-2.947-4.983-5.972.015-.172.039-.342.07-.512z" transform="rotate(19 -610.572 3860.468)"/>
                    </g>
                    <g>
                        <path fill="#84C497" d="M23.012 53.19c14.75 3.292 27.116 1.313 37.094-5.937 14.968-10.875 22.629-25.848 17.11-33.444-5.519-7.596-22.126-4.937-37.094 5.938-9.98 7.25-15.682 18.398-17.11 33.444z" style="mix-blend-mode:multiply" transform="rotate(40 -567.9 389.894)"/>
                        <path fill="#004D4B" d="M53.124 31.84c1.664 2.29 1.156 5.494-1.134 7.157-.097.071-.197.139-.3.203L5.508 68.004c-.492.307-1.135.194-1.493-.26-.352-.447-.288-1.091.145-1.46l41.542-35.33c2.143-1.824 5.358-1.564 7.181.58.084.098.165.2.241.306z" transform="rotate(40 -567.9 389.894)"/>
                    </g>
                    <g>
                        <path fill="#84C497" d="M23.053 30.158c-5.58 18.67-4.142 34.746 4.317 48.228C40.058 98.61 58.696 109.805 69 103.392c10.304-6.413 8.372-28.005-4.316-48.228-8.459-13.482-22.336-21.817-41.63-25.006z" style="mix-blend-mode:multiply" transform="translate(50 107)"/>
                        <path fill="#004D4B" d="M48.875 70.187l-2.018 1.256c-2.58 1.605-5.97.816-7.576-1.763-.065-.105-.126-.212-.184-.32L5.51 6.323c-.352-.66-.149-1.48.47-1.899.609-.412 1.434-.271 1.871.32L50.39 62.247c1.807 2.442 1.292 5.886-1.15 7.692-.119.088-.24.17-.365.248z" transform="translate(50 107)"/>
                    </g>
                    <g>
                        <path fill="#84C497" d="M7.597 9.88c-1.84 6.116-1.365 11.382 1.423 15.798 4.18 6.625 10.323 10.293 13.719 8.192 3.395-2.1 2.759-9.174-1.423-15.799-2.787-4.416-7.36-7.147-13.719-8.192z" style="mix-blend-mode:multiply" transform="translate(598 438)"/>
                        <path fill="#004D4B" d="M15.785 23.191c-1.033.64-2.388.32-3.026-.713-.024-.038-.047-.078-.068-.118L1.817 2.072c-.116-.216-.05-.485.154-.623.2-.135.473-.089.617.106l13.79 18.53c.707.95.51 2.295-.441 3.003-.05.037-.1.071-.152.103z" transform="translate(598 438)"/>
                    </g>
                    <g>
                        <path fill="#84C497" d="M7.597 9.88c-1.84 6.116-1.365 11.382 1.423 15.798 4.18 6.625 10.323 10.293 13.719 8.192 3.395-2.1 2.759-9.174-1.423-15.799-2.787-4.416-7.36-7.147-13.719-8.192z" style="mix-blend-mode:multiply" transform="rotate(30 -510.587 1313.697)"/>
                        <path fill="#004D4B" d="M15.785 23.191c-1.033.64-2.388.32-3.026-.713-.024-.038-.047-.078-.068-.118L1.817 2.072c-.116-.216-.05-.485.154-.623.2-.135.473-.089.617.106l13.79 18.53c.707.95.51 2.295-.441 3.003-.05.037-.1.071-.152.103z" transform="rotate(30 -510.587 1313.697)"/>
                    </g>
                    <g>
                        <path fill="#84C497" d="M19.326 18.21C10.152 24.32 4.94 31.86 3.692 40.825c-1.873 13.448 2.09 25.128 8.852 26.087 6.762.96 13.762-9.165 15.635-22.614 1.248-8.966-1.703-17.662-8.853-26.088z" style="mix-blend-mode:multiply" transform="translate(25 117)"/>
                        <path fill="#004D4B" d="M15.283 44.997c-2.045-.29-3.467-2.182-3.177-4.227.012-.084.026-.166.044-.249l8.27-39.113c.088-.412.471-.692.89-.65.411.042.716.402.69.814l-2.506 39.994c-.127 2.04-1.884 3.589-3.923 3.46-.096-.005-.192-.015-.288-.029z" transform="translate(25 117)"/>
                    </g>
                    <g>
                        <path fill="#84C497" d="M33.27 22.257c9.014 18.047 21.507 29.199 37.477 33.455C94.7 62.097 116.76 57.47 120.019 45.38c3.257-12.092-13.522-27.07-37.477-33.455-15.97-4.257-32.394-.812-49.272 10.333z" style="mix-blend-mode:multiply" transform="rotate(41 255.42 972.637)"/>
                        <path fill="#004D4B" d="M81.273 34.207l-.737 2.737c-.79 2.933-3.808 4.67-6.741 3.88-.12-.032-.239-.068-.356-.109L3.068 16.548c-.73-.251-1.154-1.012-.983-1.765.169-.739.89-1.213 1.636-1.074l73.25 13.66c2.986.557 4.955 3.43 4.398 6.415-.026.142-.058.283-.096.423z" transform="rotate(41 255.42 972.637)"/>
                    </g>
                    <g>
                        <path fill="#84C497" d="M17.64 21.904c-3.351 13.857-1.686 25.55 4.996 35.08C32.658 71.277 46.67 78.747 53.935 73.668c7.264-5.08 5.027-20.785-4.995-35.08-6.682-9.529-17.115-15.09-31.3-16.685z" style="mix-blend-mode:multiply" transform="rotate(41 209.396 959.065)"/>
                        <path fill="#004D4B" d="M37.306 50.653c-2.192 1.533-5.212.998-6.745-1.194-.064-.092-.125-.186-.183-.282L3.94 5.154c-.282-.469-.165-1.074.27-1.404.428-.325 1.035-.254 1.376.16l32.677 39.756c1.685 2.05 1.389 5.076-.66 6.76-.097.08-.196.155-.298.227z" transform="rotate(41 209.396 959.065)"/>
                    </g>
                    <g>
                        <path fill="#84C497" d="M54.592 13.758C45.578 5.993 36.265 2.8 26.655 4.176 12.24 6.243 1.375 13.882 2.389 21.24c1.014 7.358 13.522 11.648 27.938 9.582 9.61-1.377 17.699-7.065 24.265-17.064z" style="mix-blend-mode:multiply" transform="rotate(40 -123.451 1408.52)"/>
                        <path fill="#004D4B" d="M25.787 17.546c-.307-2.229 1.251-4.285 3.48-4.592.088-.012.177-.022.266-.028l42.69-3.05c.456-.032.863.285.944.735.078.443-.206.87-.645.968L30.628 20.91c-2.16.48-4.301-.88-4.783-3.04-.023-.108-.043-.216-.058-.325z" transform="rotate(40 -123.451 1408.52)"/>
                    </g>
                    <g>
                        <path fill="#84C497" d="M36.892 27.993c-1.37-8.351-4.96-14.356-10.768-18.014C17.412 4.492 8.107 3.66 5.341 8.121 2.576 12.582 7.396 20.647 16.11 26.135c5.808 3.658 12.736 4.277 20.783 1.858z" style="mix-blend-mode:multiply" transform="rotate(40 -83.87 1449.374)"/>
                        <path fill="#004D4B" d="M19.636 16.843c.827-1.335 2.58-1.746 3.915-.919.063.04.124.08.184.124l24.423 17.92c.261.192.338.55.178.832-.157.276-.504.377-.784.23L20.735 20.89c-1.4-.738-1.937-2.473-1.199-3.874.031-.059.064-.117.1-.173z" transform="rotate(40 -83.87 1449.374)"/>
                    </g>
                </g>
            </g>
        </g>
        <g transform="translate(1122 1)">
            <path stroke="#787878" stroke-width="7" d="M8.5 8L4.715 217" filter="url(#prefix__F)" opacity=".666"/>
            <path stroke="#787878" stroke-width="7" d="M8.5 8L4.715 217" filter="url(#prefix__G)" opacity=".666"/>
            <use stroke="#FFF" stroke-width="38" xlink:href="#prefix__H"/>
            <use stroke="#949494" stroke-width="30" xlink:href="#prefix__H"/>
            <path stroke="#FFF" stroke-dasharray="18" stroke-width="3" d="M0.76 0L4.061 217"/>
        </g>
    </g>
</svg>
