<svg xmlns="http://www.w3.org/2000/svg" xmlns:xlink="http://www.w3.org/1999/xlink" width="1366" height="768" viewBox="0 0 1366 768">
    <defs>
        <linearGradient id="prefix__d" x1="50%" x2="50%" y1="-10.97%" y2="72.262%">
            <stop offset="0%" stop-color="#2A83C6"/>
            <stop offset="100%" stop-color="#95C0D6"/>
        </linearGradient>
        <linearGradient id="prefix__e" x1="47.666%" x2="38.089%" y1="48.138%" y2="53.04%">
            <stop offset="0%" stop-color="#FFF" stop-opacity="0"/>
            <stop offset="100%" stop-color="#FFF"/>
        </linearGradient>
        <linearGradient id="prefix__f" x1="47.671%" x2="38.113%" y1="48.138%" y2="53.04%">
            <stop offset="0%" stop-color="#FFF" stop-opacity="0"/>
            <stop offset="100%" stop-color="#FFF"/>
        </linearGradient>
        <linearGradient id="prefix__g" x1="35.22%" x2="52.169%" y1="23.303%" y2="70.787%">
            <stop offset="0%" stop-color="#85C8C9"/>
            <stop offset="100%" stop-color="#2CABA8"/>
        </linearGradient>
        <linearGradient id="prefix__h" x1="35.24%" x2="52.166%" y1="23.303%" y2="70.787%">
            <stop offset="0%" stop-color="#85C8C9"/>
            <stop offset="100%" stop-color="#2CABA8"/>
        </linearGradient>
        <linearGradient id="prefix__i" x1="50%" x2="26.71%" y1="40.722%" y2="59.278%">
            <stop offset="0%" stop-color="#A2D7D7"/>
            <stop offset="100%" stop-color="#C2E5E5"/>
        </linearGradient>
        <linearGradient id="prefix__j" x1="50%" x2="26.71%" y1="40.73%" y2="59.27%">
            <stop offset="0%" stop-color="#7BC6C7"/>
            <stop offset="100%" stop-color="#C2E5E5"/>
        </linearGradient>
        <linearGradient id="prefix__k" x1="40.03%" x2="51.463%" y1="23.303%" y2="70.787%">
            <stop offset="0%" stop-color="#85C8C9"/>
            <stop offset="100%" stop-color="#2CABA8"/>
        </linearGradient>
        <linearGradient id="prefix__l" x1="40.085%" x2="51.455%" y1="23.303%" y2="70.787%">
            <stop offset="0%" stop-color="#85C8C9"/>
            <stop offset="100%" stop-color="#26928F"/>
        </linearGradient>
        <linearGradient id="prefix__m" x1="50%" x2="50%" y1="0%" y2="100%">
            <stop offset="0%" stop-color="#00ADAA"/>
            <stop offset="100%" stop-color="#C6E6E7"/>
        </linearGradient>
        <linearGradient id="prefix__n" x1="27.292%" x2="60.918%" y1="57.107%" y2="50%">
            <stop offset="0%" stop-color="#1B547E"/>
            <stop offset="100%" stop-color="#1A557F" stop-opacity=".24"/>
        </linearGradient>
        <linearGradient id="prefix__q" x1="50%" x2="50%" y1="0%" y2="100%">
            <stop offset="0%" stop-color="#FFF"/>
            <stop offset="99.153%" stop-color="#FFF" stop-opacity="0"/>
        </linearGradient>
        <linearGradient id="prefix__r" x1="50%" x2="50%" y1="0%" y2="100%">
            <stop offset="0%" stop-color="#FFF"/>
            <stop offset="99.153%" stop-color="#FFF" stop-opacity="0"/>
        </linearGradient>
        <filter id="prefix__a" width="13900%" height="267.1%" x="-6900%" y="-83.5%" filterUnits="objectBoundingBox">
            <feGaussianBlur in="SourceGraphic" stdDeviation="22"/>
        </filter>
        <filter id="prefix__b" width="24700%" height="424.3%" x="-12300%" y="-162.2%" filterUnits="objectBoundingBox">
            <feGaussianBlur in="SourceGraphic" stdDeviation="40"/>
        </filter>
        <filter id="prefix__o" width="100%" height="100%" x="0%" y="0%" filterUnits="objectBoundingBox">
            <feGaussianBlur in="SourceGraphic"/>
        </filter>
        <filter id="prefix__p" width="131.1%" height="134.4%" x="-15.6%" y="-17.2%" filterUnits="objectBoundingBox">
            <feGaussianBlur in="SourceGraphic" stdDeviation="11"/>
        </filter>
        <path id="prefix__c" d="M15.768.875v89"/>
        <path id="prefix__s" d="M0 0H425V251H0z"/>
        <radialGradient id="prefix__u" cx="50%" cy="50%" r="141.421%" fx="50%" fy="50%" gradientTransform="matrix(-.49707 0 0 -.6462 .749 .823)">
            <stop offset="0%" stop-color="#FFF"/>
            <stop offset="100%" stop-color="#00AFAC"/>
        </radialGradient>
    </defs>
    <g fill="none" fill-rule="evenodd">
        <path fill="#FFF" d="M0 0H1366V10344H0z" transform="translate(0 -9203)"/>
        <g>
            <g transform="translate(0 -9203) translate(-2 9202) translate(692)">
                <path stroke="#787878" stroke-width="7" d="M0.78 10.875L0.78 89.875" filter="url(#prefix__a)" opacity=".666"/>
                <path stroke="#787878" stroke-width="7" d="M0.78 15.875L0.78 89.875" filter="url(#prefix__b)" opacity=".666"/>
                <use stroke="#FFF" stroke-width="38" xlink:href="#prefix__c"/>
                <use stroke="#949494" stroke-width="30" xlink:href="#prefix__c"/>
                <path stroke="#FFF" stroke-dasharray="18" stroke-width="3" d="M15.768 3.875L15.768 89.875"/>
            </g>
            <g transform="translate(0 -9203) translate(-2 9202) translate(0 79)">
                <g>
                    <path fill="url(#prefix__d)" d="M0 0H1366V679H0z" opacity=".23" transform="translate(2 11)"/>
                    <path fill="url(#prefix__e)" d="M1061.3 199.91c0-59.75 55.218-100.811 63.897-155.509C1134.424-13.749 1163.531-40.6 1201-53h-80.942c-26.488 8.765-48.786 24.771-62.846 53.932-5.83 12.09-14.43 15.393-17.135 32.436C1031.398 88.065 973 118.876 973 178.628c0 65.655 44.251 65.655 62.955 149.782 9.135 41.093 6.656 65.685 21.257 94.157 2.64 5.149 6.126 9.814 10.796 13.779 7.955 6.755 18.65 11.835 30.881 15.654h80.943c-12.233-3.819-22.927-8.9-30.882-15.654-30.487-25.887-10.737-81.547-32.053-107.936-37.272-46.14-55.597-62.844-55.597-128.5z" transform="translate(2 11) rotate(90 1087 199.5)"/>
                    <path fill="url(#prefix__f)" d="M784.774 132.315c0-45.907 42.383-77.455 49.044-119.48C840.9-31.843 863.241-52.474 892-62h-62.127c-20.33 6.734-37.445 19.032-48.236 41.437-4.475 9.29-11.077 11.827-13.153 24.92C761.824 46.384 717 70.057 717 115.964c0 50.445 33.965 50.445 48.32 115.08 7.013 31.573 5.11 50.468 16.317 72.343 2.026 3.956 4.702 7.54 8.286 10.587 6.106 5.19 14.314 9.093 23.703 12.027h62.126c-9.388-2.934-17.597-6.837-23.703-12.027-23.4-19.89-8.24-62.655-24.602-82.93-28.608-35.45-42.673-48.283-42.673-98.728z" opacity=".549" transform="translate(2 11) matrix(0 1 1 0 672.5 -672.5)"/>
                </g>
                <g opacity=".764">
                    <path fill="url(#prefix__g)" d="M24.445 3.897C22.05 6.717 6.427 41.592 1.844 56.63.586 60.757.008 64.55 0 68.01v.15c.093 39.159 73.396 35.313 59.12-11.53C54.537 41.592 38.914 6.717 36.52 3.897 34.33 1.32 32.406.034 30.482.034c-1.924 0-3.849 1.287-6.037 3.863" transform="translate(375 300)"/>
                    <path fill="#FFF" d="M38.28 81.327c2.93.184 5.243-.574 6.937-2.273 2.542-2.548 3.557-5.662 2.267-6.955-1.29-1.293-4.396-.275-6.937 2.273-1.694 1.698-2.45 4.017-2.267 6.955z" transform="translate(375 300)"/>
                    <g fill="#208382" transform="translate(375 300) translate(21.875 15.193)">
                        <rect width="2.137" height="97.193" x="7.771" rx="1.068"/>
                        <path d="M16.846 14.177c.417.419.417 1.096 0 1.515l-6.731 6.749c-.417.417-1.092.418-1.51.002 0 0 0-.002-.002-.002-.417-.419-.417-1.097 0-1.515l6.732-6.749c.416-.417 1.091-.418 1.509-.002l.002.002zM16.846 35.603c.417.418.417 1.096 0 1.515l-6.731 6.748c-.417.417-1.092.418-1.51.002l-.002-.002c-.417-.419-.417-1.096 0-1.515l6.732-6.748c.416-.418 1.091-.419 1.509-.002l.002.002zM21.177 61.527c.418.419.418 1.097 0 1.515L10.6 73.647c-.416.418-1.092.419-1.51.002l-.001-.002c-.418-.418-.418-1.096 0-1.515l10.577-10.605c.416-.417 1.092-.418 1.51-.002l.001.002zM.833 22.358c.416-.418 1.092-.418 1.509-.002l.002.002 6.73 6.748c.418.42.418 1.097 0 1.515-.415.418-1.091.419-1.508.002l-.002-.002-6.731-6.748c-.418-.419-.418-1.097 0-1.515zM.833 50.6c.416-.417 1.092-.418 1.509-.002l.002.002 6.73 6.749c.418.419.418 1.096 0 1.515-.415.417-1.091.418-1.508.002l-.002-.002-6.731-6.749c-.418-.418-.418-1.096 0-1.515zM2.034 5.545c.416-.417 1.092-.418 1.509-.002l.002.002 5.495 5.51c.417.418.417 1.095 0 1.514-.417.417-1.092.418-1.51.002l-.002-.002L2.034 7.06c-.418-.419-.418-1.096 0-1.515z"/>
                    </g>
                </g>
                <g>
                    <path fill="url(#prefix__h)" d="M30.857 4.922c-3.025 3.562-22.744 47.615-28.53 66.61C.74 76.745.011 81.538 0 85.908v.19c.117 49.462 92.647 44.604 74.627-14.566-5.786-18.995-25.506-63.048-28.53-66.61-2.761-3.253-5.19-4.88-7.62-4.88-2.429 0-4.858 1.627-7.62 4.88" transform="translate(319 284)"/>
                    <path fill="#FFF" d="M42.01 71.15c3.699.232 6.617-.725 8.756-2.87 3.208-3.22 4.49-7.153 2.861-8.786-1.628-1.634-5.548-.348-8.756 2.87-2.14 2.146-3.093 5.075-2.861 8.786z" opacity=".506" transform="translate(319 284)"/>
                    <path fill="#FFFFEF" d="M34.99 53.928c.232-3.712-.722-6.64-2.86-8.786-3.209-3.219-7.13-4.504-8.757-2.87-1.628 1.633-.347 5.566 2.86 8.785 2.14 2.146 5.058 3.103 8.757 2.87z" transform="translate(319 284)"/>
                    <g fill="#208382" transform="translate(319 284) translate(27.613 19.19)">
                        <rect width="2.697" height="122.771" x="9.809" rx="1.349"/>
                        <path d="M21.264 17.908c.527.529.527 1.385 0 1.914l-8.496 8.524c-.525.527-1.378.528-1.905.003l-.003-.003c-.527-.529-.527-1.384 0-1.913l8.497-8.525c.525-.527 1.377-.528 1.904-.003l.003.003zM21.264 44.972c.527.529.527 1.384 0 1.913l-8.496 8.525c-.525.527-1.378.528-1.905.003l-.003-.003c-.527-.53-.527-1.385 0-1.914l8.497-8.524c.525-.527 1.377-.529 1.904-.004l.003.004zM26.732 77.719c.527.529.527 1.384 0 1.913L13.38 93.028c-.525.527-1.377.528-1.904.003l-.003-.003c-.527-.529-.527-1.384 0-1.913l13.351-13.396c.525-.527 1.378-.528 1.905-.003l.003.003zM1.051 28.241c.525-.526 1.378-.528 1.904-.003l.004.003 8.496 8.525c.527.529.527 1.385 0 1.914-.525.526-1.377.528-1.904.003l-.003-.003-8.497-8.525c-.527-.529-.527-1.385 0-1.914zM1.051 63.916c.525-.527 1.378-.528 1.904-.003l.004.003 8.496 8.525c.527.529.527 1.384 0 1.913-.525.527-1.377.529-1.904.004l-.003-.004L1.05 65.83c-.527-.53-.527-1.385 0-1.914zM2.567 7.004c.525-.526 1.378-.528 1.904-.003l.004.003 6.936 6.96c.527.528.527 1.384 0 1.913-.525.527-1.378.528-1.905.003l-.003-.003-6.936-6.959c-.527-.529-.527-1.385 0-1.914z"/>
                    </g>
                </g>
                <rect width="86" height="225" x="453" y="284" fill="#95C0D6" rx="43"/>
                <path fill="#4599D8" d="M734.892 289.347l50 32.889c5.06 3.329 8.108 8.98 8.108 15.038V478c0 9.941-8.059 18-18 18h-50c-9.941 0-18-8.059-18-18V304.385c0-9.941 8.059-18 18-18 3.516 0 6.955 1.03 9.892 2.962z" opacity=".69"/>
                <rect width="129" height="285" x="539" y="211" fill="#6BAEE0" opacity=".357" rx="31"/>
                <path fill="url(#prefix__i)" d="M2 692.545c432.439 0 819.938-5.003 818-1.43 0-146.516-385.561-340.546-818-340.546-3.094 6.2-.363 104.167-.363 250.683S.89 694.504 2 692.545z"/>
                <path fill="url(#prefix__j)" d="M2 350.57c432.439 0 818 194.03 818 340.545.125-.231-1.377-.426-4.412-.59C775.098 546.039 459.85 357.723 2 416.032c-.258 2.152-.357 64.774-.363 202.25v12.97c0 29.242-.03 50.525-.069 65.847-.112 2.587-.161 5.457-.174 6.255l-.002.075.002-.051c.025-2.104.235-22.24.242-97.79v-4.335c0-146.516-2.73-244.483.364-250.683z" opacity=".286" style="mix-blend-mode:multiply"/>
                <g>
                    <path fill="url(#prefix__k)" d="M37.915 44.336c-.373-2.014-1.442-3.7-2.966-4.934-1.335-1.081-1.89-3.095-1.378-4.916 1.222-4.351 2.735-11.537.314-13.986-.906-.916-1.99-1.473-3.176-1.7-1.893-.358-3.267-2.326-3.262-4.603v-.052C27.447 6.332 23.666 0 19 0c-4.666 0-8.447 6.332-8.447 14.145v.052c.005 2.277-1.368 4.245-3.26 4.604-1.187.226-2.273.783-3.178 1.699-2.42 2.449-.908 9.635.314 13.986.513 1.82-.043 3.835-1.378 4.916-1.524 1.234-2.593 2.92-2.966 4.934C-.917 49.752 7.028 61.466 19 72c11.972-10.533 19.917-22.248 18.915-27.664" transform="translate(1114 262)"/>
                    <path fill="#FFF" d="M16.473 37.105c.13-2.353-.491-4.214-1.862-5.585-2.057-2.057-4.559-2.89-5.587-1.862-1.029 1.028-.195 3.529 1.862 5.585 1.371 1.37 3.234 1.991 5.587 1.862z" transform="translate(1114 262)"/>
                    <g fill="#208382" transform="translate(1114 262) translate(11 10)">
                        <rect width="2.055" height="75" x="7.473" rx="1.027"/>
                        <path d="M16.2 13.75c.402.408.402 1.063 0 1.47l-6.474 6.546c-.396.401-1.043.405-1.445.008l-.008-.008c-.402-.407-.402-1.063 0-1.47l6.473-6.545c.397-.402 1.044-.405 1.445-.008l.008.008zM16.2 34.532c.402.407.402 1.062 0 1.469l-6.474 6.546c-.396.4-1.043.404-1.445.008l-.008-.008c-.402-.408-.402-1.063 0-1.47l6.473-6.545c.397-.402 1.044-.405 1.445-.009l.008.009zM.8 21.685c.398-.401 1.045-.405 1.446-.008l.008.008 6.473 6.546c.402.407.402 1.062 0 1.47-.397.4-1.044.404-1.445.007l-.008-.008L.8 23.155c-.403-.408-.403-1.063 0-1.47zM1.956 5.378c.396-.401 1.043-.405 1.445-.008l.008.008 5.284 5.344c.402.407.402 1.062 0 1.469-.397.401-1.044.405-1.445.008l-.008-.008-5.284-5.343c-.403-.407-.403-1.063 0-1.47z"/>
                    </g>
                </g>
                <g>
                    <path fill="url(#prefix__l)" d="M29.933 35.1c-.295-1.595-1.138-2.93-2.342-3.907-1.054-.856-1.492-2.45-1.088-3.891.965-3.445 2.16-9.134.248-11.073-.715-.725-1.571-1.166-2.507-1.345-1.494-.284-2.58-1.842-2.575-3.645v-.041C21.669 5.013 18.684 0 14.999 0c-3.683 0-6.668 5.013-6.668 11.198v.041c.004 1.803-1.08 3.36-2.574 3.645-.937.179-1.794.62-2.508 1.345-1.91 1.939-.717 7.628.248 11.073.404 1.44-.034 3.035-1.088 3.891C1.205 32.17.362 33.505.067 35.1-.724 39.387 5.55 48.66 15 57c9.451-8.339 15.724-17.613 14.933-21.9" transform="translate(1092 289)"/>
                    <g fill="#208382" transform="translate(1092 289) translate(8 8)">
                        <rect width="1.571" height="59" x="6.714" rx=".786"/>
                        <path d="M13.388 10.817c.31.323.31.833 0 1.156l-4.95 5.15c-.295.306-.783.316-1.09.02l-.021-.02c-.31-.323-.31-.834 0-1.157l4.95-5.149c.294-.307.782-.316 1.09-.021l.02.021zM13.388 27.165c.31.323.31.833 0 1.156l-4.95 5.149c-.295.307-.783.316-1.09.021l-.021-.021c-.31-.323-.31-.833 0-1.156l4.95-5.15c.294-.306.782-.316 1.09-.02l.02.02zM1.612 17.059c.295-.307.783-.316 1.09-.022l.022.022 4.95 5.15c.31.322.31.832 0 1.155-.296.307-.783.317-1.09.022l-.022-.022-4.95-5.15c-.31-.322-.31-.832 0-1.155zM2.496 4.23c.294-.306.782-.316 1.09-.02l.02.02 4.041 4.204c.31.323.31.833 0 1.156-.295.307-.782.317-1.09.022l-.02-.022-4.041-4.203c-.31-.323-.31-.833 0-1.156z"/>
                    </g>
                </g>
                <path fill="url(#prefix__m)" d="M255.008 678.366c588.377 0 1115.609-5.117 1112.972-1.463 0-149.836-524.595-348.263-1112.972-348.263-4.21 6.34-.494 106.527-.494 256.363s-1.015 95.365.494 93.363z" transform="matrix(-1 0 0 1 1621 0)"/>
                <path fill="#BFE3E4" d="M919.708 366.098l65.298-10.051C1111.58 422.016 1110.245 532.333 981 687c6.656 3.219-241.953 1.156-242.5 1.233 224.198-127.978 284.6-235.357 181.208-322.135z"/>
                <path fill="#00AFAC" d="M1365.992 328.64c.258.389.487 1.132.688 2.22C847.884 352.994 397.62 536.4 354.402 675.591c-65.354-.012-102.083.34-101.382 1.31 0-149.835 524.595-348.262 1112.972-348.262z" opacity=".331" style="mix-blend-mode:multiply"/>
                <path fill="#1EA6A3" d="M660.007 343.919c2.436.184 4.906 5.38 4.624 26.873-.062 4.717-.246 10.287-.522 16.106.876-4.498 1.777-8.756 2.644-12.42 4.564-19.294 8.25-23.453 10.531-22.803 2.283.65 3.596 5.815-.968 25.11-1.592 6.73-3.91 15.337-6.348 23.667 2.021-4.198 4.044-8.198 5.837-11.5 7.597-13.99 11.393-16.421 13.084-15.424 1.691.996 1.683 5.288-5.914 19.278-6.262 11.532-17.907 30.332-22.753 36.022-.022.096-.045.19-.068.28-.813 4.5-1.63 8.24-2.29 10.068.022.505-.045.802-.21.859-.046.015-.1.012-.16-.007-.144.246-.275.37-.394.355-.2-.026-.366-.443-.502-1.174-.113-.14-.233-.295-.36-.467.031.173.017.283-.048.325-.98.631-13.445-14.266-19.676-22.909-6.23-8.641-6.72-11.525-5.74-12.157.98-.632 3.45.723 9.68 9.363 2.46 3.414 5.586 8.043 8.406 12.433-4.392-8.537-9.395-19.188-12.545-26.86-6.195-15.087-5.786-19.567-4.006-20.17 1.78-.6 5.076 2.286 11.27 17.372 1.34 3.267 2.844 7.148 4.36 11.231-.666-3.207-1.249-6.26-1.694-8.932-.74-4.435-1.135-7.908-1.275-10.606-2.326-11.152-1.454-14.34-.047-14.579 1.191-.202 2.865 1.518 5.038 8.736 1.236 2.549 2.57 7.18 3.9 15.152.345 2.073.697 4.39 1.042 6.844.303 1.624.598 3.255.879 4.86-.873-12.495-1.406-27.646-1.265-38.385.281-21.495 3.053-26.724 5.49-26.541z"/>
                <g transform="translate(.317)">
                    <path fill="#A3A3A3" d="M279.933 478.44c-22.844 2.11-41.977-14.49-57.398-49.803C207.113 393.324 133.495 254.112 1.683 11L.207 231.238l161.765 215.098 6.817 107.281 66.527-12.256 44.617-62.92z"/>
                    <path fill="url(#prefix__n)" d="M183.394 541.361V446.84c0-8.302-60.904-100.237-182.711-275.805l-.476 69.012 162.41 206.793v116.219l20.777-21.698z" opacity=".656"/>
                    <path fill="#595959" d="M.683 690l1-57.576c58.42-21.741 87.53-33.544 87.334-35.408-11.848-6.352-41.292-7.511-88.334-3.479C.485 519.035.257 481.634 0 481.336c31.929-5.198 46.765 14.81 44.508 60.025 31.85-.28 47.704-.28 47.564 0l-.075-1.762c-2.403-58.058.341-107.017 8.233-146.876l51.767 50.84 6.88 105.667s23.109-11.94 63.117-25.193c18.227-19.72 34.625-34.919 49.19-45.596 29.148-.596 43.91-.596 44.288 0 36.046-23.596 83.208-24.79 141.488-3.582h453.763l185.775 3.582c14.566 10.677 30.964 25.876 49.191 45.596 40.008 13.252 63.118 25.193 63.118 25.193l6.606-122.726 52.04-33.781c7.892 39.859 10.636 88.818 8.233 146.876l-.075 1.754.011-.008c.49-.264 16.34-.258 47.553.016-2.257-45.215 12.58-65.223 44.508-60.025-.257.298-.485 37.699-.683 112.201-47.042-4.032-76.486-2.873-88.334 3.479-.197 1.864 28.915 13.667 87.334 35.408l1 57.576H.683z"/>
                    <path fill="#FEFEFD" d="M1.683 294l112.715 135.672c3.805-15.732 15.416-10.45 34.836 15.848-.07 1.036 2.58 37.069 7.949 108.097l11.105-6.695c.668-53.024.668-86.824 0-101.402C113.775 366.842 57.748 293.28.207 224.836L1.683 294z"/>
                    <path fill="#FBFAF9" d="M.207 478.459c39.824-.451 69.427 7.538 88.81 23.967-1.863 18.617-4.335 32.166-7.414 40.646-29.766 4.2-44.69 6.252-44.775 6.155 0-17.385 11.574-71.108-36.621-67.032-.276.11-.276-1.136 0-3.736z"/>
                    <path fill="#333" d="M84.498 617.223l-82.815 33.84V690H120.73c-8.58-10.328-14.08-20.229-16.496-29.701-3.625-14.21-3.625-25.34-12.153-32.018-5.684-4.452-8.212-8.138-7.583-11.058z"/>
                    <path fill="#E8E8E8" d="M.207 488.99c17.523-.543 26.285 5.037 26.285 16.74 0 17.555-2.414 44.258-6.391 65.358-4.768 15.18-17.418 14.166-18.418 14.166-.667 0-1.159-32.088-1.476-96.264z"/>
                    <path fill="#787878" d="M120.73 690c-14.163-53.498-10.981-94.704 9.545-123.62 9.795-9.482 27.054-15.439 27.133-14.958 185.863-32.969 476.26-32.015 535.4-32.015 262.975.07 335.896 1.963 517.692 34.21 7.947 1.793 20.757 5.64 26.398 9.442 12.814 15.535 16.166 57.849 10.055 126.941H120.73z"/>
                    <path fill="#595959" d="M390.445 691c64.413 0 120.011 1.027 119.695-.014 19.082-13.68 10.691-51.873 10.691-90.49 0-75.663-57.847-133.543-136.187-133.543-55.809-2.273-103.277 35.02-109.957 118.315 0 75.663-3.211 104.24 13.379 105.718 1.101.466 56.56.014 102.379.014z" filter="url(#prefix__o)"/>
                    <path fill="#333" d="M391.628 674.767c55.011 0 102.495.878 102.225-.012 16.297-11.695 9.13-44.344 9.13-77.356 0-64.682-49.403-114.162-116.309-114.162-47.663-1.943-88.203 29.937-93.908 101.144 0 64.681-2.742 89.11 11.426 90.374.941.399 48.304.012 87.436.012z" filter="url(#prefix__p)"/>
                    <circle cx="179.683" cy="619" r="40" fill="#333"/>
                    <circle cx="1187.683" cy="619" r="40" fill="#333"/>
                    <g>
                        <path fill="#A3A3A3" d="M280 478.44c-22.888-5.223-42.044-25.49-57.465-60.803C207.113 382.324 133.495 243.112 1.683 0L.207 220.238l161.765 215.098 6.817 107.281 66.527-12.256L280 478.441z" transform="matrix(-1 0 0 1 1367.683 0)"/>
                        <path fill="url(#prefix__n)" d="M183.394 541.361V435.84c0-8.302-60.904-100.237-182.711-275.805l-.476 69.012 162.41 206.793v116.219l20.777-10.698z" opacity=".656" transform="matrix(-1 0 0 1 1367.683 0)"/>
                        <path fill="#FEFEFD" d="M1.683 283l112.715 135.672c3.805-15.732 15.416-10.45 34.836 15.848-.07 1.036 3.144 39.273 9.642 114.71l11.106-6.695c-.461-57.432-1.026-93.437-1.694-108.015C113.775 355.842 57.748 282.28.207 213.836L1.683 283z" transform="matrix(-1 0 0 1 1367.683 0)"/>
                        <path fill="#FBFAF9" d="M.207 478.459c39.824-.451 69.427 7.538 88.81 23.967-1.863 18.617-4.335 32.166-7.414 40.646-29.766 4.2-44.69 6.252-44.775 6.155 0-17.385 11.574-71.108-36.621-67.032-.276.11-.276-1.136 0-3.736z" transform="matrix(-1 0 0 1 1367.683 0)"/>
                        <path fill="#333" d="M84.498 617.223l-82.815 33.84V690H120.73c-8.58-10.328-14.08-20.229-16.496-29.701-3.625-14.21-3.625-25.34-12.153-32.018-5.684-4.452-8.212-8.138-7.583-11.058z" transform="matrix(-1 0 0 1 1367.683 0)"/>
                        <path fill="#E8E8E8" d="M.207 488.99c17.523-.543 26.285 5.037 26.285 16.74 0 17.555-2.414 44.258-6.391 65.358-4.768 15.18-17.418 14.166-18.418 14.166-.667 0-1.159-32.088-1.476-96.264z" transform="matrix(-1 0 0 1 1367.683 0)"/>
                    </g>
                    <path fill="#333" d="M683.841 553.617c-54.34 0-109.786 2.465-115.699 9.442-5.912 6.976-5.912 94.644 17.197 125.755 34.367 4.186 142.344 4.186 197.016 0 2.008-.45 18.314-2.602 27.83-109.66.338-28.779-72.002-25.537-126.344-25.537z"/>
                    <path fill="#5E5E5E" d="M618.357 646h128.286c2.762 0 5 2.239 5 5 0 .115-.004.23-.012.344l-1.181 17.138c-.254 3.67-3.305 6.518-6.984 6.518H621.534c-3.68 0-6.73-2.848-6.984-6.518l-1.181-17.138c-.19-2.755 1.889-5.142 4.644-5.332.114-.008.229-.012.344-.012z"/>
                    <g fill="#5E5E5E">
                        <path d="M23.5 0C36.479 0 47 10.521 47 23.5S36.479 47 23.5 47 0 36.479 0 23.5 10.521 0 23.5 0zm0 3c-9.941 0-18 7.835-18 17.5S13.559 38 23.5 38s18-7.835 18-17.5S33.441 3 23.5 3z" transform="translate(607.683 570)"/>
                        <path d="M23.233 5c1.228 0 2.275.892 2.468 2.105l.99 6.2c.869 5.44 1.01 10.97.418 16.445l-.57 5.283C26.355 36.72 24.93 38 23.232 38c-1.71 0-3.157-1.263-3.388-2.957l-.72-5.293c-.745-5.464-.606-11.013.413-16.433l1.17-6.222C20.935 5.88 21.996 5 23.232 5z" transform="translate(607.683 570)"/>
                    </g>
                    <g fill="#5E5E5E">
                        <path d="M23.5 0C36.479 0 47 10.521 47 23.5S36.479 47 23.5 47 0 36.479 0 23.5 10.521 0 23.5 0zm0 3c-9.941 0-18 7.835-18 17.5S13.559 38 23.5 38s18-7.835 18-17.5S33.441 3 23.5 3z" transform="translate(712.683 570)"/>
                        <path d="M23.233 5c1.228 0 2.275.892 2.468 2.105l.99 6.2c.869 5.44 1.01 10.97.418 16.445l-.57 5.283C26.355 36.72 24.93 38 23.232 38c-1.71 0-3.157-1.263-3.388-2.957l-.72-5.293c-.745-5.464-.606-11.013.413-16.433l1.17-6.222C20.935 5.88 21.996 5 23.232 5z" transform="translate(712.683 570)"/>
                    </g>
                    <g fill="#5E5E5E">
                        <path d="M15 0c8.284 0 15 6.716 15 15 0 8.284-6.716 15-15 15-8.284 0-15-6.716-15-15C0 6.716 6.716 0 15 0zm0 1.915c-6.345 0-11.49 5.001-11.49 11.17 0 6.17 5.145 11.17 11.49 11.17 6.345 0 11.49-5 11.49-11.17 0-6.169-5.145-11.17-11.49-11.17z" transform="translate(668.683 572)"/>
                        <path d="M14.663 3c.863 0 1.601.62 1.75 1.47l.672 3.823c.607 3.453.705 6.976.291 10.457L17 21.925C16.859 23.11 15.855 24 14.663 24c-1.2 0-2.22-.879-2.399-2.066l-.477-3.184c-.52-3.473-.423-7.01.288-10.449l.794-3.84c.176-.85.925-1.461 1.794-1.461z" transform="translate(668.683 572)"/>
                    </g>
                    <path fill="#5E5E5E" d="M608.831 630h146.338c.892 0 1.615.723 1.615 1.615 0 .567-.298 1.093-.784 1.385-3.272 1.963-7.015 3-10.831 3H618.831c-3.816 0-7.56-1.037-10.831-3-.765-.459-1.013-1.451-.554-2.216.292-.486.818-.784 1.385-.784z"/>
                    <path stroke="url(#prefix__q)" stroke-linecap="round" stroke-width="3" d="M451.332 567.226c1.524-4.462 2.351-9.248 2.351-14.226 0-24.3-19.7-44-44-44s-44 19.7-44 44c0 5.926 1.172 11.579 3.296 16.739" opacity=".607"/>
                    <path stroke="url(#prefix__r)" stroke-linecap="round" stroke-width="3" d="M357.615 577.211c.692-2.057 1.068-4.263 1.068-6.558 0-11.202-8.954-20.284-20-20.284s-20 9.082-20 20.284c0 2.732.533 5.338 1.498 7.716M499.615 577.211c.692-2.057 1.068-4.263 1.068-6.558 0-11.202-8.954-20.284-20-20.284s-20 9.082-20 20.284c0 2.732.533 5.338 1.498 7.716" opacity=".607"/>
                    <g transform="translate(139.683 440)">
                        <mask id="prefix__t" fill="#fff">
                            <use xlink:href="#prefix__s"/>
                        </mask>
                        <g mask="url(#prefix__t)">
                            <g>
                                <path fill="#949494" d="M180 0c33.688 0 65.214 9.254 92.175 25.36C324.775 56.78 360 114.275 360 180c0 99.411-80.589 180-180 180S0 279.411 0 180 80.589 0 180 0zm151.205 189.063l-.427.142c-26.453 8.887-56.34 19.423-89.665 31.609-27.202 8.047-24.82 70.879-41.636 92.265 16.625 4.575 28.268 10.22 42.793 4.866 48.438-17.853 85.551-71.23 88.935-128.882zm-299.262 3.941l.054.77c4.368 57.845 37.11 102.884 81.148 124.171 8.851 1.007 19.532-4.118 34.007-7.22-11.62-26.194-22.891-56.165-33.812-89.911-17.414-10.456-44.546-19.725-81.397-27.81zM180.5 22C102.184 22 44.738 78.8 33.505 153.453c5.965 1.074 14.132-.106 24.503-3.539 23.707-7.848 45.496-24.176 121.992-24.176 50.998 0 84.017 4.684 99.059 14.05 23.959 10.035 40.718 14.476 50.276 13.323C317.647 78.626 258.696 22 180.5 22z" transform="translate(39 28)"/>
                                <path fill="#A3A3A3" d="M87.188 160.5c6.731 53.651 21.143 82.775 43.234 87.371 33.137 6.895 48.625 6.953 78.652 0 20.018-4.635 35.826-18.332 47.422-41.089 26.813-45.491 26.813-70.424 0-74.798-25.748-5.002-98.129-9.685-145.795 0-20.058 4.088-27.896 13.593-23.513 28.516z" transform="translate(39 28)"/>
                                <path fill="#C2C2C2" d="M104.89 160.677c3.614 35.336 13.712 53.005 30.294 53.005 24.873 0 56.312 2.51 78.377 0 5.635-1.628 12.05-7.978 19.246-19.051 20.257-31.068 20.257-47.862 0-50.381-19.453-2.882-74.139-5.58-110.151 0-15.155 2.354-21.077 7.83-17.765 16.427z" transform="translate(39 28)"/>
                            </g>
                        </g>
                    </g>
                </g>
                <path fill="url(#prefix__u)" opacity=".207" style="mix-blend-mode:multiply" d="M0 11H1366V690H0z"/>
                <path fill="#FFF" fill-rule="nonzero" d="M347.69 636.408c.55-.064 5.308-.161 10.55-.097 5.276.065 11.295.355 14.855.548-.065-1.515-.227-4.318-.295-5.35-.13-1.837-.194-2.158-.647-2.48-.515-.284-1.095-.428-1.684-.42-8.863-.669-17.759-.787-26.637-.354-3.495.194-4.952.451-6.213 1.547-1.056 1.182-1.583 2.742-1.457 4.319-.065 1.708-.13 4.608-.162 5.8l37.121 6.38v-3.957l-27.277-5.033c.458-.549 1.13-.877 1.845-.903zm-11.684 9.926l27.056 4.608c-.583.753-1.506 1.165-2.459 1.096-1.03 0-4.952-.032-6.475-.032-5.987 0-13.333-.226-18.124-.548.065 1.193.227 4.802.324 6.025.13 1.838.194 2.159.648 2.48.513.286 1.091.433 1.679.427 8.863.67 17.76.788 26.637.355 3.495-.194 4.952-.451 6.213-1.547 1.057-1.182 1.583-2.742 1.457-4.319.065-1.837.13-5.027.162-6.025l-37.118-7v4.48z"/>
                <g transform="translate(502 11)">
                    <path fill="#525756" d="M50.846 48h230.308c23.195 0 42 18.804 42 42 0 2.662-.254 5.318-.756 7.932l-3.846 20C314.749 137.707 297.445 152 277.307 152H54.693c-20.138 0-37.442-14.293-41.245-34.068l-3.846-20c-4.38-22.779 10.534-44.796 33.313-49.176 2.614-.503 5.27-.756 7.931-.756z"/>
                    <path fill="#525756" d="M143 0L189 0 180 61 152 61z"/>
                    <path fill="#E9ECEC" d="M80.72 61h170.56c18.106 0 32.784 14.678 32.784 32.785 0 2.086-.199 4.167-.594 6.215l-.958 4.962C278.696 124.723 261.399 139 241.273 139H90.727c-20.126 0-37.423-14.277-41.239-34.038L48.53 100c-3.432-17.778 8.197-34.973 25.975-38.405 2.048-.396 4.13-.595 6.215-.595z"/>
                    <rect width="67" height="8" x="70.295" y="95.355" fill="#C8D0D0" rx="4" transform="rotate(37 103.795 99.355)"/>
                    <rect width="43" height="8" x="69.078" y="102.925" fill="#C8D0D0" rx="4" transform="rotate(37 90.578 106.925)"/>
                </g>
            </g>
        </g>
    </g>
</svg>
